<svg width="161" height="161" viewBox="0 0 161 161" fill="none" xmlns="http://www.w3.org/2000/svg">
<circle cx="80.5" cy="80.5" r="80.5" fill="white"/>
<path d="M161 80.4996C161 124.958 124.959 161 80.5 161C36.0411 161 0 124.958 0 80.4996C36 28.5 29.0411 64.5001 73.5 64.5001C117.959 64.5001 139 27.0001 161 80.4996Z" fill="#C4D7FF"/>
<path d="M36.7812 88.7734C33.6875 88.7734 31.2266 89.9688 29.6797 92.0781C29.75 87.2969 31.7188 83.1484 36.5 83.1484C38.6094 83.1484 40.5078 84.0625 41.6328 85.75L45.0078 82.6562C43.0391 80.125 39.875 78.9297 36.5 78.9297C28.8359 78.9297 25.1797 85.1172 25.1797 92.9219C25.1797 100.445 28.6953 106.352 36.0078 106.352C41.4219 106.352 45.7812 102.625 45.7812 97.3516C45.7812 92.0781 42.0547 88.7734 36.7812 88.7734ZM35.8672 102.273C32.9141 102.273 30.8047 100.305 30.8047 97.4219C30.8047 94.4688 33.0547 92.6406 36.0078 92.6406C38.8906 92.6406 40.9297 94.4688 40.9297 97.4219C40.9297 100.375 38.75 102.273 35.8672 102.273ZM64.4844 92.2891C66.875 91.0938 68.2812 89.0547 68.2812 86.4531C68.2812 81.8125 64.625 78.9297 58.9297 78.9297C53.2344 78.9297 49.5781 81.8125 49.5781 86.4531C49.5781 89.0547 50.9844 91.0938 53.375 92.2891C50.4922 93.5547 48.8047 95.8047 48.8047 98.7578C48.8047 103.328 52.7422 106.352 58.9297 106.352C65.1172 106.352 69.0547 103.328 69.0547 98.7578C69.0547 95.8047 67.3672 93.5547 64.4844 92.2891ZM58.9297 82.7969C61.8125 82.7969 63.6406 84.3438 63.6406 86.7344C63.6406 89.125 61.8125 90.6016 58.9297 90.6016C56.0469 90.6016 54.2188 89.125 54.2188 86.7344C54.2188 84.3438 56.0469 82.7969 58.9297 82.7969ZM58.9297 102.484C55.7656 102.484 53.7969 100.867 53.7969 98.3359C53.7969 95.8047 55.7656 94.3281 58.9297 94.3281C62.0938 94.3281 64.0625 95.8047 64.0625 98.3359C64.0625 100.867 62.0938 102.484 58.9297 102.484ZM73.6953 99.8125V106H76.7188C76.6484 107.688 75.9453 108.461 74.3281 108.461H73.6953V111.203H74.6094C77.7734 111.203 79.8828 109.305 79.8828 105.086V99.8125H73.6953ZM95.8438 89.5469L102.383 83.0078V79.2812H84.3828V83.7109H96.2656L88.8828 91.0234L91.2031 93.625C91.9766 93.2031 92.8906 92.9922 93.875 92.9922C96.6172 92.9922 98.4453 94.75 98.4453 97.4219C98.4453 100.375 96.4062 102.203 93.1016 102.203C90.3594 102.203 88.25 100.727 86.9844 98.0547L83.1875 100.305C84.8047 104.102 88.4609 106.352 93.3125 106.352C99.1484 106.352 103.367 102.625 103.367 97.5625C103.367 93.0625 100.344 89.8281 95.8438 89.5469ZM114.266 95.1016C118.766 95.1016 121.578 91.9375 121.578 87.0156C121.578 82.0938 118.766 78.9297 114.266 78.9297C109.766 78.9297 106.953 82.0938 106.953 87.0156C106.953 91.9375 109.766 95.1016 114.266 95.1016ZM113.914 106H117.5L134.445 79.2812H130.859L113.914 106ZM114.266 91.7266C112.156 91.7266 110.82 89.8984 110.82 87.0156C110.82 84.1328 112.156 82.3047 114.266 82.3047C116.375 82.3047 117.711 84.1328 117.711 87.0156C117.711 89.8984 116.375 91.7266 114.266 91.7266ZM134.164 106.352C138.664 106.352 141.477 103.188 141.477 98.2656C141.477 93.3438 138.664 90.1797 134.164 90.1797C129.664 90.1797 126.852 93.3438 126.852 98.2656C126.852 103.188 129.664 106.352 134.164 106.352ZM134.164 102.977C132.055 102.977 130.719 101.148 130.719 98.2656C130.719 95.3828 132.055 93.5547 134.164 93.5547C136.273 93.5547 137.609 95.3828 137.609 98.2656C137.609 101.148 136.273 102.977 134.164 102.977Z" fill="black"/>
<path d="M45.4062 58.9375C46.375 58.4062 46.9375 57.4688 46.9375 56.2812C46.9375 54.3438 45.5 53.125 43.125 53.125H37.6562V65H43.2188C45.6875 65 47.1562 63.75 47.1562 61.75C47.1562 60.4375 46.5312 59.4688 45.4062 58.9375ZM42.75 55.0938C43.9688 55.0938 44.5938 55.5625 44.5938 56.5312C44.5938 57.5 43.9688 57.9688 42.75 57.9688H39.9688V55.0938H42.75ZM42.7812 63.0312H39.9688V59.875H42.7812C44.125 59.875 44.7812 60.4062 44.7812 61.4688C44.7812 62.5312 44.125 63.0312 42.7812 63.0312ZM55.6562 55.625L51.5312 61.8125V55.625H49.3125V65H51.5625L55.7188 58.8125V65H57.9062V55.625H55.6562ZM67 65H69.6875L65.7188 59.3125L69.5312 55.625H66.7188L62.875 59.5625V55.625H60.625V65H62.875V62.0938L64.1562 60.875L67 65ZM75.2188 65.1562C78.0938 65.1562 80.0625 63.2188 80.0625 60.3125C80.0625 57.375 78.1562 55.4688 75.2188 55.4688C72.3438 55.4688 70.375 57.4062 70.375 60.3125C70.375 63.25 72.2812 65.1562 75.2188 65.1562ZM75.2188 63.2812C73.6562 63.2812 72.6875 62.1562 72.6875 60.3125C72.6875 58.4688 73.6562 57.3438 75.2188 57.3438C76.7812 57.3438 77.75 58.4688 77.75 60.3125C77.75 62.1562 76.7812 63.2812 75.2188 63.2812ZM88.4062 55.625V59.1875H84.3438V55.625H82.0938V65H84.3438V61.25H88.4062V65H90.6562V55.625H88.4062ZM101.281 63.0625C100.906 63.0625 100.719 62.875 100.719 62.5V58.5938C100.719 56.6562 99.3125 55.4688 96.9375 55.4688C95.2812 55.4688 93.9062 56.0312 92.8125 57.0625L94.1562 58.4688C94.9062 57.7188 95.8125 57.3125 96.8125 57.3125C97.9375 57.3125 98.625 57.75 98.625 58.4062C98.625 59.0312 97.8438 59.1875 96.625 59.3438C94.8438 59.5625 92.5938 60.0312 92.5938 62.4062C92.5938 64.0625 93.8438 65.1562 95.6562 65.1562C97.0312 65.1562 98.25 64.5625 98.9375 63.625C99.0938 64.625 99.6875 65.0625 100.844 65.0625C101.25 65.0625 101.5 65.0312 101.656 65V63.0625H101.281ZM96.125 63.375C95.2812 63.375 94.7812 62.9375 94.7812 62.2188C94.7812 61.1875 95.8125 61.0312 96.875 60.8438C97.6562 60.7188 98.1875 60.625 98.5625 60.4062V61.375C98.5625 62.4688 97.4688 63.375 96.125 63.375ZM109.906 55.625V59.1875H105.844V55.625H103.594V65H105.844V61.25H109.906V65H112.156V55.625H109.906ZM119.031 65.1562C121.906 65.1562 123.875 63.2188 123.875 60.3125C123.875 57.375 121.969 55.4688 119.031 55.4688C116.156 55.4688 114.188 57.4062 114.188 60.3125C114.188 63.25 116.094 65.1562 119.031 65.1562ZM119.031 63.2812C117.469 63.2812 116.5 62.1562 116.5 60.3125C116.5 58.4688 117.469 57.3438 119.031 57.3438C120.594 57.3438 121.562 58.4688 121.562 60.3125C121.562 62.1562 120.594 63.2812 119.031 63.2812Z" fill="black"/>
</svg>
