<svg width="161" height="161" viewBox="0 0 161 161" fill="none" xmlns="http://www.w3.org/2000/svg">
<circle cx="80.5" cy="80.5" r="80.5" fill="white"/>
<path d="M161 80.4995C161 124.958 124.959 161 80.5 161C36.0411 161 0 124.958 0 80.4995C39.5 118 30.5411 87 75 87C119.459 87 127 118.5 161 80.4995Z" fill="#FFE600" fill-opacity="0.37"/>
<path d="M46.0625 95.3125H41.9844V79.2812H35.8672L24.125 95.5234V99.6719H37.2734V106H41.9844V99.6719H46.0625V95.3125ZM29.1875 95.3125L37.2734 84.2031V95.3125H29.1875ZM58.6484 88.2812C56.6797 88.2812 54.9922 88.7734 53.7266 89.6875L54.2188 83.8516H65.75V79.2812H50.3516L49.1562 93.1328L52.8125 94.4688C53.8672 92.9219 55.5547 92.0781 57.5234 92.0781C60.6172 92.0781 62.6562 94.0469 62.6562 97.0703C62.6562 100.094 60.4766 102.133 57.2422 102.133C54.7109 102.133 52.3906 100.797 51.1953 98.7578L47.8906 101.43C49.6484 104.523 53.0938 106.352 57.3828 106.352C63.5 106.352 67.6484 102.625 67.6484 97.2109C67.6484 92.0781 63.7812 88.2812 58.6484 88.2812ZM72.2188 99.8125V106H75.2422C75.1719 107.688 74.4688 108.461 72.8516 108.461H72.2188V111.203H73.1328C76.2969 111.203 78.4062 109.305 78.4062 105.086V99.8125H72.2188ZM94.4375 88.7734C91.3438 88.7734 88.8828 89.9688 87.3359 92.0781C87.4062 87.2969 89.375 83.1484 94.1562 83.1484C96.2656 83.1484 98.1641 84.0625 99.2891 85.75L102.664 82.6562C100.695 80.125 97.5312 78.9297 94.1562 78.9297C86.4922 78.9297 82.8359 85.1172 82.8359 92.9219C82.8359 100.445 86.3516 106.352 93.6641 106.352C99.0781 106.352 103.438 102.625 103.438 97.3516C103.438 92.0781 99.7109 88.7734 94.4375 88.7734ZM93.5234 102.273C90.5703 102.273 88.4609 100.305 88.4609 97.4219C88.4609 94.4688 90.7109 92.6406 93.6641 92.6406C96.5469 92.6406 98.5859 94.4688 98.5859 97.4219C98.5859 100.375 96.4062 102.273 93.5234 102.273ZM113.773 95.1016C118.273 95.1016 121.086 91.9375 121.086 87.0156C121.086 82.0938 118.273 78.9297 113.773 78.9297C109.273 78.9297 106.461 82.0938 106.461 87.0156C106.461 91.9375 109.273 95.1016 113.773 95.1016ZM113.422 106H117.008L133.953 79.2812H130.367L113.422 106ZM113.773 91.7266C111.664 91.7266 110.328 89.8984 110.328 87.0156C110.328 84.1328 111.664 82.3047 113.773 82.3047C115.883 82.3047 117.219 84.1328 117.219 87.0156C117.219 89.8984 115.883 91.7266 113.773 91.7266ZM133.672 106.352C138.172 106.352 140.984 103.188 140.984 98.2656C140.984 93.3438 138.172 90.1797 133.672 90.1797C129.172 90.1797 126.359 93.3438 126.359 98.2656C126.359 103.188 129.172 106.352 133.672 106.352ZM133.672 102.977C131.562 102.977 130.227 101.148 130.227 98.2656C130.227 95.3828 131.562 93.5547 133.672 93.5547C135.781 93.5547 137.117 95.3828 137.117 98.2656C137.117 101.148 135.781 102.977 133.672 102.977Z" fill="black"/>
<path d="M45.4062 58.9375C46.375 58.4062 46.9375 57.4688 46.9375 56.2812C46.9375 54.3438 45.5 53.125 43.125 53.125H37.6562V65H43.2188C45.6875 65 47.1562 63.75 47.1562 61.75C47.1562 60.4375 46.5312 59.4688 45.4062 58.9375ZM42.75 55.0938C43.9688 55.0938 44.5938 55.5625 44.5938 56.5312C44.5938 57.5 43.9688 57.9688 42.75 57.9688H39.9688V55.0938H42.75ZM42.7812 63.0312H39.9688V59.875H42.7812C44.125 59.875 44.7812 60.4062 44.7812 61.4688C44.7812 62.5312 44.125 63.0312 42.7812 63.0312ZM55.6562 55.625L51.5312 61.8125V55.625H49.3125V65H51.5625L55.7188 58.8125V65H57.9062V55.625H55.6562ZM67 65H69.6875L65.7188 59.3125L69.5312 55.625H66.7188L62.875 59.5625V55.625H60.625V65H62.875V62.0938L64.1562 60.875L67 65ZM75.2188 65.1562C78.0938 65.1562 80.0625 63.2188 80.0625 60.3125C80.0625 57.375 78.1562 55.4688 75.2188 55.4688C72.3438 55.4688 70.375 57.4062 70.375 60.3125C70.375 63.25 72.2812 65.1562 75.2188 65.1562ZM75.2188 63.2812C73.6562 63.2812 72.6875 62.1562 72.6875 60.3125C72.6875 58.4688 73.6562 57.3438 75.2188 57.3438C76.7812 57.3438 77.75 58.4688 77.75 60.3125C77.75 62.1562 76.7812 63.2812 75.2188 63.2812ZM88.4062 55.625V59.1875H84.3438V55.625H82.0938V65H84.3438V61.25H88.4062V65H90.6562V55.625H88.4062ZM101.281 63.0625C100.906 63.0625 100.719 62.875 100.719 62.5V58.5938C100.719 56.6562 99.3125 55.4688 96.9375 55.4688C95.2812 55.4688 93.9062 56.0312 92.8125 57.0625L94.1562 58.4688C94.9062 57.7188 95.8125 57.3125 96.8125 57.3125C97.9375 57.3125 98.625 57.75 98.625 58.4062C98.625 59.0312 97.8438 59.1875 96.625 59.3438C94.8438 59.5625 92.5938 60.0312 92.5938 62.4062C92.5938 64.0625 93.8438 65.1562 95.6562 65.1562C97.0312 65.1562 98.25 64.5625 98.9375 63.625C99.0938 64.625 99.6875 65.0625 100.844 65.0625C101.25 65.0625 101.5 65.0312 101.656 65V63.0625H101.281ZM96.125 63.375C95.2812 63.375 94.7812 62.9375 94.7812 62.2188C94.7812 61.1875 95.8125 61.0312 96.875 60.8438C97.6562 60.7188 98.1875 60.625 98.5625 60.4062V61.375C98.5625 62.4688 97.4688 63.375 96.125 63.375ZM109.906 55.625V59.1875H105.844V55.625H103.594V65H105.844V61.25H109.906V65H112.156V55.625H109.906ZM119.031 65.1562C121.906 65.1562 123.875 63.2188 123.875 60.3125C123.875 57.375 121.969 55.4688 119.031 55.4688C116.156 55.4688 114.188 57.4062 114.188 60.3125C114.188 63.25 116.094 65.1562 119.031 65.1562ZM119.031 63.2812C117.469 63.2812 116.5 62.1562 116.5 60.3125C116.5 58.4688 117.469 57.3438 119.031 57.3438C120.594 57.3438 121.562 58.4688 121.562 60.3125C121.562 62.1562 120.594 63.2812 119.031 63.2812Z" fill="black"/>
</svg>
