<svg width="134" height="35" viewBox="0 0 134 35" fill="none" xmlns="http://www.w3.org/2000/svg">
<path fill-rule="evenodd" clip-rule="evenodd" d="M14.6837 0.136376C14.5521 0.210225 13.9559 0.561008 13.3585 0.916052C12.7613 1.2711 12.2192 1.5616 12.154 1.5616C12.0887 1.5616 11.5936 1.84563 11.0535 2.19279C10.5134 2.53994 10.0133 2.82398 9.94217 2.82398C9.87103 2.82398 9.54626 3.00323 9.22021 3.22226C8.89433 3.44144 8.21368 3.84272 7.7077 4.11428C7.20173 4.3857 6.58393 4.74847 6.33477 4.92031C5.89643 5.22249 5.89132 5.24159 6.17526 5.51016C6.33668 5.66275 6.93534 6.03278 7.5056 6.3326C8.07586 6.63225 8.75778 7.00355 9.02098 7.15772C9.55376 7.46953 9.23664 7.59671 12.0119 5.95925C12.4725 5.68736 13.2438 5.25279 13.726 4.99337C14.2082 4.73395 14.7721 4.3898 14.9793 4.22853C15.3964 3.90394 15.4639 3.92382 16.6625 4.72386C17.0472 4.98075 17.4243 5.19093 17.5004 5.19093C17.5767 5.19093 17.997 5.427 18.4344 5.71561C18.8719 6.00406 19.7452 6.51343 20.3752 6.84733L21.5203 7.45453L22.0501 7.06036C22.3413 6.8437 22.9969 6.45931 23.5069 6.2062C24.0169 5.95309 24.5431 5.62709 24.6761 5.4816C24.8974 5.23985 24.839 5.16663 24.0008 4.63628C23.4962 4.31705 22.97 4.01629 22.8315 3.96816C22.6929 3.92004 22.472 3.79285 22.3404 3.68555C22.2088 3.57825 21.7063 3.29232 21.2238 3.05026C20.7413 2.80804 20.1455 2.47335 19.9 2.30624C19.4932 2.02947 18.2742 1.33658 16.4698 0.356503C15.7703 -0.0234724 15.1131 -0.104422 14.6837 0.136376ZM81.3686 4.64622C81.0971 5.2146 80.7774 5.94236 80.6581 6.26364C80.4016 6.95463 79.646 8.6893 78.7875 10.5586C78.4479 11.2977 78.1702 11.9653 78.1702 12.0423C78.1702 12.1193 77.9515 12.6404 77.6842 13.2001C77.4168 13.7598 77.0206 14.6842 76.8036 15.2543C76.5867 15.8243 76.353 16.3674 76.2841 16.461C76.2152 16.5547 76.0747 16.8264 75.9716 17.0652L75.7843 17.4991H77.5248C79.1932 17.4991 79.2696 17.4844 79.3675 17.1441C79.4238 16.9489 79.6929 16.2741 79.9654 15.645L80.461 14.501H83.2182C86.3831 14.501 86.0313 14.3217 86.7793 16.3156L87.1937 17.4202L88.9029 17.465C90.9112 17.5176 90.8727 17.5701 90.0583 15.8844C89.7534 15.2537 89.3301 14.3116 89.1173 13.7909C88.3496 11.9123 87.8581 10.7722 87.3258 9.63466C87.0278 8.99763 86.7839 8.41347 86.7839 8.3363C86.7839 8.25914 86.5327 7.66519 86.2256 7.01633C85.9186 6.36763 85.6673 5.76042 85.6673 5.66717C85.6673 5.57391 85.451 5.07353 85.1866 4.55517L84.7056 3.61296H83.2839H81.8621L81.3686 4.64622ZM113.082 3.83072C111.288 4.23879 109.632 5.56791 108.637 7.40009L108.079 8.42578V10.7138V13.0019L108.637 14.0276C110.001 16.5377 112.194 17.8037 115.177 17.8037C116.322 17.8037 117.909 17.5109 118.527 17.1862C119.386 16.7349 120.76 15.5707 120.76 15.2952C120.76 15.111 119.029 13.3964 118.843 13.3964C118.745 13.3964 118.437 13.5659 118.158 13.7729C116.499 15.0026 114.916 15.2251 113.462 14.4331C112.082 13.6815 111.349 12.393 111.349 10.7175C111.349 8.90722 112.187 7.58945 113.822 6.82792C115.123 6.22151 116.09 6.364 117.712 7.4012C118.254 7.74772 118.749 8.02655 118.812 8.02071C119.067 7.99704 120.62 5.95594 120.571 5.7074C120.492 5.30139 119.029 4.27161 118.128 3.9882C117.073 3.65588 114.24 3.56752 113.082 3.83072ZM39.2488 10.6182V17.4991L43.6753 17.4903C48.668 17.4803 48.8819 17.4415 50.1366 16.3152C50.7385 15.775 50.8691 15.5429 51.0476 14.6982C51.2146 13.9078 51.2173 13.5316 51.0611 12.8037C50.8115 11.6399 50.8096 11.6376 48.9887 10.2853C48.9503 10.2567 49.0747 10.1251 49.2655 9.99286C49.9272 9.53446 50.4148 8.47659 50.4148 7.49951C50.4148 5.99112 49.7527 4.89412 48.4209 4.19665C47.827 3.88564 47.4869 3.85802 43.5158 3.79979L39.2488 3.73715V10.6182ZM54.4026 10.6349V17.4991H55.9978H57.5929V10.6349V3.77076H55.9978H54.4026V10.6349ZM61.4212 10.6349V17.4991H63.0164H64.6115V13.3959V9.29271L65.1365 9.88493C65.4252 10.2106 65.7662 10.6293 65.8942 10.8151C66.0221 11.001 66.7729 11.9822 67.5625 12.9956C69.7278 15.7744 69.7507 15.8041 70.4089 16.6816L71.0221 17.4991H72.4427H73.8633V10.6349V3.77076H72.2709H70.6785L70.6359 7.75514L70.5933 11.7395L69.9088 10.8716C69.5324 10.3943 68.994 9.69604 68.7125 9.31985C68.4309 8.94382 67.9824 8.37575 67.7155 8.05748C67.4486 7.73936 67.1256 7.32577 66.9977 7.13847C66.8698 6.95116 66.2424 6.11673 65.6039 5.28435L64.4428 3.77076H62.932H61.4212V10.6349ZM92.6859 10.6349V17.4991H94.2811H95.8762V13.37V9.24111L96.3503 9.70125C96.6111 9.95436 96.8264 10.2428 96.8288 10.3421C96.8312 10.4415 97.0332 10.7343 97.2774 10.993C97.5218 11.2516 97.9181 11.7384 98.1585 12.0748C98.7637 12.9216 99.3075 13.6347 100.422 15.0432C100.949 15.7081 101.582 16.5328 101.829 16.8757L102.278 17.4991H103.783H105.288V10.6349V3.77076H103.613H101.938V7.81684V11.8629L100.941 10.5369C100.393 9.80776 99.8207 9.0699 99.6702 8.89727C99.3533 8.53371 98.9027 7.94055 97.4862 6.02253C95.7505 3.67245 95.8953 3.77076 94.1715 3.77076H92.6859V10.6349ZM122.994 10.7138V17.6569H128.417H133.84V16.2367V14.8166H130.092H126.343V13.4753V12.134H129.534H132.724V10.6349V9.13586H129.534H126.343V7.87349V6.61111H130.012H133.681V5.19093V3.77076H128.337H122.994V10.7138ZM45.8442 6.60164C47.0548 6.87952 47.6645 8.0619 46.9342 8.71565C46.5498 9.0598 45.2389 9.29366 43.6935 9.29366H42.4391V7.87349V6.45331L43.8349 6.4571C44.6026 6.45915 45.5067 6.52416 45.8442 6.60164ZM2.88002 6.88725C2.66563 7.03905 1.94974 7.45122 1.28919 7.80295L0.0882111 8.44234L0.0441853 10.6515L0 12.8607L0.579513 13.1679C1.72036 13.773 2.3297 14.1158 2.86838 14.4554C3.16922 14.645 3.47437 14.7642 3.54631 14.7201C3.61841 14.6761 3.67727 13.7535 3.67727 12.6696V10.6992L4.17256 10.4303C4.60947 10.1933 6.20365 9.24711 6.86755 8.83068C7.07332 8.70176 7.06215 8.64669 6.78779 8.43777C6.61232 8.30411 6.14575 8.03681 5.75095 7.84382C5.35615 7.65068 4.73564 7.29437 4.37195 7.05184C3.59895 6.53647 3.40514 6.51517 2.88002 6.88725ZM14.4444 7.11511C14.0058 7.38889 13.288 7.79964 12.8493 8.02765C12.4106 8.25567 12.0517 8.53529 12.0517 8.6489C12.0517 8.76236 12.5183 9.12592 13.0886 9.45667C13.6588 9.78741 14.3637 10.2056 14.6548 10.3859C15.2777 10.7716 15.6871 10.8024 15.9547 10.4833C16.0611 10.3564 16.3031 10.2065 16.4926 10.1502C16.8997 10.0292 18.9906 8.78524 18.9906 8.66405C18.9906 8.55596 18.5794 8.30475 17.2662 7.61028C16.6794 7.29989 16.0858 6.94816 15.9472 6.82855C15.581 6.51233 15.3349 6.55919 14.4444 7.11511ZM26.4791 7.05452C26.0891 7.29847 25.5546 7.60728 25.2914 7.74078C24.4771 8.15405 23.7781 8.57994 23.7782 8.66247C23.7786 8.75179 24.615 9.26068 26.1553 10.1082L27.2055 10.6862L27.2501 12.7513C27.2745 13.8873 27.3359 14.8166 27.3864 14.8166C27.437 14.8166 27.7973 14.6035 28.1874 14.3432C28.5774 14.0828 28.9372 13.8698 28.9872 13.8698C29.0371 13.8698 29.5002 13.616 30.016 13.3061L30.9541 12.7423V10.6455V8.5487L29.9572 8.02797C29.4089 7.74157 28.6602 7.30573 28.2934 7.05925C27.4683 6.50475 27.3588 6.50444 26.4791 7.05452ZM84.111 9.76705C84.2046 9.98402 84.4027 10.4989 84.5511 10.9111L84.8208 11.6606H83.247H81.6734L81.7827 11.2267C81.8428 10.9879 82.1673 10.1999 82.5035 9.47513C82.84 8.75052 83.1193 8.04044 83.1244 7.89716C83.1323 7.67151 83.5383 8.44077 84.111 9.76705ZM8.39983 10.5734C7.97058 10.8401 7.25277 11.254 6.8047 11.4932L5.99022 11.9282L5.94603 14.0465L5.90201 16.1646L6.98287 16.787C7.57738 17.1292 8.31513 17.5457 8.6222 17.7121C8.92926 17.8788 9.43045 18.183 9.73592 18.3883C10.0414 18.5936 10.3606 18.7615 10.4451 18.7615C10.5298 18.7615 10.872 18.9486 11.2057 19.1774L11.8125 19.5934V22.9482V26.3029L12.5842 26.7927C13.0085 27.0621 13.3971 27.2825 13.4475 27.2825C13.4981 27.2825 13.9208 27.5311 14.387 27.8348C15.3636 28.4711 15.5178 28.4943 16.0948 28.0916C16.3277 27.9289 16.9488 27.5757 17.4752 27.3065C19.1196 26.4656 18.9898 26.8327 18.9965 23.0047L19.0022 19.6294L19.695 19.1954C20.0761 18.9567 20.4358 18.7615 20.4945 18.7615C20.5532 18.7615 21.0335 18.4775 21.5618 18.1303C22.0901 17.7831 22.5669 17.4991 22.6213 17.4991C22.6755 17.4991 23.2088 17.2069 23.8063 16.8498L24.8926 16.2006V14.0998C24.8926 12.0183 24.8888 11.9961 24.4723 11.6721C24.2411 11.4922 23.9882 11.345 23.9102 11.345C23.832 11.345 23.3136 11.061 22.7578 10.7138C22.2022 10.3667 21.6269 10.0826 21.4793 10.0826C21.1705 10.0826 20.5446 10.4087 18.7513 11.5031C18.0495 11.9316 17.224 12.3989 16.9169 12.5418C16.6098 12.6844 16.1578 12.9424 15.9125 13.1149L15.4663 13.4284L14.8391 13.018C14.4942 12.7922 14.164 12.6074 14.1055 12.6074C14.0469 12.6074 13.6218 12.3598 13.1612 12.0573C12.7003 11.7547 12.1545 11.4433 11.9482 11.3652C11.742 11.2871 11.18 10.9666 10.6995 10.6529C10.2189 10.3392 9.68057 10.0841 9.50319 10.0856C9.32565 10.0872 8.82925 10.3069 8.39983 10.5734ZM47.1692 12.3035C47.7305 12.5724 47.8714 12.73 47.9581 13.1873C48.0498 13.6714 47.9983 13.8082 47.5614 14.2408L47.0594 14.7377L44.7492 14.7919L42.4391 14.8462V13.4112V11.9762H44.4624C46.1839 11.9762 46.5877 12.0251 47.1692 12.3035ZM0.046259 20.9983L0.0882111 26.5488L1.44408 27.3008C2.1898 27.7146 3.15885 28.2427 3.59751 28.4744C4.03618 28.7062 4.61043 29.0552 4.87362 29.25C5.13682 29.4447 5.53162 29.6594 5.75095 29.727C5.97028 29.7945 6.18562 29.9012 6.22949 29.964C6.27336 30.0268 6.81172 30.3451 7.42584 30.6711C8.03997 30.9972 8.7329 31.3979 8.96579 31.5614C9.19868 31.7248 9.43205 31.8587 9.48421 31.8587C9.53653 31.8587 9.57928 30.8723 9.57928 29.6665V27.4746L9.14221 27.366C8.90182 27.3064 8.66861 27.2065 8.62379 27.1441C8.53989 27.0271 7.25261 26.2548 6.54852 25.899C6.32919 25.788 5.61137 25.3904 4.95338 25.0151L3.75703 24.3328L3.71412 20.8649L3.67137 17.397L3.15582 17.1303C2.44487 16.7624 1.39543 16.1725 0.750193 15.778C0.453179 15.5964 0.163821 15.4477 0.107193 15.4477C0.0507254 15.4477 0.023289 17.9455 0.046259 20.9983ZM30.0919 15.8422C29.7688 16.0592 29.4585 16.2367 29.4027 16.2367C29.3467 16.2367 28.8497 16.5031 28.2982 16.8285L27.2955 17.4202L27.2505 20.8678L27.2055 24.3153L26.2115 24.8386C25.6646 25.1262 25.0269 25.5098 24.7942 25.691C24.5614 25.872 24.3077 26.0202 24.2301 26.0202C24.1526 26.0202 23.6411 26.2865 23.0933 26.6119C22.5455 26.9374 21.9008 27.3045 21.6605 27.4276L21.2238 27.6515V29.6668C21.2238 30.7754 21.2866 31.7207 21.3635 31.7676C21.4404 31.8146 21.8172 31.6426 22.201 31.3853C22.5848 31.1281 22.9515 30.9163 23.0159 30.9147C23.0804 30.9131 23.504 30.6861 23.9574 30.4102C24.7618 29.9206 25.0934 29.7352 26.8368 28.8009C27.3027 28.5511 27.8879 28.2044 28.1369 28.0305C28.3861 27.8566 29.1039 27.4457 29.7321 27.1175L30.8744 26.5205L30.9163 20.9842C30.9396 17.9024 30.8964 15.4477 30.8188 15.4477C30.7423 15.4477 30.4151 15.6253 30.0919 15.8422ZM5.94588 20.9312L5.99022 23.1009L6.72973 23.4954C7.13633 23.7124 7.86291 24.1208 8.34416 24.4027C8.82558 24.6847 9.30029 24.9156 9.39935 24.9156C9.52361 24.9156 9.57928 24.2838 9.57928 22.8708V20.8261L8.82159 20.4004C8.40494 20.166 7.6171 19.7015 7.07093 19.3679C6.52459 19.0345 6.03807 18.7615 5.98958 18.7615C5.94109 18.7615 5.92147 19.7379 5.94588 20.9312ZM24.0153 19.2644C23.5766 19.5473 22.787 20.0027 22.2606 20.2765L21.3035 20.7742L21.259 22.8448C21.2067 25.2785 21.1909 25.2634 22.7578 24.2844C23.3136 23.9372 23.8239 23.6529 23.8916 23.6524C23.9596 23.6519 24.2153 23.4922 24.46 23.2974L24.9046 22.9431L24.8588 20.8466L24.8128 18.7501L24.0153 19.2644ZM94.4699 21.6825C92.8292 22.1349 92.0106 22.8368 91.1005 24.5711C90.4838 25.7464 90.6501 27.7378 91.4822 29.1423C92.4369 30.7539 93.9337 31.4732 96.0718 31.348C97.6321 31.2567 98.7074 30.8432 99.2136 30.1402L99.5629 29.6549L99.1153 29.0999C98.8692 28.7947 98.6133 28.5449 98.5466 28.5449C98.4801 28.5449 98.1335 28.7543 97.7763 29.0103C96.2997 30.0684 95.0137 30.0449 93.8172 28.9377C93.1983 28.365 93.044 28.1032 92.8858 27.3567C92.2068 24.154 95.2951 22.1555 97.9301 24.0927L98.4688 24.4887L99.0009 23.8736C99.2936 23.5355 99.5358 23.2003 99.539 23.1292C99.5496 22.8997 99.1504 22.5985 98.1801 22.1033C96.9997 21.501 95.6736 21.3505 94.4699 21.6825ZM40.2592 21.994C39.3453 22.4508 39.0407 22.8177 38.78 23.7752C38.5122 24.759 38.7749 25.652 39.5181 26.2845C40.0919 26.7727 40.7239 27.0225 42.4653 27.4492C42.9022 27.5563 43.3908 27.8189 43.6489 28.0853C44.0309 28.4797 44.0649 28.5897 43.909 28.928C43.3274 30.1907 41.8223 30.0957 39.6752 28.6607C39.4233 28.4924 39.3209 28.5399 38.9175 29.0123C38.3029 29.7323 38.3292 30.0221 39.0494 30.465C41.1549 31.76 44.2099 31.6477 45.3675 30.2327C45.7527 29.762 45.8624 29.4556 45.9179 28.6975C45.9773 27.8856 45.9307 27.666 45.5913 27.1588C45.1283 26.4666 44.6058 26.1828 42.7581 25.6203C41.0142 25.0893 40.6845 24.8768 40.6845 24.2844C40.6845 23.277 42.3196 23.028 43.9159 23.7925L44.6576 24.1477L45.1389 23.6243C45.4035 23.3365 45.6222 22.9914 45.6248 22.8576C45.6275 22.7115 45.2311 22.43 44.6324 22.1527C43.8514 21.791 43.359 21.6793 42.3594 21.6366C41.2369 21.5884 40.984 21.6315 40.2592 21.994ZM62.1311 21.9569C62.0709 22.1522 61.7888 22.7758 61.5039 23.343C61.2191 23.9101 60.9346 24.5492 60.8717 24.7631C60.7546 25.1616 59.885 27.1277 58.9547 29.0972C58.6677 29.7047 58.3819 30.4326 58.3193 30.7146L58.2056 31.2275H59.0973H59.9891L60.3759 30.399C60.5886 29.9435 60.8009 29.4464 60.8476 29.2944C60.9232 29.0492 61.1743 29.0183 63.0937 29.0183H65.2547L65.4724 29.5311C65.5921 29.8131 65.8052 30.3103 65.9459 30.6357L66.2016 31.2275H67.243H68.2846L68.0647 30.7146C67.9436 30.4326 67.6613 29.8112 67.4371 29.3339C66.0835 26.4503 65.7281 25.6586 65.7281 25.5272C65.7281 25.4464 65.4901 24.903 65.1992 24.3194C64.9084 23.736 64.5353 22.8858 64.3702 22.4303L64.07 21.6018H63.1552C62.3451 21.6018 62.2277 21.6425 62.1311 21.9569ZM113.813 22.8248C113.492 23.4973 113.138 24.3 113.025 24.6083C112.913 24.9167 112.607 25.5913 112.345 26.1074C112.083 26.6236 111.815 27.2234 111.749 27.4403C111.683 27.6573 111.359 28.4029 111.028 29.0972C110.697 29.7915 110.381 30.5549 110.326 30.7935L110.226 31.2275H111.174H112.122L112.573 30.1248L113.024 29.0222L115.177 29.0241L117.331 29.026L117.61 29.581C117.763 29.8862 117.891 30.2572 117.894 30.4055C117.906 31.0077 118.282 31.2275 119.302 31.2275C119.841 31.2275 120.282 31.183 120.282 31.1287C120.282 31.0742 120.077 30.6305 119.826 30.1425C119.576 29.6544 119.317 29.0775 119.25 28.8605C119.184 28.6435 118.861 27.8979 118.531 27.2036C118.202 26.5093 117.884 25.7869 117.825 25.5984C117.765 25.4098 117.468 24.7512 117.164 24.1346C116.861 23.5181 116.613 22.9469 116.613 22.8653C116.613 22.7839 116.492 22.4662 116.344 22.1595C116.087 21.6255 116.04 21.6018 115.236 21.6018H114.397L113.813 22.8248ZM47.384 26.4935V31.2275H48.3411H49.2982L49.3049 28.0321C49.3114 24.9375 49.3202 24.8517 49.584 25.3101C50.023 26.0729 51.3956 28.1138 51.7806 28.5762C52.1226 28.9871 52.1442 28.9918 52.4009 28.7114C52.547 28.5514 53.2007 27.6142 53.8531 26.6286L55.0396 24.8367L55.0402 28.0321L55.0407 31.2275H55.9978H56.9549V26.4935V21.7596H55.934H54.9131L54.0846 23.0615C52.9 24.9228 52.2612 25.8542 52.1694 25.8542C52.0712 25.8542 51.0675 24.4015 50.7726 23.8325C50.6539 23.6037 50.3586 23.168 50.1162 22.8642C49.8739 22.5605 49.6287 22.1877 49.5716 22.0358C49.4872 21.8114 49.2722 21.7596 48.4258 21.7596H47.384V26.4935ZM69.3969 26.4935V31.2275H70.2743H71.1516V29.6495V28.0715L72.1485 28.0739L73.1455 28.0763L73.8633 29.1101C75.3044 31.1856 75.3567 31.2275 76.5119 31.2275C77.0731 31.2275 77.5321 31.1841 77.5321 31.1311C77.5321 31.0782 77.1968 30.5633 76.787 29.987C75.5294 28.2187 75.2989 27.8738 75.2989 27.7605C75.2989 27.7005 75.4964 27.5538 75.7376 27.4343C76.8075 26.9048 77.2362 26.1377 77.2417 24.7429C77.2466 23.4301 76.7937 22.6602 75.721 22.1582C74.9134 21.7801 74.7282 21.7596 72.1332 21.7596H69.3969V26.4935ZM78.1702 22.6275V23.4954H79.6856H81.201V27.3614V31.2275H82.158H83.1151V27.3614V23.4954H84.5507H85.9864V22.6275V21.7596H82.0783H78.1702V22.6275ZM100.821 26.4935V31.2275H101.858H102.895V29.255V27.2825H104.968H107.042V29.255V31.2275H108.079H109.116V26.4935V21.7596H108.079H107.042V23.6532V25.5468H104.968H102.895V23.6532V21.7596H101.858H100.821V26.4935ZM121.558 26.4935V31.2275H122.435H123.313V26.4935V21.7596H122.435H121.558V26.4935ZM125.386 26.4935V31.2275H126.34H127.294L127.337 28.0321L127.38 24.8367L127.699 25.3344C127.875 25.6082 128.485 26.4172 129.055 27.1323C129.625 27.8475 130.271 28.6658 130.491 28.9508C132.393 31.4236 132.166 31.2275 133.128 31.2275H134V26.4935V21.7596H133.043H132.086V24.8594V27.9592L131.497 27.1869C131.173 26.7621 130.867 26.3791 130.818 26.3358C130.769 26.2924 130.517 25.9728 130.259 25.6257C130.001 25.2785 129.744 24.959 129.689 24.9156C129.634 24.8722 129.065 24.1444 128.425 23.2982L127.261 21.7596H126.324H125.386V26.4935ZM75.0739 24.0171C75.5149 24.5247 75.5542 24.9058 75.2297 25.5264C74.9311 26.0978 74.1136 26.3358 72.4491 26.3358H71.1516V24.9017V23.4675L72.9204 23.521C74.6309 23.5726 74.7019 23.5888 75.0739 24.0171ZM115.892 25.7213C116.751 27.4012 116.8 27.2825 115.236 27.2825H113.867L113.974 26.8486C114.033 26.61 114.338 25.8821 114.652 25.2312C115.177 24.1432 115.232 24.0808 115.34 24.4589C115.404 24.685 115.652 25.2531 115.892 25.7213ZM63.3354 24.4494C63.3354 24.5403 63.5866 25.1455 63.8937 25.7942C64.2008 26.4431 64.452 27.0433 64.452 27.1282C64.452 27.2166 63.8782 27.2825 63.1099 27.2825H61.7677L62.0544 26.533C62.5549 25.2234 63.0264 24.2844 63.1834 24.2844C63.267 24.2844 63.3354 24.3587 63.3354 24.4494ZM11.8126 31.1091L11.8128 33.1999L12.633 33.6733C13.0843 33.9337 13.7841 34.3373 14.1881 34.5702C14.9558 35.0125 15.6122 35.1161 16.0817 34.8686C16.234 34.7883 16.9509 34.3877 17.6746 33.9782L18.9906 33.2339V31.1225V29.0114L17.7544 29.6651C17.0744 30.0247 16.4105 30.4077 16.2789 30.5163C15.6797 31.0102 15.3685 31.0723 14.9799 30.7758C14.7732 30.6182 14.1805 30.2611 13.6627 29.9826C13.1449 29.7041 12.5727 29.3732 12.3909 29.2473C12.2092 29.1213 12.0047 29.0183 11.9364 29.0183C11.8683 29.0183 11.8125 29.9592 11.8126 31.1091Z" fill="#FEBB0C"/>
</svg>
