<svg width="19" height="19" viewBox="0 0 19 19" fill="none" xmlns="http://www.w3.org/2000/svg">
<path d="M5.9375 17.8125C6.59334 17.8125 7.125 17.2808 7.125 16.625C7.125 15.9692 6.59334 15.4375 5.9375 15.4375C5.28166 15.4375 4.75 15.9692 4.75 16.625C4.75 17.2808 5.28166 17.8125 5.9375 17.8125Z" fill="black"/>
<path d="M14.25 17.8125C14.9058 17.8125 15.4375 17.2808 15.4375 16.625C15.4375 15.9692 14.9058 15.4375 14.25 15.4375C13.5942 15.4375 13.0625 15.9692 13.0625 16.625C13.0625 17.2808 13.5942 17.8125 14.25 17.8125Z" fill="black"/>
<path d="M16.625 4.15625H3.45563L2.96875 1.6625C2.94099 1.52637 2.86637 1.40428 2.75788 1.31749C2.6494 1.2307 2.51391 1.1847 2.375 1.1875H0V2.375H1.88813L4.15625 13.775C4.18401 13.9111 4.25863 14.0332 4.36712 14.12C4.47561 14.2068 4.61109 14.2528 4.75 14.25H15.4375V13.0625H5.23688L4.75 10.6875H15.4375C15.5748 10.6909 15.7089 10.6465 15.8172 10.5621C15.9254 10.4777 16.0011 10.3583 16.0313 10.2244L17.2188 4.88062C17.2386 4.79253 17.2382 4.70105 17.2174 4.61316C17.1966 4.52527 17.156 4.44328 17.0988 4.37343C17.0415 4.30358 16.9691 4.24771 16.887 4.21007C16.8049 4.17244 16.7153 4.15403 16.625 4.15625ZM14.9625 9.5H4.52438L3.69313 5.34375H15.8828L14.9625 9.5Z" fill="black"/>
</svg>
