<svg width="91" height="19" viewBox="0 0 91 19" fill="none" xmlns="http://www.w3.org/2000/svg">
<path d="M8.64 6.74C9.25333 7.06 9.73333 7.5 10.08 8.06C10.4267 8.62 10.6 9.26667 10.6 10C10.6 11.1467 10.1933 12.1 9.38 12.86C8.56667 13.62 7.57333 14 6.4 14H0.4V-9.53674e-07H5.96C7.10667 -9.53674e-07 8.07333 0.373332 8.86 1.12C9.66 1.85333 10.06 2.77333 10.06 3.88C10.06 5.09333 9.58667 6.04667 8.64 6.74ZM5.96 2.16H2.7V5.84H5.96C6.46667 5.84 6.89333 5.66667 7.24 5.32C7.58667 4.96 7.76 4.52 7.76 4C7.76 3.48 7.58667 3.04667 7.24 2.7C6.89333 2.34 6.46667 2.16 5.96 2.16ZM6.4 11.84C6.93333 11.84 7.38 11.6533 7.74 11.28C8.11333 10.8933 8.3 10.4267 8.3 9.88C8.3 9.33333 8.11333 8.87333 7.74 8.5C7.38 8.11333 6.93333 7.92 6.4 7.92H2.7V11.84H6.4ZM19.4023 4H21.5623V14H19.4023V12.72C18.749 13.7467 17.7157 14.26 16.3023 14.26C15.1557 14.26 14.229 13.8933 13.5223 13.16C12.8157 12.4267 12.4623 11.42 12.4623 10.14V4H14.6223V9.92C14.6223 10.6667 14.8223 11.24 15.2223 11.64C15.6223 12.04 16.169 12.24 16.8623 12.24C17.6223 12.24 18.2357 12.0067 18.7023 11.54C19.169 11.06 19.4023 10.3333 19.4023 9.36V4ZM30.8281 4H33.1281L29.2881 14.32C28.3281 16.9067 26.7015 18.1333 24.4081 18V15.98C25.0881 16.02 25.6348 15.8733 26.0481 15.54C26.4615 15.22 26.8015 14.7133 27.0681 14.02L27.1681 13.82L22.9281 4H25.2881L28.2681 11.26L30.8281 4ZM48.7188 -9.53674e-07V2.2H44.7788V14H42.4788V2.2H38.5188V-9.53674e-07H48.7188ZM53.2027 14.26C51.736 14.26 50.4893 13.7533 49.4627 12.74C48.436 11.7267 47.9227 10.48 47.9227 9C47.9227 7.52 48.436 6.27333 49.4627 5.26C50.4893 4.24667 51.736 3.74 53.2027 3.74C54.6827 3.74 55.9293 4.24667 56.9427 5.26C57.9693 6.27333 58.4827 7.52 58.4827 9C58.4827 10.48 57.9693 11.7267 56.9427 12.74C55.9293 13.7533 54.6827 14.26 53.2027 14.26ZM50.9827 11.26C51.5827 11.86 52.3227 12.16 53.2027 12.16C54.0827 12.16 54.8227 11.86 55.4227 11.26C56.0227 10.66 56.3227 9.90667 56.3227 9C56.3227 8.09333 56.0227 7.34 55.4227 6.74C54.8227 6.14 54.0827 5.84 53.2027 5.84C52.3227 5.84 51.5827 6.14 50.9827 6.74C50.3827 7.34 50.0827 8.09333 50.0827 9C50.0827 9.90667 50.3827 10.66 50.9827 11.26ZM69.2758 14H66.6958L62.5958 9.38V14H60.4358V-9.53674e-07H62.5958V8.42L66.4758 4H69.1158L64.7158 8.9L69.2758 14ZM71.628 9.92C71.788 10.68 72.1546 11.2667 72.728 11.68C73.3013 12.08 74.0013 12.28 74.828 12.28C75.9746 12.28 76.8346 11.8667 77.408 11.04L79.188 12.08C78.2013 13.5333 76.7413 14.26 74.808 14.26C73.1813 14.26 71.868 13.7667 70.868 12.78C69.868 11.78 69.368 10.52 69.368 9C69.368 7.50667 69.8613 6.26 70.848 5.26C71.8346 4.24667 73.1013 3.74 74.648 3.74C76.1146 3.74 77.3146 4.25333 78.248 5.28C79.1946 6.30667 79.668 7.55333 79.668 9.02C79.668 9.24667 79.6413 9.54667 79.588 9.92H71.628ZM71.608 8.16H77.488C77.3413 7.34667 77.0013 6.73333 76.468 6.32C75.948 5.90667 75.3346 5.7 74.628 5.7C73.828 5.7 73.1613 5.92 72.628 6.36C72.0946 6.8 71.7546 7.4 71.608 8.16ZM86.8286 3.74C87.9753 3.74 88.9019 4.10667 89.6086 4.84C90.3153 5.57333 90.6686 6.58 90.6686 7.86V14H88.5086V8.08C88.5086 7.33333 88.3086 6.76 87.9086 6.36C87.5086 5.96 86.9619 5.76 86.2686 5.76C85.5086 5.76 84.8953 6 84.4286 6.48C83.9619 6.94667 83.7286 7.66667 83.7286 8.64V14H81.5686V4H83.7286V5.28C84.3819 4.25333 85.4153 3.74 86.8286 3.74Z" fill="url(#paint0_linear_557_1042)"/>
<defs>
<linearGradient id="paint0_linear_557_1042" x1="14.2786" y1="-4.99999" x2="62.6984" y2="40.3538" gradientUnits="userSpaceOnUse">
<stop stop-color="#FC84FF"/>
<stop offset="1" stop-color="#54D1FA"/>
</linearGradient>
</defs>
</svg>
