<svg width="50" height="50" viewBox="0 0 50 50" fill="none" xmlns="http://www.w3.org/2000/svg">
<path opacity="0.2" d="M10.6369 39.3631C8.83924 37.5655 10.0316 33.7913 9.11656 31.5799C8.16804 29.2874 4.6875 27.4424 4.6875 24.9999C4.6875 22.5575 8.16806 20.7125 9.11657 18.4201C10.0316 16.2086 8.83924 12.4345 10.6369 10.6369C12.4345 8.83924 16.2087 10.0316 18.4201 9.11656C20.7126 8.16804 22.5576 4.6875 25.0001 4.6875C27.4425 4.6875 29.2875 8.16806 31.5799 9.11657C33.7914 10.0316 37.5655 8.83924 39.3631 10.6369C41.1608 12.4345 39.9684 16.2087 40.8834 18.4201C41.832 20.7126 45.3125 22.5576 45.3125 25.0001C45.3125 27.4425 41.8319 29.2875 40.8834 31.5799C39.9684 33.7914 41.1608 37.5655 39.3631 39.3631C37.5655 41.1608 33.7913 39.9684 31.5799 40.8834C29.2874 41.832 27.4424 45.3125 24.9999 45.3125C22.5575 45.3125 20.7125 41.8319 18.4201 40.8834C16.2086 39.9684 12.4345 41.1608 10.6369 39.3631Z" fill="#F36AFF"/>
<path d="M10.6369 39.3631C8.83924 37.5655 10.0316 33.7913 9.11656 31.5799C8.16804 29.2874 4.6875 27.4424 4.6875 24.9999C4.6875 22.5575 8.16806 20.7125 9.11657 18.4201C10.0316 16.2086 8.83924 12.4345 10.6369 10.6369C12.4345 8.83924 16.2087 10.0316 18.4201 9.11656C20.7126 8.16804 22.5576 4.6875 25.0001 4.6875C27.4425 4.6875 29.2875 8.16806 31.5799 9.11657C33.7914 10.0316 37.5655 8.83924 39.3631 10.6369C41.1608 12.4345 39.9684 16.2087 40.8834 18.4201C41.832 20.7126 45.3125 22.5576 45.3125 25.0001C45.3125 27.4425 41.8319 29.2875 40.8834 31.5799C39.9684 33.7914 41.1608 37.5655 39.3631 39.3631C37.5655 41.1608 33.7913 39.9684 31.5799 40.8834C29.2874 41.832 27.4424 45.3125 24.9999 45.3125C22.5575 45.3125 20.7125 41.8319 18.4201 40.8834C16.2086 39.9684 12.4345 41.1608 10.6369 39.3631Z" stroke="#F36AFF" stroke-width="2.5" stroke-linecap="round" stroke-linejoin="round"/>
<path d="M33.5938 20.3125L22.1354 31.25L16.4062 25.7812" stroke="#F36AFF" stroke-width="2.5" stroke-linecap="round" stroke-linejoin="round"/>
</svg>
