<svg width="134" height="24" viewBox="0 0 134 24" fill="none" xmlns="http://www.w3.org/2000/svg">
<path fill-rule="evenodd" clip-rule="evenodd" d="M10.1784 0.0585466C7.5517 0.328085 5.14913 1.50957 3.25086 3.46514C1.11548 5.66493 0 8.43752 0 11.5454C0 14.7567 1.2191 17.6585 3.49929 19.8746C6.882 23.1622 11.8438 24.0121 16.0801 22.0294C17.4217 21.4015 18.9753 20.2696 19.2742 19.7023C19.3991 19.4653 19.3977 18.9777 19.2716 18.7334C19.0824 18.3671 18.6358 18.1428 18.2097 18.2C17.9577 18.2339 17.832 18.3162 17.033 18.9708C15.9687 19.8428 14.7715 20.4157 13.2806 20.7664C12.6309 20.9192 12.4789 20.9326 11.3619 20.9346C10.3039 20.9365 10.0705 20.9193 9.53666 20.7996C7.71283 20.3907 6.04619 19.489 4.83395 18.2555L4.43078 17.8452L6.80501 14.0287C8.11086 11.9296 9.20432 10.1869 9.23497 10.1559C9.26983 10.1207 9.29072 10.8775 9.29072 12.1772C9.29072 14.3713 9.31853 14.6843 9.5608 15.2147C9.84976 15.8473 10.2591 16.1292 10.8885 16.129C11.3603 16.1289 11.7307 15.9563 12.1497 15.5413C12.5209 15.1737 12.5305 15.1592 14.1722 12.4934C14.9449 11.2387 15.6073 10.1747 15.6442 10.1288C15.6949 10.0658 15.7197 10.4289 15.7454 11.6101C15.7832 13.3434 15.818 13.5547 16.1925 14.3228C16.4895 14.9316 17.0569 15.5026 17.6404 15.7799C18.1915 16.0418 18.6584 16.1305 19.262 16.0879C20.8512 15.9757 22.1336 14.7967 22.5477 13.067C22.7639 12.1644 22.6939 10.2422 22.3967 8.91824C21.9339 6.85626 20.8184 4.84388 19.2898 3.31339C16.8875 0.907928 13.5431 -0.286775 10.1784 0.0585466ZM12.723 2.21474C14.7881 2.54542 16.5117 3.46306 18.0193 5.03455C19.6671 6.75215 20.5751 9.00326 20.6096 11.4565C20.6188 12.1112 20.5988 12.3609 20.5144 12.6415C20.2219 13.6142 19.4604 14.1657 18.7156 13.9443C18.376 13.8433 18.1641 13.639 17.9788 13.2341C17.8488 12.9501 17.8417 12.8554 17.8066 10.9528C17.773 9.13629 17.759 8.93418 17.6415 8.57043C17.392 7.79825 16.8829 7.35001 16.1925 7.29449C15.8533 7.26723 15.7665 7.28412 15.4349 7.44185C14.6437 7.81822 14.4333 8.08474 12.6909 10.9172L11.3915 13.0297L11.3574 10.4063C11.3276 8.11359 11.3101 7.74196 11.2181 7.45862C10.983 6.7345 10.565 6.39042 9.92059 6.39042C9.51517 6.39042 9.23633 6.51811 8.89483 6.85999C8.75339 7.00161 7.51424 8.93394 5.90949 11.5154C4.40055 13.9427 3.15097 15.929 3.13269 15.9293C3.08044 15.9304 2.63146 14.8274 2.45766 14.271C2.15781 13.3107 2.05455 12.4735 2.08875 11.2787C2.14456 9.3288 2.61525 7.83416 3.67776 6.23334C4.21698 5.42093 5.35281 4.26706 6.13649 3.73544C7.2338 2.99118 8.51438 2.46454 9.76413 2.24365C10.5564 2.10364 11.9442 2.09007 12.723 2.21474ZM34.6385 6.77028C32.8798 7.10672 31.5504 8.14268 30.7694 9.78522C30.0195 11.3621 30.1129 13.2802 31.014 14.8144C31.8815 16.2912 33.4605 17.2682 35.1748 17.3889C36.4227 17.4767 37.6298 17.1056 38.7168 16.3C39.3869 15.8034 39.5458 15.4155 39.2932 14.8931C39.1578 14.6131 38.8184 14.3895 38.5288 14.3895C38.2697 14.3895 37.9686 14.5266 37.6771 14.7775C37.3252 15.0801 36.6574 15.3856 36.1169 15.4913C34.8155 15.7455 33.4853 15.147 32.818 14.0068C32.7367 13.8679 32.5977 13.5439 32.509 13.2868C32.368 12.8778 32.3481 12.7303 32.3492 12.1083C32.3503 11.5013 32.3735 11.3272 32.5074 10.9186C33.203 8.79523 35.4711 8.0083 37.4214 9.21355C37.6995 9.38544 37.8409 9.43509 38.0525 9.43509C38.7271 9.43509 39.1822 8.72561 38.9163 8.08841C38.7366 7.65794 37.8121 7.10547 36.867 6.86384C36.2295 6.7009 35.2222 6.65859 34.6385 6.77028ZM49.2639 6.79718C48.5648 7.11519 48.3352 7.98916 48.7779 8.64698C49.2092 9.28779 50.2757 9.26889 50.7281 8.61238C51.2691 7.82723 50.6832 6.68929 49.7379 6.68929C49.6077 6.68929 49.3944 6.73781 49.2639 6.79718ZM111.826 6.77662C110.77 6.97737 109.876 7.45891 109.088 8.25088C108.034 9.31197 107.524 10.5494 107.524 12.049C107.524 13.5699 108.037 14.8028 109.115 15.8708C110.461 17.2038 112.26 17.7003 114.06 17.2354C114.995 16.9938 116.322 16.1912 116.538 15.7366C116.801 15.1813 116.502 14.5254 115.934 14.4116C115.63 14.3507 115.36 14.4403 115 14.7224C114.27 15.2934 113.584 15.5397 112.731 15.5362C112.284 15.5345 112.082 15.5031 111.742 15.3831C110.41 14.9125 109.577 13.6526 109.577 12.1083C109.577 10.1574 110.962 8.642 112.745 8.642C113.398 8.642 114.281 8.92641 114.828 9.3128C114.943 9.39397 115.093 9.43509 115.276 9.43509C116.022 9.43509 116.454 8.67667 116.102 7.98561C115.905 7.5981 115.006 7.09197 114.098 6.85709C113.49 6.69983 112.428 6.66221 111.826 6.77662ZM61.2477 6.92369C61.1313 7.04024 61.1294 7.12118 61.1294 11.7636C61.1294 16.4288 61.1309 16.4882 61.2528 16.7404C61.3207 16.8808 61.4573 17.0535 61.5563 17.1241C61.7464 17.2596 62.2027 17.3334 62.4565 17.2696C62.6269 17.2268 62.9918 16.9242 63.0992 16.7366C63.1508 16.6465 63.1792 15.921 63.2005 14.1481L63.2301 11.6848L64.4728 13.0378C65.8574 14.5452 65.9667 14.6251 66.3544 14.4123C66.4664 14.3509 67.1008 13.7098 67.7642 12.9878L68.9703 11.675L68.9999 14.1432C69.0288 16.5575 69.0323 16.616 69.1597 16.8211C69.5448 17.4411 70.4745 17.4484 70.8945 16.8349L71.0414 16.6202L71.0583 11.9053C71.0675 9.31203 71.0612 7.13368 71.0442 7.06453C71.0017 6.89128 70.6952 6.76862 70.5127 6.85187C70.4364 6.88671 69.4533 7.95379 68.3279 9.22315C67.2025 10.4925 66.239 11.5476 66.1867 11.5676C66.1344 11.5877 66.041 11.5771 65.9792 11.5439C65.9174 11.5108 64.9626 10.4629 63.8576 9.21527C62.7525 7.96759 61.7785 6.91492 61.6932 6.87599C61.4766 6.77716 61.3842 6.78705 61.2477 6.92369ZM87.8198 6.89578C87.5474 7.01831 87.4143 7.145 87.2791 7.41015C87.1721 7.62014 87.1671 7.82847 87.1683 12.0615C87.1696 16.255 87.1756 16.506 87.2798 16.7358C87.4299 17.0665 87.7015 17.2487 88.0933 17.2812C88.4769 17.3131 88.7073 17.226 88.9394 16.9613C89.1978 16.6665 89.2375 16.4284 89.2379 15.1714L89.2382 14.0276L90.5253 15.5252C91.2332 16.3489 91.9029 17.0836 92.0135 17.1579C92.6142 17.5611 93.4989 17.0345 93.4989 16.2738C93.4989 15.9409 93.4553 15.8752 92.3461 14.5378C91.8061 13.8869 91.4988 13.4697 91.5261 13.4246C91.5502 13.385 91.9573 12.9306 92.4309 12.4148C92.9044 11.8991 93.3281 11.4084 93.3724 11.3245C93.5756 10.9395 93.3277 10.2522 92.9071 10.0344C92.6486 9.90052 92.2508 9.9212 92.0135 10.0808C91.9029 10.1552 91.2399 10.8493 90.5401 11.6232L89.2678 13.0302L89.2382 10.288C89.2088 7.55413 89.2082 7.54519 89.0725 7.3266C88.8101 6.90408 88.2384 6.70748 87.8198 6.89578ZM103.456 6.87137C103.174 6.95296 102.878 7.27837 102.798 7.59496C102.761 7.74368 102.73 8.30267 102.73 8.83931V9.81366L102.318 9.837C101.862 9.86284 101.673 9.96303 101.443 10.3005C101.26 10.57 101.265 10.9543 101.456 11.2806C101.64 11.5953 101.902 11.7231 102.361 11.7231H102.714L102.746 13.4859C102.774 15.0031 102.795 15.3121 102.899 15.7044C103.045 16.2555 103.144 16.4562 103.425 16.7677C103.839 17.2263 104.423 17.4113 105.455 17.4113C105.952 17.4113 106.053 17.3937 106.227 17.2766C106.669 16.9781 106.814 16.4919 106.592 16.0497C106.433 15.7334 106.151 15.5745 105.749 15.5745C105.26 15.5745 105.044 15.4824 104.931 15.2258C104.853 15.0506 104.832 14.7125 104.813 13.3674L104.791 11.7231H105.335C106.194 11.7231 106.519 11.489 106.564 10.8382C106.583 10.566 106.563 10.4732 106.449 10.3065C106.187 9.9244 106.04 9.85887 105.393 9.83641L104.808 9.81615L104.79 8.64657L104.772 7.47699L104.601 7.25313C104.419 7.01393 104.038 6.80518 103.796 6.81182C103.714 6.81407 103.561 6.84085 103.456 6.87137ZM43.0021 9.91948C41.1735 10.3303 39.9032 11.985 40.0256 13.7969C40.0931 14.7973 40.4291 15.5308 41.1545 16.2617C42.0861 17.2003 43.2968 17.5807 44.5303 17.3226C45.5524 17.1087 46.5554 16.314 47.0367 15.3368C47.6245 14.1432 47.5897 12.7759 46.9433 11.6649C46.505 10.9113 45.7559 10.3085 44.8721 9.99787C44.4106 9.83564 43.5382 9.79908 43.0021 9.91948ZM55.7547 9.89045C55.413 9.95776 54.9077 10.1942 54.5612 10.4488C54.2306 10.6918 54.2057 10.6976 54.2057 10.5311C54.2057 10.4621 54.1023 10.3021 53.976 10.1756C53.7676 9.96694 53.7174 9.94555 53.4364 9.94555C53.1554 9.94555 53.1052 9.96694 52.8969 10.1756L52.6671 10.4056V13.5146V16.6235L52.8017 16.8234C52.8757 16.9334 53.0288 17.0863 53.142 17.1633C53.3148 17.2809 53.4048 17.2997 53.7053 17.2812C54.1316 17.2549 54.3885 17.0978 54.5621 16.757C54.6702 16.5447 54.6791 16.4042 54.6791 14.9035C54.6791 14.0105 54.7062 13.1372 54.7392 12.9627C54.8215 12.5282 55.0088 12.1633 55.2403 11.9865C55.6838 11.6478 56.5479 11.6672 56.9549 12.0251C57.3434 12.3667 57.3619 12.4775 57.3982 14.6905L57.4308 16.6802L57.5966 16.8977C57.8145 17.1835 58.0388 17.2928 58.4072 17.2928C58.787 17.2928 59.0126 17.177 59.2369 16.867L59.4132 16.6233L59.4124 14.5435C59.4114 12.2063 59.3858 11.9967 59.0149 11.2901C58.503 10.3147 57.6028 9.81342 56.3992 9.83357C56.1855 9.83712 55.8954 9.86272 55.7547 9.89045ZM74.993 9.91261C74.0596 10.1258 73.1911 10.8238 72.7405 11.7231C72.4395 12.324 72.3158 12.8675 72.3158 13.5896C72.3158 14.3215 72.4397 14.8531 72.7634 15.5096C73.2327 16.4616 74.0066 17.1041 74.9532 17.3276C75.9493 17.5628 77.3327 17.2093 77.9069 16.573C78.0201 16.4475 78.1261 16.3448 78.1424 16.3448C78.1588 16.3448 78.1722 16.4261 78.1722 16.5255C78.1722 16.9474 78.5101 17.2928 78.9229 17.2928C79.288 17.2928 79.521 17.155 79.655 16.8593C79.7606 16.6263 79.7674 16.4321 79.7674 13.6192C79.7674 10.8063 79.7606 10.6121 79.655 10.379C79.521 10.0834 79.288 9.94555 78.9229 9.94555C78.5101 9.94555 78.1722 10.2909 78.1722 10.7129C78.1722 10.9331 78.1179 10.9398 77.9328 10.7426C77.2811 10.0481 75.9929 9.68437 74.993 9.91261ZM84.6496 9.9097C84.2505 10.0068 83.8483 10.2073 83.5005 10.4825L83.2141 10.7091L83.1768 10.5096C83.1537 10.3864 83.0601 10.2405 82.932 10.1278C82.5694 9.80904 82 9.90313 81.7457 10.3239C81.6413 10.4965 81.6329 10.6876 81.6156 13.2637C81.6055 14.7791 81.6139 16.1576 81.6343 16.327C81.6772 16.6837 81.8468 16.9649 82.1385 17.1633C82.4117 17.3492 82.9608 17.3293 83.25 17.1232C83.6365 16.8477 83.6429 16.8109 83.6756 14.7154C83.7049 12.8386 83.7068 12.8163 83.8532 12.526C83.9345 12.3648 84.0943 12.1593 84.2082 12.0694C84.451 11.8778 84.9945 11.7231 85.425 11.7231C86.4149 11.7231 86.7324 10.3802 85.8443 9.94976C85.5557 9.80992 85.1199 9.79529 84.6496 9.9097ZM96.5967 9.88784C94.8611 10.2013 93.8515 11.6046 93.855 13.6985C93.8563 14.4607 93.9716 15.011 94.2479 15.5745C94.6547 16.4038 95.4321 17.0023 96.4578 17.2756C96.9418 17.4047 98.3415 17.4192 98.8248 17.3002C99.3118 17.1803 99.8657 16.8897 100.098 16.6323C100.281 16.43 100.304 16.3665 100.304 16.0801C100.304 15.8028 100.278 15.7265 100.121 15.5478C100.009 15.4199 99.8458 15.3142 99.6992 15.2746C99.4515 15.2079 99.4438 15.2095 98.7133 15.4825C98.5705 15.5358 98.2546 15.6047 98.0113 15.6356C97.022 15.7612 96.1726 15.3681 95.987 14.6987C95.8595 14.2394 95.6697 14.2784 98.1295 14.2589C100.146 14.2428 100.347 14.2322 100.492 14.1336C100.792 13.9297 100.867 13.75 100.856 13.2613C100.819 11.6809 99.9337 10.4404 98.5289 9.99941C98.0856 9.86023 97.0731 9.80175 96.5967 9.88784ZM119.951 9.9199C118.717 10.1874 117.689 11.2483 117.371 12.5823C117.231 13.1689 117.244 14.1125 117.4 14.7035C117.822 16.3084 119.131 17.4113 120.612 17.4113C121.398 17.4113 122.38 17.0558 122.826 16.6099C123.085 16.3504 123.146 16.3584 123.146 16.6515C123.146 16.8264 123.316 17.0849 123.504 17.1959C123.594 17.2492 123.793 17.2928 123.947 17.2928C124.192 17.2928 124.253 17.2649 124.455 17.0628L124.685 16.8327V13.6192V10.4056L124.455 10.1756C124.253 9.97346 124.192 9.94555 123.947 9.94555C123.473 9.94555 123.2 10.2008 123.119 10.7205L123.086 10.9326L122.807 10.6766C122.048 9.9785 120.982 9.69622 119.951 9.9199ZM129.774 9.9199C129.307 10.0211 128.763 10.2817 128.44 10.5585L128.2 10.7639L128.096 10.4702C127.921 9.97779 127.393 9.79203 126.945 10.0656C126.567 10.2965 126.579 10.1327 126.58 15.1134C126.581 19.3852 126.587 19.6466 126.691 19.875C127.046 20.6588 128.147 20.6649 128.524 19.8851C128.641 19.6431 128.65 19.5309 128.65 18.233V16.8404L129.049 17.0353C129.853 17.4273 130.929 17.5084 131.707 17.2355C132.143 17.083 132.796 16.6402 133.058 16.32C133.389 15.9147 133.675 15.395 133.841 14.8931C133.981 14.4717 133.999 14.327 134 13.5896C134.001 12.8325 133.987 12.7187 133.836 12.2866C133.203 10.4714 131.583 9.52759 129.774 9.9199ZM49.2437 10.046C49.1346 10.0998 48.9749 10.2506 48.8886 10.3811L48.7319 10.6182L48.7155 13.5483C48.6993 16.4268 48.7012 16.483 48.8241 16.7371C48.9846 17.069 49.2346 17.2453 49.5943 17.2799C49.9623 17.3153 50.1288 17.2705 50.3631 17.0731C50.7735 16.7273 50.7708 16.7507 50.7722 13.6321C50.7733 11.2354 50.7602 10.7988 50.6819 10.6111C50.5736 10.3517 50.391 10.144 50.1699 10.0288C49.9552 9.91699 49.4876 9.9257 49.2437 10.046ZM76.7503 11.945C78.2614 12.7168 77.8365 15.2993 76.1584 15.5424C75.2122 15.6795 74.3783 14.7654 74.3783 13.591C74.3783 12.8681 74.6717 12.2871 75.1907 11.9826C75.7102 11.6778 76.2038 11.6659 76.7503 11.945ZM121.651 11.9076C121.995 12.074 122.405 12.5476 122.532 12.9248C122.66 13.3028 122.66 13.9626 122.532 14.3161C122.307 14.941 121.824 15.3858 121.226 15.5199C120.555 15.6701 119.845 15.247 119.503 14.4922C119.291 14.0267 119.267 13.3592 119.443 12.8508C119.592 12.4186 120.058 11.9453 120.461 11.817C120.819 11.7029 121.304 11.7398 121.651 11.9076ZM130.978 11.8905C131.307 12.0363 131.609 12.3398 131.79 12.707C131.912 12.9548 131.933 13.0834 131.933 13.5896C131.934 14.1046 131.914 14.2247 131.781 14.508C131.463 15.183 130.963 15.5389 130.338 15.5356C129.899 15.5333 129.625 15.4204 129.276 15.0987C128.426 14.3141 128.453 12.7741 129.329 12.1053C129.827 11.7251 130.427 11.6469 130.978 11.8905ZM44.4787 11.9488C45.8395 12.6445 45.6257 15.0453 44.1632 15.4938C43.3785 15.7343 42.4671 15.1756 42.1926 14.2857C41.7742 12.9294 42.5746 11.7299 43.8498 11.8021C44.0869 11.8155 44.3282 11.8718 44.4787 11.9488ZM98.0188 11.9033C98.1963 11.9698 98.4137 12.081 98.5019 12.1504C98.6543 12.2705 98.8799 12.6755 98.8827 12.8341C98.8837 12.8914 98.5494 12.9082 97.4046 12.9082C95.7731 12.9082 95.84 12.926 96.0067 12.5359C96.2725 11.9139 97.2372 11.6105 98.0188 11.9033Z" fill="#5588FF"/>
</svg>
