<svg width="98" height="14" viewBox="0 0 98 14" fill="none" xmlns="http://www.w3.org/2000/svg">
<path id="coingecko-branding-guide-4f5245361f7a47478fa54c2c57808a9e05d31ac7ca498ab189a3827d6000e22b (Traced)" fill-rule="evenodd" clip-rule="evenodd" d="M5.18255 0.46175C2.40701 1.31948 0.713925 3.84151 0.71876 7.11145C0.723453 10.3621 2.36065 12.7713 5.18255 13.6799C6.19731 14.0066 8.09816 14.0206 9.16796 13.7093C11.1894 13.1211 12.6392 11.4415 13.0036 9.26534L13.1009 8.68413H11.9379H10.7751L10.5472 9.47266C10.2551 10.483 9.61448 11.3295 8.84615 11.7201C8.00373 12.1484 6.35559 12.1562 5.53806 11.7357C3.79321 10.8383 2.80233 8.44276 3.18714 6.0516C3.60109 3.47856 5.06708 2.06711 7.31603 2.07614C8.79979 2.08216 9.83219 2.73995 10.4431 4.06866L10.7419 4.71824H11.8728H13.0038V4.26148C13.0038 4.01026 12.8077 3.42742 12.5681 2.96628C11.8902 1.6615 10.5755 0.698609 8.99233 0.347423C8.01752 0.131077 6.0625 0.189881 5.18255 0.46175ZM46.2066 0.451357C44.0588 1.16549 42.5555 2.77003 41.9356 5.00967C41.667 5.98035 41.6728 8.14559 41.9467 9.15703C42.2486 10.2717 42.9589 11.5083 43.7238 12.2507C45.0359 13.5246 47.2559 14.1962 49.1561 13.8944C50.3165 13.7101 50.801 13.4968 51.7115 12.7693L52.3796 12.2354L52.5284 12.7504C52.6101 13.0336 52.6774 13.3424 52.6778 13.4364C52.6784 13.5523 52.9304 13.6073 53.4608 13.6073H54.2429V10.1884V6.76957H51.3277H48.4126V7.59009V8.41062H50.1817C51.2245 8.41062 51.9874 8.46751 52.04 8.54929C52.2225 8.8332 51.7989 10.2007 51.3515 10.7725C50.0665 12.4149 47.1505 12.5434 45.5737 11.027C44.5294 10.0227 44.2248 9.14103 44.2208 7.11145C44.2171 5.25842 44.4205 4.51708 45.2249 3.45107C46.824 1.33206 50.7619 1.74465 51.6092 4.11994L51.7981 4.64987L52.9494 4.68952C54.2441 4.73424 54.2263 4.75257 53.9005 3.71173C53.4173 2.16763 52.1518 0.991674 50.4138 0.471459C49.2567 0.125059 47.2169 0.11535 46.2066 0.451357ZM26.3709 1.43613V2.39341H27.5086H28.6462V1.43613V0.478844H27.5086H26.3709V1.43613ZM77.991 7.04307V13.6073H79.0575H80.1241V11.9952V10.3833L80.8159 9.72798L81.5079 9.07265L82.9845 11.3377L84.4613 13.6029L85.7767 13.6051C86.5001 13.6063 87.0921 13.5754 87.0921 13.5366C87.0921 13.4976 86.1878 12.1636 85.0827 10.572L83.0732 7.6783L84.9252 5.92469L86.7771 4.17122H85.384H83.991L82.1459 6.01741C81.131 7.03282 80.261 7.8636 80.2124 7.8636C80.1639 7.8636 80.1241 6.20203 80.1241 4.17122V0.478844H79.0575H77.991V7.04307ZM17.6965 4.10968C16.6278 4.43174 15.7014 5.21794 15.1368 6.2819C14.6491 7.20116 14.6391 7.25299 14.6391 8.87737C14.6391 10.4751 14.656 10.5677 15.1072 11.4499C15.6618 12.5342 16.4258 13.2144 17.5431 13.6189C18.7012 14.0382 20.8728 13.9503 21.8915 13.4429C23.7602 12.5123 24.6385 10.8265 24.4857 8.4641C24.3521 6.3965 23.2497 4.82519 21.4879 4.19119C20.5212 3.84342 18.7091 3.80445 17.6965 4.10968ZM34.8044 4.09847C34.5545 4.20295 34.0586 4.54689 33.7023 4.86266L33.0545 5.43689V4.80399V4.17122H32.0591H31.0637V8.88927V13.6073H32.1302H33.1967V10.4834C33.1967 7.47809 33.2093 7.33669 33.5274 6.75685C34.1113 5.69248 35.4386 5.25104 36.5417 5.75444C37.3953 6.14405 37.4629 6.47308 37.4629 10.2433V13.6073H38.6005H39.7381V10.0766C39.7381 5.9556 39.646 5.45098 38.7519 4.67421C38.4451 4.40754 37.9495 4.12418 37.6507 4.04432C36.8928 3.84192 35.3474 3.87132 34.8044 4.09847ZM59.32 4.09491C58.0059 4.5458 56.9663 5.57665 56.4331 6.95788C56.0377 7.98217 56.0681 10.1169 56.493 11.1565C56.8977 12.1469 57.5803 12.9011 58.5291 13.4066C59.2501 13.7906 59.3793 13.8124 60.9265 13.8124C62.4737 13.8124 62.603 13.7906 63.3239 13.4066C64.2438 12.9166 64.9604 12.1447 65.2474 11.3349L65.4598 10.7355H64.4257H63.3916L63.0479 11.2483C62.6192 11.8878 61.908 12.2392 61.0424 12.2395C60.2545 12.2398 59.7016 12.0591 59.2368 11.6494C58.8145 11.2771 58.3741 10.3785 58.37 9.88074L58.3668 9.50466H62.0112H65.6558L65.5905 8.41951C65.5385 7.55686 65.4318 7.15207 65.0702 6.44546C64.5255 5.38164 63.4876 4.42737 62.5357 4.11543C61.7291 3.85108 60.0618 3.84055 59.32 4.09491ZM69.8276 4.11515C68.8447 4.41601 67.6249 5.60893 67.1825 6.70215C66.7125 7.8636 66.6994 10.0488 67.1558 11.1565C67.5659 12.1517 68.25 12.9048 69.1944 13.4007C69.8391 13.7393 70.1536 13.8093 71.2363 13.8555C73.4828 13.9514 74.7382 13.3601 75.5378 11.8295C75.7932 11.3406 76.0424 10.7378 76.0913 10.4901L76.1805 10.0395L75.0812 10.0799L73.982 10.1201L73.7944 10.6459C72.9836 12.9193 69.8812 12.6954 69.1705 10.3122C68.961 9.60983 69.0048 7.9726 69.251 7.30154C69.8096 5.77919 71.4463 5.11305 72.8893 5.8209C73.3111 6.02781 73.5389 6.26494 73.7435 6.7098L74.0227 7.31658H75.0825C76.0872 7.31658 76.1422 7.30058 76.1409 7.00889C76.1389 6.54734 75.5222 5.38315 75.0582 4.96495C74.3076 4.28829 73.3662 3.98551 71.8762 3.94148C70.9431 3.91399 70.3096 3.96773 69.8276 4.11515ZM91.1449 4.03515C90.2852 4.29184 89.176 5.05945 88.7017 5.72599C87.9928 6.72211 87.7611 7.65218 87.8274 9.23799C87.8774 10.4376 87.9339 10.6706 88.3764 11.5048C89.2926 13.2322 90.7659 13.961 93.1207 13.8516C95.1894 13.7555 96.5173 12.9484 97.2952 11.3146C97.7842 10.2872 97.9016 8.41486 97.5504 7.24C97.2653 6.286 96.6492 5.30191 96.0866 4.90191C95.0427 4.15987 94.4693 3.98223 92.9935 3.94435C92.2114 3.92411 91.3795 3.965 91.1449 4.03515ZM26.3709 8.88927V13.6073H27.5086H28.6462V8.88927V4.17122H27.5086H26.3709V8.88927ZM20.6117 5.79601C21.7061 6.2793 22.2786 7.34175 22.2786 8.88927C22.2786 10.4051 21.7273 11.4534 20.6529 11.9807C19.615 12.4903 18.3919 12.2473 17.5937 11.3731C16.4393 10.1086 16.439 7.67009 17.5933 6.4058C18.3912 5.53193 19.5045 5.30697 20.6117 5.79601ZM61.7349 5.68469C62.3042 5.89201 62.7715 6.3418 63.0752 6.9747C63.5835 8.03386 63.656 8.00036 60.8554 8.00036C58.4455 8.00036 58.3668 7.99161 58.3668 7.72138C58.3668 7.34366 58.833 6.49496 59.2418 6.12818C59.8707 5.56407 60.9011 5.38082 61.7349 5.68469ZM93.9153 5.81105C95.6998 6.68655 96.1413 9.70897 94.726 11.3602C93.7134 12.5417 91.9054 12.5522 90.8377 11.383C90.5931 11.1149 90.3079 10.6596 90.204 10.3711C89.9302 9.61024 89.9579 8.05506 90.2587 7.30564C90.8626 5.80093 92.5166 5.12481 93.9153 5.81105Z" fill="#8BC53F"/>
</svg>
