<svg width="33" height="25" viewBox="0 0 33 25" fill="none" xmlns="http://www.w3.org/2000/svg">
<path id="Vector" d="M27.4558 2.56613C25.449 1.64529 23.2969 0.966857 21.0468 0.57829C21.0058 0.570791 20.9649 0.589532 20.9437 0.627015C20.667 1.11928 20.3604 1.76148 20.1457 2.26625C17.7256 1.90393 15.3178 1.90393 12.9473 2.26625C12.7326 1.75026 12.4149 1.11928 12.1368 0.627015C12.1157 0.590782 12.0748 0.572042 12.0338 0.57829C9.78494 0.965615 7.63288 1.64405 5.62476 2.56613C5.60738 2.57362 5.59248 2.58613 5.58259 2.60236C1.50057 8.70081 0.382332 14.6494 0.930901 20.5242C0.933383 20.5529 0.949518 20.5804 0.971858 20.5979C3.66506 22.5757 6.27388 23.7764 8.83426 24.5723C8.87524 24.5848 8.91865 24.5698 8.94473 24.5361C9.55039 23.709 10.0903 22.8369 10.5532 21.9198C10.5805 21.866 10.5544 21.8023 10.4986 21.7811C9.64223 21.4562 8.82681 21.0602 8.04243 20.6104C7.98039 20.5742 7.97542 20.4854 8.0325 20.4429C8.19756 20.3192 8.36267 20.1905 8.52028 20.0606C8.54879 20.0369 8.58853 20.0319 8.62206 20.0469C13.7751 22.3996 19.3539 22.3996 24.4461 20.0469C24.4796 20.0306 24.5194 20.0356 24.5491 20.0594C24.7068 20.1893 24.8719 20.3192 25.0382 20.4429C25.0952 20.4854 25.0915 20.5742 25.0295 20.6104C24.2451 21.0689 23.4297 21.4562 22.5721 21.7798C22.5162 21.8011 22.4914 21.866 22.5187 21.9198C22.9916 22.8356 23.5314 23.7077 24.1259 24.5348C24.1508 24.5698 24.1954 24.5848 24.2364 24.5723C26.8092 23.7764 29.418 22.5757 32.1112 20.5979C32.1348 20.5804 32.1497 20.5541 32.1522 20.5254C32.8087 13.7335 31.0525 7.83372 27.4968 2.6036C27.4881 2.58613 27.4732 2.57362 27.4558 2.56613ZM11.3227 16.947C9.77129 16.947 8.49296 15.5227 8.49296 13.7735C8.49296 12.0243 9.7465 10.6 11.3227 10.6C12.9113 10.6 14.1772 12.0368 14.1524 13.7735C14.1524 15.5227 12.8989 16.947 11.3227 16.947ZM21.7852 16.947C20.2338 16.947 18.9555 15.5227 18.9555 13.7735C18.9555 12.0243 20.209 10.6 21.7852 10.6C23.3738 10.6 24.6397 12.0368 24.615 13.7735C24.615 15.5227 23.3738 16.947 21.7852 16.947Z" fill="#5B6978"/>
</svg>
