<svg width="345" height="61" viewBox="0 0 345 61" fill="none" xmlns="http://www.w3.org/2000/svg">
<path d="M27.4745 10.648H9.5545V21.272H26.9625V29.72H9.5545V47H0.7225V2.2H27.4745V10.648ZM37.622 11.16C36.2567 11.16 35.062 10.6693 34.038 9.688C33.0567 8.664 32.566 7.46933 32.566 6.104C32.566 4.73867 33.0567 3.544 34.038 2.52C35.062 1.496 36.2567 0.983997 37.622 0.983997C39.03 0.983997 40.2247 1.496 41.206 2.52C42.23 3.544 42.742 4.73867 42.742 6.104C42.742 7.46933 42.23 8.664 41.206 9.688C40.2247 10.6693 39.03 11.16 37.622 11.16ZM33.526 47V15H41.782V47H33.526ZM67.1305 14.104C70.6292 14.104 73.5092 15.2773 75.7705 17.624C78.0745 19.9707 79.2265 23.2133 79.2265 27.352V47H70.9705V28.376C70.9705 26.2427 70.3945 24.6213 69.2425 23.512C68.0905 22.36 66.5545 21.784 64.6345 21.784C62.5012 21.784 60.7945 22.4453 59.5145 23.768C58.2345 25.0907 57.5945 27.0747 57.5945 29.72V47H49.3385V15H57.5945V18.584C59.5998 15.5973 62.7785 14.104 67.1305 14.104ZM90.372 11.16C89.0067 11.16 87.812 10.6693 86.788 9.688C85.8067 8.664 85.316 7.46933 85.316 6.104C85.316 4.73867 85.8067 3.544 86.788 2.52C87.812 1.496 89.0067 0.983997 90.372 0.983997C91.78 0.983997 92.9747 1.496 93.956 2.52C94.98 3.544 95.492 4.73867 95.492 6.104C95.492 7.46933 94.98 8.664 93.956 9.688C92.9747 10.6693 91.78 11.16 90.372 11.16ZM86.276 47V15H94.532V47H86.276ZM120.393 22.936H113.161V36.248C113.161 37.3573 113.438 38.168 113.993 38.68C114.547 39.192 115.358 39.4907 116.425 39.576C117.491 39.6187 118.814 39.5973 120.393 39.512V47C114.718 47.64 110.707 47.1067 108.361 45.4C106.057 43.6933 104.905 40.6427 104.905 36.248V22.936H99.3365V15H104.905V8.536L113.161 6.04V15H120.393V22.936ZM147.765 15H156.597L144.949 47C143.285 51.608 141.066 54.936 138.293 56.984C135.562 59.0747 132.149 60.0133 128.053 59.8V52.12C130.272 52.1627 132.021 51.6933 133.301 50.712C134.624 49.7307 135.669 48.152 136.437 45.976L123.317 15H132.341L140.661 36.504L147.765 15ZM206.542 2.2V10.648H194.446V47H185.614V10.648H173.582V2.2H206.542ZM232.54 43.032C229.255 46.2747 225.244 47.896 220.508 47.896C215.772 47.896 211.761 46.2747 208.476 43.032C205.233 39.7467 203.612 35.736 203.612 31C203.612 26.264 205.233 22.2747 208.476 19.032C211.761 15.7467 215.772 14.104 220.508 14.104C225.244 14.104 229.255 15.7467 232.54 19.032C235.825 22.2747 237.468 26.264 237.468 31C237.468 35.736 235.825 39.7467 232.54 43.032ZM214.3 37.336C215.964 39 218.033 39.832 220.508 39.832C222.983 39.832 225.052 39 226.716 37.336C228.38 35.672 229.212 33.56 229.212 31C229.212 28.44 228.38 26.328 226.716 24.664C225.052 23 222.983 22.168 220.508 22.168C218.033 22.168 215.964 23 214.3 24.664C212.679 26.328 211.868 28.44 211.868 31C211.868 33.56 212.679 35.672 214.3 37.336ZM264.396 15H272.652V47H264.396V43.416C262.391 46.4027 259.212 47.896 254.86 47.896C251.361 47.896 248.46 46.7227 246.156 44.376C243.895 42.0293 242.764 38.7867 242.764 34.648V15H251.02V33.624C251.02 35.7573 251.596 37.4 252.748 38.552C253.9 39.6613 255.436 40.216 257.356 40.216C259.489 40.216 261.196 39.5547 262.476 38.232C263.756 36.9093 264.396 34.9253 264.396 32.28V15ZM295.446 47.896C290.624 47.896 286.592 46.2747 283.35 43.032C280.15 39.7893 278.549 35.7787 278.549 31C278.549 26.2213 280.15 22.2107 283.35 18.968C286.592 15.7253 290.624 14.104 295.446 14.104C298.56 14.104 301.398 14.8507 303.958 16.344C306.518 17.8373 308.459 19.8427 309.782 22.36L302.678 26.52C302.038 25.1973 301.056 24.152 299.734 23.384C298.454 22.616 297.003 22.232 295.382 22.232C292.907 22.232 290.859 23.064 289.238 24.728C287.616 26.3493 286.806 28.44 286.806 31C286.806 33.5173 287.616 35.608 289.238 37.272C290.859 38.8933 292.907 39.704 295.382 39.704C297.046 39.704 298.518 39.3413 299.798 38.616C301.12 37.848 302.102 36.8027 302.742 35.48L309.91 39.576C308.502 42.0933 306.518 44.12 303.958 45.656C301.398 47.1493 298.56 47.896 295.446 47.896ZM332.068 14.104C335.567 14.104 338.447 15.2773 340.708 17.624C343.012 19.9707 344.164 23.2133 344.164 27.352V47H335.908V28.376C335.908 26.2427 335.332 24.6213 334.18 23.512C333.028 22.36 331.492 21.784 329.572 21.784C327.439 21.784 325.732 22.4453 324.452 23.768C323.172 25.0907 322.532 27.0747 322.532 29.72V47H314.276V2.2H322.532V18.584C324.537 15.5973 327.716 14.104 332.068 14.104Z" fill="url(#paint0_linear_557_1039)"/>
<defs>
<linearGradient id="paint0_linear_557_1039" x1="54.1642" y1="-13" x2="209.114" y2="157.736" gradientUnits="userSpaceOnUse">
<stop stop-color="#54D6FF"/>
<stop offset="0.546875" stop-color="#C275FF"/>
<stop offset="1" stop-color="#F36AFF"/>
</linearGradient>
</defs>
</svg>
