<svg width="50" height="50" viewBox="0 0 50 50" fill="none" xmlns="http://www.w3.org/2000/svg">
<g id="FinnTheHuman">
<path id="Vector" opacity="0.2" d="M40.625 7.8125C40.0094 7.8125 39.3999 7.93374 38.8312 8.16931C38.2625 8.40488 37.7457 8.75016 37.3104 9.18543C36.8752 9.62071 36.5299 10.1375 36.2943 10.7062C36.0587 11.2749 35.9375 11.8844 35.9375 12.5H14.0625C14.0625 11.2568 13.5686 10.0645 12.6896 9.18544C11.8105 8.30636 10.6182 7.8125 9.375 7.8125C8.1318 7.8125 6.93951 8.30636 6.06044 9.18544C5.18136 10.0645 4.6875 11.2568 4.6875 12.5V28.125C4.6875 31.4402 6.00446 34.6196 8.34867 36.9638C10.6929 39.308 13.8723 40.625 17.1875 40.625H32.8125C36.1277 40.625 39.3071 39.308 41.6513 36.9638C43.9955 34.6196 45.3125 31.4402 45.3125 28.125V12.5C45.3125 11.8844 45.1913 11.2749 44.9557 10.7062C44.7201 10.1375 44.3748 9.62071 43.9396 9.18543C43.5043 8.75016 42.9875 8.40488 42.4188 8.16931C41.8501 7.93374 41.2406 7.8125 40.625 7.8125ZM39.0625 28.125C39.0625 29.7826 38.404 31.3723 37.2319 32.5444C36.0598 33.7165 34.4701 34.375 32.8125 34.375H17.1875C15.5299 34.375 13.9402 33.7165 12.7681 32.5444C11.596 31.3723 10.9375 29.7826 10.9375 28.125V26.5625C10.9375 24.9049 11.596 23.3152 12.7681 22.1431C13.9402 20.971 15.5299 20.3125 17.1875 20.3125H32.8125C33.6333 20.3125 34.446 20.4741 35.2043 20.7882C35.9626 21.1023 36.6516 21.5627 37.2319 22.1431C37.8123 22.7234 38.2727 23.4124 38.5868 24.1707C38.9009 24.929 39.0625 25.7417 39.0625 26.5625V28.125Z" fill="#54D1FA"/>
<path id="Vector_2" d="M32.8125 20.3125H17.1875C13.7357 20.3125 10.9375 23.1107 10.9375 26.5625V28.125C10.9375 31.5768 13.7357 34.375 17.1875 34.375H32.8125C36.2643 34.375 39.0625 31.5768 39.0625 28.125V26.5625C39.0625 23.1107 36.2643 20.3125 32.8125 20.3125Z" stroke="#54D1FA" stroke-width="2.5" stroke-linecap="round" stroke-linejoin="round"/>
<path id="Vector_3" d="M4.6875 12.5C4.6875 11.2568 5.18136 10.0645 6.06044 9.18544C6.93951 8.30636 8.1318 7.8125 9.375 7.8125C10.6182 7.8125 11.8105 8.30636 12.6896 9.18544C13.5686 10.0645 14.0625 11.2568 14.0625 12.5H35.9375C35.9375 11.2568 36.4314 10.0645 37.3104 9.18544C38.1895 8.30636 39.3818 7.8125 40.625 7.8125C41.8682 7.8125 43.0605 8.30636 43.9396 9.18544C44.8186 10.0645 45.3125 11.2568 45.3125 12.5V28.125C45.3125 31.4402 43.9955 34.6196 41.6513 36.9638C39.3071 39.308 36.1277 40.625 32.8125 40.625H17.1875C13.8723 40.625 10.6929 39.308 8.34867 36.9638C6.00446 34.6196 4.6875 31.4402 4.6875 28.125V12.5Z" stroke="#54D1FA" stroke-width="2.5" stroke-linecap="round" stroke-linejoin="round"/>
<path id="Vector_4" d="M17.9688 29.6875C19.2632 29.6875 20.3125 28.6382 20.3125 27.3438C20.3125 26.0493 19.2632 25 17.9688 25C16.6743 25 15.625 26.0493 15.625 27.3438C15.625 28.6382 16.6743 29.6875 17.9688 29.6875Z" fill="#54D1FA"/>
<path id="Vector_5" d="M32.0312 29.6875C33.3257 29.6875 34.375 28.6382 34.375 27.3438C34.375 26.0493 33.3257 25 32.0312 25C30.7368 25 29.6875 26.0493 29.6875 27.3438C29.6875 28.6382 30.7368 29.6875 32.0312 29.6875Z" fill="#54D1FA"/>
</g>
</svg>
