<svg width="238" height="63" viewBox="0 0 238 63" fill="none" xmlns="http://www.w3.org/2000/svg">
<path d="M13.375 53H23.375V5.5H15.625C15 12 12.875 13.75 4.75 13.75H2.625V21.875H13.375V53ZM47.5 44.625L54 39.25C64 31 68.25 26.375 68.25 18.75C68.25 10.625 61.625 5 51.875 4.875C41.375 4.75 34.375 11 33.75 21.125L43.125 22.5C43.25 16 46.5 13.125 51.25 13.125C55.375 13.125 58.25 15.75 58.25 19.625C58.25 23.375 56.5 27 50.5 32L33.625 46.5V53H69V44.625H47.5ZM96 23.875L107.125 12.875V5.5H74.75V14.125H95.25L82.625 26.375L87 31.5C88.375 30.75 89.875 30.375 91.5 30.375C96.25 30.375 99.25 33.25 99.25 37.75C99.25 42.5 95.875 45.5 90.5 45.5C85.875 45.5 82.125 42.875 80 38.25L72.5 42.625C75.5 49.5 82.125 53.625 90.875 53.625C101.375 53.625 108.875 47 108.875 38C108.875 30.125 103.75 24.5 96 23.875ZM116.125 41.25V53H121.75C121.5 56 120.25 57.25 117.25 57.25H116.125V62.5H117.875C123.875 62.5 127.875 58.75 127.875 50.75V41.25H116.125ZM173.625 33.5H166.625V5.5H154.5L134 33.75V42H157.375V53H166.625V42H173.625V33.5ZM144 33.5L157.375 15.125V33.5H144Z" fill="white"/>
<path d="M204.969 33.9375H191.469V37.3125H196.344V48H200.094V37.3125H204.969V33.9375ZM216.781 33.9375L211.016 42.6094V33.9375H207.359V48H211.062L216.828 39.3281V48H220.484V33.9375H216.781ZM230.609 48.2344C233.844 48.2344 236.328 46.6875 237.125 44.0156L233.562 42.9375C233.047 44.3438 232.016 45.1406 230.562 45.1406C228.5 45.1406 227.188 43.5469 227.188 40.9688C227.188 38.3906 228.5 36.7969 230.562 36.7969C232.016 36.7969 233.047 37.5938 233.562 39L237.125 37.9219C236.328 35.25 233.844 33.7031 230.609 33.7031C226.25 33.7031 223.344 36.6094 223.344 40.9688C223.344 45.3281 226.25 48.2344 230.609 48.2344Z" fill="white"/>
</svg>
