<svg width="100" height="100" viewBox="0 0 100 100" fill="none" xmlns="http://www.w3.org/2000/svg">
<circle cx="50" cy="50" r="47.5" fill="#010001" stroke="url(#paint0_linear_171_541)" stroke-width="5"/>
<path d="M70.0973 38.0575L67.4854 52.4224C67.2699 53.6107 66.6439 54.6855 65.7168 55.4593C64.7896 56.2331 63.6201 56.6568 62.4124 56.6562H37.497L38.4345 61.8125H61.5312C62.6265 61.812 63.6935 62.16 64.5778 62.8063C65.462 63.4526 66.1177 64.3636 66.4497 65.4073C66.7818 66.451 66.773 67.5733 66.4247 68.6117C66.0764 69.6501 65.4067 70.5507 64.5125 71.1831C63.6182 71.8155 62.5459 72.1469 61.4508 72.1293C60.3557 72.1117 59.2946 71.746 58.4212 71.0852C57.5477 70.4243 56.9073 69.5026 56.5926 68.4536C56.2778 67.4045 56.3052 66.2825 56.6706 65.25H44.0481C44.351 66.1034 44.4238 67.0215 44.2592 67.912C44.0946 68.8025 43.6984 69.6339 43.1105 70.3227C42.5226 71.0114 41.7636 71.5332 40.9101 71.8356C40.0565 72.138 39.1383 72.2102 38.2479 72.0451C37.3576 71.88 36.5263 71.4834 35.8379 70.8951C35.1495 70.3068 34.6281 69.5476 34.3262 68.6938C34.0243 67.84 33.9526 66.9218 34.1182 66.0316C34.2838 65.1413 34.6809 64.3103 35.2696 63.6222L29.3156 30.875H25.4375C24.9817 30.875 24.5445 30.6939 24.2222 30.3716C23.8998 30.0493 23.7188 29.6121 23.7188 29.1563C23.7188 28.7004 23.8998 28.2632 24.2222 27.9409C24.5445 27.6186 24.9817 27.4375 25.4375 27.4375H29.3156C30.1207 27.4371 30.9004 27.7196 31.5186 28.2355C32.1367 28.7513 32.554 29.4679 32.6977 30.2602L33.747 36.0312H68.4062C68.658 36.0313 68.9067 36.0866 69.1347 36.1933C69.3627 36.3 69.5645 36.4555 69.7258 36.6488C69.8871 36.842 70.004 37.0684 70.0682 37.3118C70.1324 37.5552 70.1423 37.8098 70.0973 38.0575Z" fill="url(#paint1_linear_171_541)"/>
<defs>
<linearGradient id="paint0_linear_171_541" x1="16.4286" y1="4.05418e-05" x2="108.776" y2="22.3226" gradientUnits="userSpaceOnUse">
<stop stop-color="#54D1FA"/>
<stop offset="1" stop-color="#FC84FF"/>
</linearGradient>
<linearGradient id="paint1_linear_171_541" x1="31.3426" y1="27.4375" x2="74.0139" y2="38.1473" gradientUnits="userSpaceOnUse">
<stop stop-color="#FC84FF"/>
<stop offset="1" stop-color="#54D1FA"/>
</linearGradient>
</defs>
</svg>
