<svg width="100" height="100" viewBox="0 0 100 100" fill="none" xmlns="http://www.w3.org/2000/svg">
<circle cx="50" cy="50" r="47.5" fill="#010001" stroke="url(#paint0_linear_186_544)" stroke-width="5"/>
<path d="M48.5121 56.551C50.8601 54.9913 52.6436 52.7171 53.5987 50.065C54.5537 47.4129 54.6295 44.5238 53.815 41.8253C53.0004 39.1267 51.3386 36.7621 49.0757 35.0814C46.8127 33.4007 44.0688 32.4932 41.25 32.4932C38.4311 32.4932 35.6872 33.4007 33.4242 35.0814C31.1613 36.7621 29.4995 39.1267 28.685 41.8253C27.8704 44.5238 27.9462 47.4129 28.9013 50.065C29.8563 52.7171 31.6398 54.9913 33.9878 56.551C29.9851 58.0275 26.5257 60.6856 24.0681 64.173C23.8835 64.4351 23.7746 64.7428 23.753 65.0626C23.7314 65.3825 23.7981 65.702 23.9458 65.9865C24.0934 66.271 24.3164 66.5095 24.5903 66.676C24.8642 66.8424 25.1786 66.9305 25.4991 66.9304L57.0001 66.9293C57.3206 66.9293 57.635 66.8412 57.9089 66.6747C58.1828 66.5083 58.4057 66.2697 58.5534 65.9852C58.701 65.7007 58.7676 65.3811 58.746 65.0613C58.7244 64.7415 58.6154 64.4338 58.4308 64.1717C55.9732 60.685 52.5142 58.0274 48.5121 56.551Z" fill="url(#paint1_linear_186_544)"/>
<path d="M76.2639 64.1718C73.8063 60.685 70.3472 58.0274 66.345 56.551C68.9471 54.8189 70.8456 52.2149 71.6988 49.2077C72.552 46.2005 72.304 42.9875 70.9992 40.1469C69.6945 37.3063 67.4188 35.0246 64.5817 33.7124C61.7446 32.4002 58.5322 32.1437 55.5228 32.989C55.2496 33.0658 54.9992 33.208 54.7931 33.4031C54.5871 33.5983 54.4316 33.8407 54.3401 34.1093C54.2485 34.378 54.2237 34.6648 54.2678 34.9452C54.3118 35.2256 54.4234 35.491 54.5929 35.7187C56.5711 38.376 57.7084 41.5649 57.8581 44.8744C58.0079 48.1839 57.1632 51.4624 55.4331 54.2875C55.2046 54.6601 55.1238 55.1047 55.2065 55.5339C55.2893 55.963 55.5297 56.3457 55.8804 56.6065C56.5439 57.1003 57.1823 57.627 57.7931 58.1847C57.8246 58.219 57.8564 58.2531 57.8912 58.2854C60.227 60.4447 62.12 63.0381 63.4647 65.9209C63.6056 66.2226 63.8297 66.4779 64.1106 66.6567C64.3915 66.8356 64.7176 66.9305 65.0506 66.9305L74.8332 66.9293C75.1538 66.9293 75.4681 66.8412 75.742 66.6747C76.0159 66.5082 76.2388 66.2697 76.3864 65.9852C76.534 65.7007 76.6006 65.3811 76.579 65.0613C76.5574 64.7415 76.4484 64.4338 76.2639 64.1718L76.2639 64.1718Z" fill="url(#paint2_linear_186_544)"/>
<defs>
<linearGradient id="paint0_linear_186_544" x1="16.4286" y1="4.05418e-05" x2="108.776" y2="22.3226" gradientUnits="userSpaceOnUse">
<stop stop-color="#54D1FA"/>
<stop offset="1" stop-color="#FC84FF"/>
</linearGradient>
<linearGradient id="paint1_linear_186_544" x1="29.4992" y1="32.4932" x2="61.763" y2="40.4198" gradientUnits="userSpaceOnUse">
<stop stop-color="#FC84FF"/>
<stop offset="1" stop-color="#54D1FA"/>
</linearGradient>
<linearGradient id="paint2_linear_186_544" x1="57.9161" y1="32.5" x2="79.2246" y2="35.8415" gradientUnits="userSpaceOnUse">
<stop stop-color="#FC84FF"/>
<stop offset="1" stop-color="#54D1FA"/>
</linearGradient>
</defs>
</svg>
