<svg width="100" height="100" viewBox="0 0 100 100" fill="none" xmlns="http://www.w3.org/2000/svg">
<circle cx="50" cy="50" r="47.5" fill="#010001" stroke="url(#paint0_linear_186_545)" stroke-width="5"/>
<path d="M72.75 34.25H27.25C26.3221 34.2511 25.4324 34.6202 24.7763 35.2763C24.1202 35.9324 23.7511 36.8221 23.75 37.75V62.25C23.7511 63.1779 24.1202 64.0676 24.7763 64.7237C25.4324 65.3798 26.3221 65.7489 27.25 65.75H72.75C73.6779 65.7489 74.5676 65.3798 75.2237 64.7237C75.8798 64.0676 76.2489 63.1779 76.25 62.25V37.75C76.2489 36.8221 75.8798 35.9324 75.2237 35.2763C74.5676 34.6202 73.6779 34.2511 72.75 34.25ZM38.3974 62.25L27.25 52.6951V47.3049L38.3974 37.75H61.6026L72.7509 47.3056L72.7513 52.694L61.6026 62.25H38.3974ZM58.75 50C58.75 51.7306 58.2368 53.4223 57.2754 54.8612C56.3139 56.3002 54.9473 57.4217 53.3485 58.0839C51.7496 58.7462 49.9903 58.9195 48.293 58.5819C46.5956 58.2443 45.0365 57.4109 43.8128 56.1872C42.5891 54.9635 41.7557 53.4044 41.4181 51.707C41.0805 50.0097 41.2538 48.2504 41.9161 46.6515C42.5783 45.0527 43.6998 43.6861 45.1388 42.7246C46.5777 41.7632 48.2694 41.25 50 41.25C52.3198 41.2527 54.5439 42.1754 56.1843 43.8157C57.8246 45.4561 58.7473 47.6802 58.75 50Z" fill="url(#paint1_linear_186_545)"/>
<defs>
<linearGradient id="paint0_linear_186_545" x1="16.4286" y1="4.05418e-05" x2="108.776" y2="22.3226" gradientUnits="userSpaceOnUse">
<stop stop-color="#54D1FA"/>
<stop offset="1" stop-color="#FC84FF"/>
</linearGradient>
<linearGradient id="paint1_linear_186_545" x1="32.375" y1="34.25" x2="76.5247" y2="52.0367" gradientUnits="userSpaceOnUse">
<stop stop-color="#FC84FF"/>
<stop offset="1" stop-color="#54D1FA"/>
</linearGradient>
</defs>
</svg>
