<svg width="100" height="100" viewBox="0 0 100 100" fill="none" xmlns="http://www.w3.org/2000/svg">
<rect width="100" height="100" fill="#1A1B1F"/>
<g id="Home" clip-path="url(#clip0_553_195)">
<rect width="1440" height="7668" transform="translate(-724 -4379)" fill="#0F1113"/>
<circle id="Ellipse 34" cx="267" cy="-22" r="244.5" stroke="#151D25" stroke-width="5"/>
<g id="Group 30">
<g id="Group 52">
<g id="Group 54">
<circle id="Logo 8" cx="50" cy="50" r="47.5" fill="#010001" stroke="url(#paint0_linear_553_195)" stroke-width="5"/>
<g id="GameController">
<path id="Vector" d="M76.1311 61.7564C76.1294 61.7468 76.1276 61.7371 76.1258 61.7275L72.5491 43.26C72.5464 43.2461 72.5421 43.2331 72.5391 43.2193C71.9857 40.1975 70.3913 37.465 68.0328 35.4964C65.6743 33.5279 62.7008 32.4476 59.6288 32.4432H59.6236L40.3758 32.5001C37.2879 32.4939 34.2972 33.5791 31.9317 35.5639C29.5663 37.5488 27.9782 40.3056 27.4481 43.3476C27.4453 43.3634 27.4427 43.3794 27.4404 43.3953L23.8761 61.7262C23.8741 61.7363 23.8723 61.7463 23.8705 61.7564C23.5799 63.4056 23.8225 65.1045 24.5631 66.6064C25.3038 68.1084 26.5039 69.3351 27.9892 70.1085C29.4746 70.8819 31.1678 71.1618 32.823 70.9074C34.4781 70.6529 36.0091 69.8776 37.1936 68.6938C37.2254 68.6622 37.2557 68.6295 37.2846 68.5959L46.1941 58.7468L53.8175 58.7164L62.7143 68.5927C62.744 68.6273 62.7753 68.661 62.808 68.6938C63.9924 69.8777 65.5235 70.6533 67.1787 70.9078C68.834 71.1623 70.5273 70.8825 72.0127 70.109C73.4981 69.3356 74.6982 68.1087 75.4389 66.6067C76.1795 65.1047 76.422 63.4056 76.1311 61.7564L76.1311 61.7564ZM44.7498 47.3751H42.9998V49.1251C42.9998 49.5892 42.8154 50.0343 42.4872 50.3625C42.1591 50.6907 41.7139 50.8751 41.2498 50.8751C40.7857 50.8751 40.3406 50.6907 40.0124 50.3625C39.6842 50.0343 39.4998 49.5892 39.4998 49.1251V47.3751H37.7498C37.2857 47.3751 36.8406 47.1907 36.5124 46.8625C36.1842 46.5343 35.9998 46.0892 35.9998 45.6251C35.9998 45.1609 36.1842 44.7158 36.5124 44.3876C36.8406 44.0594 37.2857 43.8751 37.7498 43.8751H39.4998V42.1251C39.4998 41.6609 39.6842 41.2158 40.0124 40.8876C40.3406 40.5594 40.7857 40.3751 41.2498 40.3751C41.7139 40.3751 42.1591 40.5594 42.4872 40.8876C42.8154 41.2158 42.9998 41.6609 42.9998 42.1251V43.8751H44.7498C45.2139 43.8751 45.6591 44.0594 45.9872 44.3876C46.3154 44.7158 46.4998 45.1609 46.4998 45.6251C46.4998 46.0892 46.3154 46.5343 45.9872 46.8625C45.6591 47.1907 45.2139 47.3751 44.7498 47.3751ZM53.4998 45.6251C53.4998 45.1609 53.6842 44.7158 54.0124 44.3876C54.3406 44.0594 54.7857 43.8751 55.2498 43.8751H62.2498C62.7139 43.8751 63.1591 44.0594 63.4873 44.3876C63.8154 44.7158 63.9998 45.1609 63.9998 45.6251C63.9998 46.0892 63.8154 46.5343 63.4873 46.8625C63.1591 47.1907 62.7139 47.3751 62.2498 47.3751H55.2498C54.7857 47.375 54.3406 47.1907 54.0124 46.8625C53.6842 46.5343 53.4998 46.0892 53.4998 45.6251ZM69.1355 67.4325C68.4511 67.5527 67.7479 67.5084 67.0839 67.3032C66.42 67.098 65.8143 66.7379 65.317 66.2525L58.5113 58.6977L59.6288 58.6932C61.8601 58.6919 64.0544 58.1218 66.0041 57.0367C67.9539 55.9516 69.5949 54.3874 70.772 52.4918L72.6867 62.3776C72.883 63.5184 72.6196 64.6906 71.9542 65.6378C71.2887 66.5851 70.2753 67.2303 69.1355 67.4325Z" fill="url(#paint1_linear_553_195)"/>
</g>
</g>
</g>
</g>
</g>
<defs>
<linearGradient id="paint0_linear_553_195" x1="16.4286" y1="4.05418e-05" x2="108.776" y2="22.3226" gradientUnits="userSpaceOnUse">
<stop stop-color="#54D1FA"/>
<stop offset="1" stop-color="#FC84FF"/>
</linearGradient>
<linearGradient id="paint1_linear_553_195" x1="32.3759" y1="32.4433" x2="78.6754" y2="47.6824" gradientUnits="userSpaceOnUse">
<stop stop-color="#FC84FF"/>
<stop offset="1" stop-color="#54D1FA"/>
</linearGradient>
<clipPath id="clip0_553_195">
<rect width="1440" height="7668" fill="white" transform="translate(-724 -4379)"/>
</clipPath>
</defs>
</svg>
