<svg width="19" height="17" viewBox="0 0 19 17" fill="none" xmlns="http://www.w3.org/2000/svg">
<path d="M18.5301 4.27373C18.4242 3.85923 18.2607 3.46162 18.0445 3.09248C17.8367 2.70848 17.5711 2.35876 17.257 2.05561C16.8015 1.60166 16.2621 1.24059 15.6688 0.992484C14.4747 0.502383 13.1355 0.502383 11.9413 0.992484C11.3806 1.22983 10.8654 1.56293 10.4188 1.97686L10.3532 2.05561L9.50009 2.90873L8.64696 2.05561L8.58134 1.97686C8.13476 1.56293 7.61958 1.22983 7.05884 0.992484C5.86467 0.502383 4.52551 0.502383 3.33134 0.992484C2.73806 1.24059 2.19868 1.60166 1.74321 2.05561C1.12025 2.66176 0.67926 3.43008 0.470085 4.27373C0.358805 4.70216 0.305827 5.14364 0.312585 5.58623C0.312585 6.0023 0.365085 6.41705 0.470085 6.81998C0.580117 7.22692 0.73876 7.61912 0.942585 7.98811C1.16271 8.36743 1.43191 8.71606 1.74321 9.02498L9.50009 16.7819L17.257 9.02498C17.568 8.71917 17.8345 8.36873 18.0445 7.98811C18.4707 7.25981 18.6929 6.4301 18.6876 5.58623C18.6944 5.14364 18.6414 4.70215 18.5301 4.27373V4.27373ZM17.2176 6.41311C17.0604 7.01281 16.748 7.56055 16.312 8.00123L9.47384 14.8262L2.63571 8.00123C2.41288 7.77682 2.21888 7.52551 2.05821 7.25311C1.90702 6.98362 1.78808 6.69728 1.70384 6.39998C1.63658 6.10273 1.60138 5.79912 1.59884 5.49436C1.60062 5.18089 1.63581 4.86849 1.70384 4.56248C1.78561 4.26434 1.90467 3.9777 2.05821 3.70936C2.21571 3.43373 2.40996 3.18436 2.63571 2.96123C2.97289 2.62857 3.369 2.36153 3.80384 2.17373C4.68008 1.8232 5.65759 1.8232 6.53384 2.17373C6.96696 2.35355 7.35809 2.61736 7.68884 2.94811L9.47384 4.74623L11.2588 2.94811C11.5894 2.61677 11.9818 2.35366 12.4138 2.17373C13.2901 1.8232 14.2676 1.8232 15.1438 2.17373C15.5783 2.36142 15.9746 2.62917 16.312 2.96123C16.5403 3.1778 16.732 3.4298 16.8763 3.70936C17.1803 4.24547 17.3387 4.85181 17.3357 5.46811C17.3536 5.78524 17.3271 6.10331 17.257 6.41311H17.2176V6.41311Z" fill="black"/>
</svg>
