<svg width="50" height="50" viewBox="0 0 50 50" fill="none" xmlns="http://www.w3.org/2000/svg">
<g id="Hexagon">
<path id="Vector" opacity="0.2" d="M42.9688 34.2447V15.7555C42.9688 15.4788 42.8953 15.2071 42.7558 14.9681C42.6164 14.7291 42.416 14.5314 42.1751 14.3953L25.7688 5.12217C25.5343 4.98959 25.2694 4.91992 25 4.91992C24.7306 4.91992 24.4657 4.98959 24.2312 5.12217L7.82491 14.3953C7.58403 14.5314 7.38362 14.7291 7.24417 14.9681C7.10473 15.2071 7.03125 15.4788 7.03125 15.7555V34.2447C7.03125 34.5214 7.10473 34.7931 7.24417 35.0321C7.38362 35.2711 7.58403 35.4688 7.82491 35.6049L24.2312 44.878C24.4657 45.0106 24.7306 45.0803 25 45.0803C25.2694 45.0803 25.5343 45.0106 25.7688 44.878L42.1751 35.6049C42.416 35.4688 42.6164 35.2711 42.7558 35.0321C42.8953 34.7931 42.9688 34.5214 42.9688 34.2447Z" fill="#C1ABFF"/>
<path id="Vector_2" d="M42.9688 34.2447V15.7555C42.9687 15.4788 42.8953 15.2071 42.7558 14.9681C42.6164 14.7291 42.416 14.5314 42.1751 14.3953L25.7688 5.12217C25.5343 4.98959 25.2694 4.91992 25 4.91992C24.7306 4.91992 24.4657 4.98959 24.2312 5.12217L7.82491 14.3953C7.58403 14.5314 7.38362 14.7291 7.24417 14.9681C7.10473 15.2071 7.03125 15.4788 7.03125 15.7555V34.2447C7.03125 34.5214 7.10473 34.7931 7.24417 35.0321C7.38362 35.2711 7.58403 35.4688 7.82491 35.6049L24.2312 44.878C24.4657 45.0106 24.7306 45.0803 25 45.0803C25.2694 45.0803 25.5343 45.0106 25.7688 44.878L42.1751 35.6049C42.416 35.4688 42.6164 35.2711 42.7558 35.0321C42.8953 34.7931 42.9688 34.5214 42.9688 34.2447V34.2447Z" stroke="#C1ABFF" stroke-width="2.5" stroke-linecap="round" stroke-linejoin="round"/>
</g>
</svg>
