<svg width="271" height="46" viewBox="0 0 271 46" fill="none" xmlns="http://www.w3.org/2000/svg">
<path d="M8.68 45H1.18V13.8H8.68V45ZM4.9 11.04C3.54 11.04 2.4 10.58 1.48 9.66C0.6 8.74 0.16 7.6 0.16 6.24C0.16 4.88 0.6 3.76 1.48 2.88C2.4 1.96 3.54 1.5 4.9 1.5C6.26 1.5 7.4 1.96 8.32 2.88C9.24 3.76 9.7 4.88 9.7 6.24C9.7 7.6 9.24 8.74 8.32 9.66C7.44 10.58 6.3 11.04 4.9 11.04ZM23.4067 30.18V45H15.3667V3H34.2067C38.2867 3 41.7267 4.3 44.5267 6.9C47.3267 9.46 48.7267 12.68 48.7267 16.56C48.7267 20.48 47.3267 23.72 44.5267 26.28C41.7267 28.88 38.2867 30.18 34.2067 30.18H23.4067ZM34.2067 10.44H23.4067V22.74H34.2067C35.9667 22.74 37.4267 22.16 38.5867 21C39.7467 19.8 40.3267 18.32 40.3267 16.56C40.3267 14.8 39.7467 13.34 38.5867 12.18C37.4267 11.02 35.9667 10.44 34.2067 10.44ZM54.2073 45V-3.57628e-06H61.7073V17.58C64.0273 14.46 67.2473 12.9 71.3673 12.9C75.0073 12.9 77.9873 14.06 80.3073 16.38C82.7073 18.74 83.9073 21.64 83.9073 25.08V45H76.4673V27.18C76.4673 25.14 75.7673 23.44 74.3673 22.08C72.9673 20.72 71.2073 20.04 69.0873 20.04C66.9673 20.04 65.2073 20.72 63.8073 22.08C62.4073 23.44 61.7073 25.14 61.7073 27.18V45H54.2073ZM93.7825 41.22C90.6625 38.06 89.1025 34.12 89.1025 29.4C89.1025 24.68 90.6625 20.76 93.7825 17.64C96.9425 14.48 100.883 12.9 105.603 12.9C110.323 12.9 114.263 14.48 117.423 17.64C120.583 20.76 122.163 24.68 122.163 29.4C122.163 34.12 120.583 38.06 117.423 41.22C114.223 44.34 110.283 45.9 105.603 45.9C100.923 45.9 96.9825 44.34 93.7825 41.22ZM105.603 20.4C103.123 20.4 101.043 21.26 99.3625 22.98C97.6825 24.7 96.8425 26.84 96.8425 29.4C96.8425 31.96 97.6825 34.1 99.3625 35.82C101.043 37.54 103.123 38.4 105.603 38.4C108.083 38.4 110.163 37.54 111.843 35.82C113.523 34.1 114.363 31.96 114.363 29.4C114.363 26.84 113.523 24.7 111.843 22.98C110.163 21.26 108.083 20.4 105.603 20.4ZM127.332 45V13.8H134.832V17.58C137.112 14.46 140.232 12.9 144.192 12.9C147.712 12.9 150.632 14.06 152.952 16.38C155.312 18.74 156.492 21.64 156.492 25.08V45H148.992V27.18C148.992 25.14 148.312 23.44 146.952 22.08C145.632 20.72 143.972 20.04 141.972 20.04C139.932 20.04 138.232 20.72 136.872 22.08C135.512 23.44 134.832 25.14 134.832 27.18V45H127.332ZM194.22 32.16H169.44C170 34.2 171.1 35.86 172.74 37.14C174.42 38.38 176.36 39 178.56 39C181.64 39 184.08 37.9 185.88 35.7L193.14 37.8C191.7 40.32 189.68 42.3 187.08 43.74C184.52 45.18 181.68 45.9 178.56 45.9C173.76 45.9 169.74 44.34 166.5 41.22C163.3 38.02 161.7 34.08 161.7 29.4C161.7 24.68 163.26 20.76 166.38 17.64C169.54 14.48 173.44 12.9 178.08 12.9C182.72 12.9 186.6 14.48 189.72 17.64C192.88 20.8 194.46 24.72 194.46 29.4C194.46 30.16 194.38 31.08 194.22 32.16ZM169.5 26.34H186.72C186.12 24.38 185.02 22.8 183.42 21.6C181.82 20.4 180 19.8 177.96 19.8C176 19.8 174.24 20.4 172.68 21.6C171.12 22.8 170.06 24.38 169.5 26.34ZM224.48 12.54L217.22 16.14L213.98 9.3L226.7 3H232.28V45H224.48V12.54ZM262.463 15.24C262.463 13.68 261.783 12.34 260.423 11.22C259.143 10.1 257.563 9.54 255.683 9.54C253.883 9.54 252.263 10.1 250.823 11.22C249.423 12.3 248.363 13.78 247.643 15.66L240.443 12.24C241.803 9.12 243.843 6.66 246.563 4.86C249.283 3.02 252.323 2.1 255.683 2.1C259.883 2.1 263.383 3.36 266.183 5.88C269.063 8.4 270.503 11.44 270.503 15C270.503 17.16 269.783 19.42 268.343 21.78C266.903 24.1 264.623 26.76 261.503 29.76L253.283 37.56H270.863V45H241.283V39.18L256.703 24.48C260.543 20.76 262.463 17.68 262.463 15.24Z" fill="black"/>
</svg>
