<svg width="19" height="19" viewBox="0 0 19 19" fill="none" xmlns="http://www.w3.org/2000/svg">
<path fill-rule="evenodd" clip-rule="evenodd" d="M9.49989 2.28004C5.5124 2.28004 2.27989 5.51255 2.27989 9.50004C2.27989 13.4875 5.5124 16.72 9.49989 16.72C13.4874 16.72 16.7199 13.4875 16.7199 9.50004C16.7199 5.51255 13.4874 2.28004 9.49989 2.28004ZM1.13989 9.50004C1.13989 4.88294 4.88279 1.14005 9.49989 1.14005C14.1169 1.14005 17.8599 4.88294 17.8599 9.50004C17.8599 14.1171 14.1169 17.86 9.49989 17.86C4.88279 17.86 1.13989 14.1171 1.13989 9.50004Z" fill="black"/>
<path fill-rule="evenodd" clip-rule="evenodd" d="M17.0999 10.0066H1.8999V8.99332H17.0999V10.0066Z" fill="black"/>
<path fill-rule="evenodd" clip-rule="evenodd" d="M8.99311 17.1V1.9H10.0064V17.1H8.99311ZM13.1416 9.49997C13.1416 6.74783 12.1518 4.02518 10.2115 2.22497L10.8146 1.57498C12.97 3.57476 14.0282 6.55212 14.0282 9.49997C14.0282 12.4478 12.97 15.4252 10.8146 17.425L10.2115 16.775C12.1518 14.9748 13.1416 12.2521 13.1416 9.49997ZM5.06616 9.5C5.06616 6.5564 6.08984 3.58058 8.17962 1.57977L8.7928 2.22022C6.91361 4.01942 5.95283 6.74359 5.95283 9.5C5.95284 12.2564 6.91363 14.9806 8.79282 16.7798L8.17963 17.4202C6.08987 15.4194 5.06617 12.4436 5.06616 9.5Z" fill="black"/>
<path fill-rule="evenodd" clip-rule="evenodd" d="M9.49985 5.01349C12.2477 5.01349 15.0419 5.5216 16.936 6.57968C17.1498 6.69909 17.2263 6.96917 17.1069 7.18293C16.9875 7.39668 16.7174 7.47318 16.5037 7.35377C14.7938 6.39864 12.17 5.90016 9.49985 5.90016C6.82966 5.90016 4.20589 6.39864 2.49604 7.35377C2.28228 7.47318 2.0122 7.39668 1.89279 7.18293C1.7734 6.96917 1.84988 6.69909 2.06364 6.57968C3.9578 5.5216 6.75203 5.01349 9.49985 5.01349ZM9.49985 13.7433C12.2477 13.7433 15.0419 13.2352 16.936 12.1771C17.1498 12.0577 17.2263 11.7876 17.1069 11.5739C16.9875 11.3601 16.7174 11.2836 16.5037 11.403C14.7938 12.3582 12.17 12.8567 9.49985 12.8567C6.82966 12.8567 4.20589 12.3582 2.49604 11.403C2.28228 11.2836 2.0122 11.3601 1.89279 11.5739C1.7734 11.7876 1.84988 12.0577 2.06364 12.1771C3.9578 13.2352 6.75203 13.7433 9.49985 13.7433Z" fill="black"/>
</svg>
