<svg width="33" height="29" viewBox="0 0 33 29" fill="none" xmlns="http://www.w3.org/2000/svg">
<path id="letter-t-logo-260nw-1035037741 1 (Traced)" fill-rule="evenodd" clip-rule="evenodd" d="M1.69235 1.58893L2.88469 2.74915H16.6766H30.4685L31.4842 1.58893L32.5 0.428711H16.5H0.5L1.69235 1.58893ZM4.70777 4.80016L5.87743 6.07769L9.03812 6.08929L12.1988 6.10089L12.2782 7.9178L12.3576 9.73444L14.5176 7.21573C15.7056 5.83017 16.8991 4.4325 17.1699 4.1097L17.6618 3.52263H10.6001H3.5381L4.70777 4.80016ZM18.2977 7.24423C16.4201 9.45148 16.5459 8.68419 16.5486 17.8943C16.55 22.5029 16.6401 26.3984 16.7492 26.5508C16.8583 26.7032 17.7072 27.3168 18.6352 27.9139L20.3227 29.0001V18.9351V8.87034H24.0353L27.7479 8.87008L28.9103 7.5812L30.0729 6.29207H24.5902H19.1077L18.2977 7.24423ZM14.1742 9.27268L12.4807 11.2278L12.5541 16.2018L12.6276 24.1294L14.1771 25.146C15.0293 25.7052 15.7904 26.1018 15.8687 26.0272C15.9468 25.9525 15.9786 19.4233 15.9392 15.1277L15.8676 7.31758L14.1742 9.27268Z" fill="url(#paint0_linear_16_283)"/>
<defs>
<linearGradient id="paint0_linear_16_283" x1="5.75714" y1="0.428723" x2="34.8992" y2="8.31834" gradientUnits="userSpaceOnUse">
<stop stop-color="#FC84FF"/>
<stop offset="1" stop-color="#54D1FA"/>
</linearGradient>
</defs>
</svg>
