<svg width="32" height="29" viewBox="0 0 32 29" fill="none" xmlns="http://www.w3.org/2000/svg">
<path id="letter-t-logo-260nw-1035037741 1 (Traced)" fill-rule="evenodd" clip-rule="evenodd" d="M1.19235 1.30866L2.38469 2.46888H16.1766H29.9685L30.9842 1.30866L32 0.148438H16H0L1.19235 1.30866ZM4.20777 4.51989L5.37743 5.79742L8.53812 5.80902L11.6988 5.82062L11.7782 7.63752L11.8576 9.45417L14.0176 6.93546C15.2056 5.5499 16.3991 4.15223 16.6699 3.82943L17.1618 3.24236H10.1001H3.0381L4.20777 4.51989ZM17.7977 6.96395C15.9201 9.17121 16.0459 8.40391 16.0486 17.614C16.05 22.2226 16.1401 26.1181 16.2492 26.2705C16.3583 26.4229 17.2072 27.0365 18.1352 27.6336L19.8227 28.7199V18.6548V8.59006H23.5353L27.2479 8.58981L28.4103 7.30093L29.5729 6.0118H24.0902H18.6077L17.7977 6.96395ZM13.6742 8.9924L11.9807 10.9475L12.0541 15.9215L12.1276 23.8491L13.6771 24.8657C14.5293 25.4249 15.2904 25.8215 15.3687 25.747C15.4468 25.6722 15.4786 19.143 15.4392 14.8474L15.3676 7.0373L13.6742 8.9924Z" fill="url(#paint0_linear_637_1048)"/>
<defs>
<linearGradient id="paint0_linear_637_1048" x1="5.25714" y1="0.148449" x2="34.3992" y2="8.03807" gradientUnits="userSpaceOnUse">
<stop stop-color="#FC84FF"/>
<stop offset="1" stop-color="#54D1FA"/>
</linearGradient>
</defs>
</svg>
