<svg width="24" height="27" viewBox="0 0 24 27" fill="none" xmlns="http://www.w3.org/2000/svg">
<path d="M19.7566 22.04V22.0971C19.7566 22.1093 19.7566 22.1212 19.7558 22.1335C19.7558 22.1017 19.7566 22.0714 19.7566 22.04Z" fill="url(#paint0_linear_13_528)"/>
<path d="M19.7554 22.1648V22.1687C19.7562 22.1694 19.7562 22.1702 19.7554 22.171C19.7562 22.1717 19.7562 22.1725 19.7554 22.174V22.2024L19.7539 22.2242C19.7336 22.9839 19.523 23.6973 19.1684 24.3173C19.0125 24.5914 18.8276 24.8472 18.6166 25.0804C18.5063 25.2053 18.3876 25.3232 18.2628 25.4342C18.2417 25.4542 18.2203 25.4737 18.1984 25.4921C17.4418 26.1427 16.4645 26.5455 15.3943 26.5719H15.1948C14.2823 26.5478 13.4659 26.1346 12.9072 25.4921C12.6265 25.1704 12.4094 24.7902 12.2792 24.3728L12.2076 24.8093C12.1731 25.0176 12.1425 25.2267 12.1272 25.4373C12.0797 26.0936 11.7982 26.3789 11.5233 26.4995C11.4042 26.5528 11.2732 26.5734 11.143 26.5734H6.99712C6.66665 26.5734 6.49625 26.1664 6.73749 25.9412C6.73749 25.9412 6.73826 25.9412 6.73902 25.9405C6.92627 25.7659 7.29809 25.5916 7.99732 25.4668C7.99732 25.4668 9.91692 25.1137 9.91692 23.8585L9.88398 23.3213L9.86484 23.0076L9.79323 21.8359C9.88743 21.7524 9.97972 21.6678 10.0689 21.5828C10.4783 21.1911 10.8379 20.7737 11.153 20.3452C11.153 20.3452 11.153 20.3452 11.153 20.3444C11.3422 20.0871 11.5156 19.8267 11.6742 19.5644C11.8438 19.286 11.9966 19.0057 12.1348 18.7273C12.17 18.6557 12.2049 18.5849 12.2378 18.5144C12.2715 18.4436 12.3045 18.3727 12.3359 18.3023C12.368 18.2314 12.3987 18.1617 12.4266 18.0924C12.458 18.0224 12.4867 17.9534 12.5135 17.8841C12.5407 17.8198 12.5656 17.7562 12.5901 17.6934C12.6713 17.4836 12.7452 17.2776 12.8111 17.0784C12.8287 17.026 12.8455 16.9731 12.8616 16.9214C12.88 16.8652 12.8968 16.8096 12.9137 16.7541C12.9474 16.6438 12.9773 16.5362 13.0079 16.4309C13.0224 16.3777 13.0362 16.3256 13.0496 16.2751C13.0561 16.2509 13.0626 16.2268 13.068 16.2035C13.0864 16.1334 13.1032 16.0652 13.1193 15.9982C13.1208 15.9902 13.1231 15.9821 13.1251 15.9749C13.1442 15.9821 13.1637 15.9902 13.1836 15.9982C13.2093 16.0086 13.2357 16.02 13.2641 16.0311C13.2905 16.0422 13.3188 16.0545 13.3487 16.0671C13.4073 16.092 13.4701 16.1211 13.5352 16.1518C13.5585 16.1621 13.5819 16.1736 13.606 16.1847C13.7308 16.244 13.8683 16.3134 14.02 16.3938C14.1268 16.4508 14.2401 16.5129 14.3615 16.581C14.3937 16.5994 14.4274 16.6182 14.4596 16.6373C14.494 16.6565 14.5289 16.6768 14.5633 16.6967C14.7379 16.7981 14.9267 16.9123 15.1312 17.0382C15.1523 17.0513 15.1729 17.0639 15.194 17.0777C15.2407 17.1068 15.2874 17.1363 15.3364 17.1669C15.6041 17.3365 15.8936 17.528 16.2114 17.7428C16.2559 17.7727 16.3007 17.8029 16.3458 17.8343C16.3458 17.8343 16.3577 17.8408 16.3795 17.8535C16.3834 17.855 16.3868 17.8577 16.3899 17.8608C16.3949 17.8631 16.3994 17.8657 16.4044 17.8688C16.422 17.8799 16.4431 17.8929 16.4688 17.909C16.4864 17.9201 16.5059 17.9324 16.5266 17.9454C16.5396 17.9534 16.5538 17.9622 16.5676 17.9726C16.5932 17.9879 16.6196 18.0055 16.648 18.0239C16.7058 18.0618 16.7686 18.1043 16.8387 18.1525C16.8555 18.1637 16.8739 18.1759 16.8927 18.1885C17.0535 18.3011 17.2434 18.4394 17.4452 18.5994C17.4678 18.6163 17.4904 18.6346 17.5126 18.6534C17.5352 18.671 17.5578 18.6894 17.5812 18.7089C17.6045 18.7273 17.6271 18.7468 17.6505 18.766C17.6738 18.7851 17.6972 18.8047 17.7205 18.8253C17.7665 18.8633 17.8113 18.9027 17.8572 18.9429C17.9047 18.9854 17.9553 19.0298 18.0035 19.0754C18.0276 19.0965 18.0518 19.1187 18.0759 19.1413C18.1226 19.1857 18.1709 19.2312 18.2183 19.278C18.3367 19.3936 18.4546 19.515 18.5683 19.6421C18.5917 19.667 18.6143 19.6927 18.6357 19.7183C18.6576 19.7424 18.679 19.7666 18.6985 19.7915C18.6993 19.7922 18.7008 19.793 18.7008 19.7938L18.7024 19.7961C18.7207 19.8171 18.7395 19.8378 18.7556 19.8596C18.7659 19.8715 18.7774 19.8845 18.7862 19.8968C18.8031 19.9167 18.8199 19.937 18.8345 19.9569C18.8571 19.9833 18.8777 20.0101 18.898 20.0373C18.9191 20.0645 18.9398 20.0921 18.9601 20.1192C18.9811 20.1464 19.001 20.1748 19.0202 20.2027C19.0401 20.2311 19.0604 20.259 19.0795 20.2874C19.1381 20.372 19.1936 20.4585 19.2453 20.547C19.2637 20.5768 19.2817 20.6056 19.2974 20.6354C19.3143 20.6653 19.3304 20.6948 19.3472 20.7254C19.3641 20.7553 19.3794 20.7848 19.3947 20.8154C19.4092 20.846 19.4253 20.8767 19.4391 20.9069C19.456 20.9406 19.4713 20.9743 19.4858 21.0084C19.5115 21.0662 19.5364 21.1248 19.559 21.1845V21.1853C19.58 21.2424 19.5999 21.2994 19.6183 21.3572C19.6302 21.3967 19.6424 21.4361 19.652 21.4756C19.6616 21.5054 19.6689 21.5349 19.6761 21.5648C19.6769 21.5671 19.6777 21.5698 19.6777 21.5713C19.6834 21.5931 19.6872 21.6138 19.6922 21.6356C19.698 21.6582 19.7026 21.6808 19.7068 21.703C19.7091 21.7134 19.7106 21.7241 19.7125 21.7337C19.7163 21.754 19.7198 21.7731 19.7221 21.7922C19.7259 21.8156 19.7294 21.839 19.7324 21.8623C19.7363 21.8903 19.7397 21.9186 19.7428 21.9466C19.7458 21.9803 19.7477 22.014 19.7508 22.0488C19.7523 22.089 19.7539 22.1269 19.7554 22.1648Z" fill="url(#paint1_linear_13_528)"/>
<path d="M16.3792 17.8541C16.3573 17.8411 16.3455 17.8349 16.3455 17.8349C16.3003 17.8035 16.2555 17.7729 16.2111 17.7434C16.2666 17.7809 16.3229 17.8181 16.3792 17.8541Z" fill="url(#paint2_linear_13_528)"/>
<path d="M13.1251 15.9751C13.1235 15.9824 13.1208 15.9904 13.1193 15.9985C13.0975 16.0877 13.0741 16.1804 13.0492 16.2749C13.0362 16.3255 13.022 16.3779 13.0075 16.4308C12.9776 16.5361 12.9474 16.6437 12.9133 16.754C12.8964 16.8095 12.8796 16.865 12.8608 16.9213C12.8448 16.9726 12.8279 17.0259 12.8103 17.0779C12.7444 17.2774 12.6713 17.4831 12.5893 17.6933C12.5652 17.7561 12.5403 17.8197 12.5139 17.884C12.4856 17.9533 12.4568 18.0222 12.427 18.0923C12.3971 18.1624 12.3669 18.2321 12.3355 18.3021C12.3041 18.373 12.2711 18.4438 12.2374 18.5143C12.2045 18.5851 12.17 18.656 12.1344 18.7272C11.6029 19.7975 10.8528 20.9014 9.79361 21.8358L9.60559 18.7544C9.60559 18.7544 9.60483 18.7165 9.60712 18.6491C9.60712 18.6322 9.60789 18.6138 9.60942 18.5935C9.61019 18.571 9.61172 18.5468 9.6144 18.5212C9.61516 18.5051 9.6167 18.4882 9.61861 18.4706C9.61861 18.4656 9.61938 18.4603 9.62014 18.4545C9.62244 18.4289 9.62512 18.4013 9.62895 18.3726C9.62972 18.3646 9.63048 18.3565 9.63125 18.3485C9.63201 18.3469 9.63201 18.3443 9.63201 18.342C9.63508 18.3186 9.63852 18.2945 9.64235 18.2696C9.64542 18.2424 9.65039 18.2141 9.65537 18.185C9.66035 18.1593 9.66494 18.1317 9.67069 18.1046C9.67145 18.1015 9.67145 18.0973 9.67222 18.0942C9.67375 18.0839 9.67528 18.0732 9.67873 18.0628C9.68179 18.0452 9.68601 18.0276 9.68983 18.0088C9.69558 17.9816 9.70285 17.9525 9.70975 17.9242C9.71626 17.8951 9.7243 17.8664 9.73234 17.8365C9.74038 17.8066 9.74842 17.7772 9.758 17.7473C9.7668 17.7166 9.77638 17.686 9.7871 17.6558C9.79667 17.6259 9.80739 17.5964 9.8185 17.5658C9.8185 17.565 9.81926 17.5635 9.82003 17.5616C9.83458 17.5221 9.8499 17.4827 9.86598 17.4432C9.87096 17.4295 9.87708 17.4168 9.88283 17.403C9.88857 17.39 9.89508 17.3766 9.90044 17.3628C9.91576 17.3284 9.93261 17.2935 9.94946 17.2591C9.95903 17.238 9.96937 17.2181 9.98009 17.1978C9.98316 17.1905 9.98737 17.184 9.9912 17.1779C10.0073 17.148 10.0234 17.1185 10.041 17.0887C10.0578 17.0588 10.0754 17.0301 10.095 17.0002C10.1133 16.9711 10.1329 16.9424 10.1528 16.9133C10.1712 16.8861 10.1907 16.8593 10.2098 16.8336C10.2324 16.8038 10.2558 16.7743 10.2799 16.7452C10.3106 16.708 10.3427 16.672 10.3757 16.6357C10.3956 16.6138 10.4166 16.5931 10.4377 16.5721C10.4618 16.548 10.4867 16.5238 10.5124 16.5005C10.5139 16.4989 10.5166 16.4963 10.5181 16.4955V16.4947C10.53 16.4836 10.5422 16.4721 10.5552 16.4626C10.5698 16.4495 10.5843 16.4369 10.5997 16.4247C10.6173 16.4101 10.6341 16.3956 10.6529 16.3822C10.6728 16.3661 10.6939 16.35 10.7157 16.3347C10.7318 16.3224 10.7479 16.3113 10.7647 16.3002C10.7839 16.2864 10.8034 16.2738 10.8233 16.2608C10.8459 16.2455 10.8692 16.2309 10.8934 16.2175C10.911 16.2072 10.9286 16.1964 10.9474 16.1861C10.9657 16.1758 10.9845 16.1662 11.0029 16.1555C11.0408 16.1356 11.0791 16.116 11.1185 16.0984C11.1377 16.0888 11.158 16.08 11.1779 16.0712C11.2189 16.0536 11.2598 16.0368 11.3027 16.0207C11.3238 16.0126 11.3452 16.0046 11.3678 15.9973H11.3686C11.3736 15.995 11.3781 15.9931 11.3831 15.9916C11.3862 15.9908 11.3889 15.9893 11.3919 15.9885C11.395 15.9877 11.3977 15.987 11.4007 15.9862C11.4103 15.9824 11.4207 15.9789 11.4314 15.9759C11.4452 15.9709 11.4586 15.9671 11.4716 15.9629C11.5183 15.9483 11.5665 15.9349 11.6156 15.9226C11.6439 15.9154 11.6726 15.9089 11.7025 15.9027C11.7362 15.8947 11.7699 15.8874 11.8055 15.8809C11.8239 15.8778 11.8426 15.8744 11.8618 15.8713C11.8828 15.8671 11.9043 15.8641 11.9261 15.861C11.9935 15.8507 12.0636 15.8418 12.1352 15.8353C12.2646 15.8223 12.4006 15.8162 12.5438 15.817C12.5426 15.8173 12.6966 15.8085 13.1251 15.9751Z" fill="url(#paint3_linear_13_528)"/>
<path d="M13.4046 14.3346C13.4046 14.3346 13.3613 14.9956 13.1254 15.9751C13.1239 15.9824 13.1216 15.9904 13.1197 15.9985C13.1147 16.0195 13.1094 16.0402 13.1036 16.062C13.0868 16.1313 13.0692 16.2026 13.0496 16.2749C13.0358 16.3255 13.0224 16.3779 13.0079 16.4308C12.9773 16.5361 12.9478 16.6437 12.9137 16.754C12.8968 16.8095 12.88 16.865 12.8616 16.9213C12.8455 16.9726 12.8287 17.0258 12.8111 17.0783C12.7452 17.2778 12.6713 17.4834 12.5901 17.6933C12.566 17.7561 12.5411 17.8196 12.5135 17.884C12.4863 17.9533 12.4565 18.0222 12.4266 18.0923C12.3975 18.1624 12.3665 18.2321 12.3359 18.3021C12.3045 18.373 12.2715 18.4438 12.2378 18.5143C12.2049 18.5851 12.1704 18.656 12.1348 18.7272C11.6026 19.7975 10.8532 20.9014 9.79323 21.8361C9.53284 22.0678 9.25369 22.288 8.95386 22.4948C8.87842 22.5468 8.80184 22.5978 8.72372 22.6483C8.53877 22.7682 8.36033 22.8984 8.18801 23.0366L4.72522 25.8431C4.14241 26.316 3.41524 26.5733 2.66432 26.5733H0.503861C0.323886 26.5733 0.149272 26.4871 0.0558388 26.3328C-0.0276388 26.1931 -0.0464021 26.0081 0.207094 25.8189C0.22624 25.8036 0.247301 25.7898 0.268362 25.7772C0.268362 25.7772 0.272191 25.7749 0.279467 25.7707C0.365625 25.7186 0.462122 25.683 0.560917 25.6589C0.582743 25.6539 0.606102 25.6485 0.632523 25.642C0.647075 25.639 0.661626 25.6348 0.676943 25.6309C0.751613 25.6125 0.840835 25.5892 0.94231 25.5616C1.50138 25.4088 2.43227 25.1128 3.3218 24.6449C4.0486 24.2612 4.74743 23.7626 5.19124 23.1331C5.19124 23.1331 7.58529 20.1746 8.35152 17.5975H8.35229C8.42772 17.3425 8.48822 17.0917 8.5269 16.8474C8.52843 16.8474 8.52843 16.8466 8.52843 16.8466C8.53494 16.8049 8.54145 16.7632 8.54681 16.721C8.56136 16.6108 8.57017 16.5016 8.57323 16.3913C8.57821 16.2481 8.57323 16.1049 8.56443 15.9621C8.55562 15.8326 8.54605 15.6534 8.54337 15.4409C8.53954 15.0572 8.55639 14.5659 8.63488 14.0609C8.64063 14.0237 8.64676 13.987 8.65326 13.9498C8.65977 13.9127 8.66628 13.8759 8.67318 13.8388C8.68696 13.7633 8.70381 13.6867 8.72219 13.6113C8.7287 13.5814 8.73521 13.5527 8.74402 13.5236C8.75359 13.4811 8.76585 13.4394 8.77695 13.3972C8.79686 13.3241 8.82022 13.2525 8.84435 13.1809C8.87 13.1062 8.89757 13.0312 8.92706 12.9588C8.9374 12.9316 8.94965 12.904 8.96152 12.8776C8.96382 12.8711 8.9665 12.8646 8.96956 12.8585C8.98143 12.832 8.99369 12.8052 9.00671 12.7796C9.05342 12.6793 9.1055 12.5828 9.1637 12.4901C9.17902 12.4629 9.19587 12.4361 9.21502 12.4104C9.23186 12.3848 9.24948 12.3591 9.26901 12.3331C9.31802 12.2646 9.37278 12.1987 9.42984 12.137C9.43558 12.1305 9.44171 12.1233 9.44822 12.1171C9.4666 12.098 9.48536 12.0792 9.50374 12.0608C9.50757 12.057 9.51255 12.052 9.51676 12.0478C9.53782 12.0279 9.55927 12.0076 9.58109 11.9885C9.60598 11.9666 9.63011 11.9467 9.655 11.9264C9.70478 11.887 9.75724 11.851 9.81008 11.8161C9.83497 11.8001 9.86063 11.7848 9.88628 11.7694C9.91271 11.7541 9.94104 11.7388 9.97091 11.7242C9.9958 11.7112 10.0215 11.6994 10.0471 11.6883C10.0582 11.6825 10.0697 11.6779 10.08 11.6737C10.0816 11.6722 10.0816 11.6722 10.0831 11.6722C10.1049 11.6626 10.1264 11.6538 10.149 11.6457C10.1804 11.6327 10.2133 11.6224 10.247 11.6113C10.2485 11.6105 10.2501 11.6105 10.2527 11.6098C10.2577 11.6082 10.2638 11.6067 10.2696 11.6048C10.2826 11.5998 10.2968 11.5967 10.3106 11.5929C10.3144 11.5921 10.3201 11.5906 10.3243 11.5887C10.3282 11.5879 10.3316 11.5872 10.3339 11.5864C10.3492 11.5833 10.363 11.5791 10.378 11.5761C10.3948 11.5718 10.4117 11.568 10.4293 11.565C10.5821 11.5351 10.7406 11.5263 10.898 11.5343C10.9389 11.5351 10.9799 11.5381 11.0209 11.5424C11.0956 11.5512 11.1817 11.5642 11.2767 11.5818C11.2958 11.586 11.3154 11.5891 11.3353 11.5937C11.3793 11.6025 11.4245 11.6128 11.4704 11.6251H11.4712C11.5084 11.6339 11.5466 11.6442 11.5861 11.6557C11.6117 11.663 11.6385 11.671 11.6642 11.6791C11.6657 11.6798 11.6673 11.6798 11.6692 11.6806C11.6711 11.6814 11.673 11.6821 11.6765 11.6829C11.691 11.6871 11.7048 11.6917 11.719 11.6967C11.8541 11.7411 11.9939 11.7982 12.1329 11.8686C12.8199 12.219 13.48 12.922 13.4046 14.3346Z" fill="url(#paint4_linear_13_528)"/>
<path d="M19.7562 17.167V22.0401C19.7562 22.0715 19.7554 22.1021 19.7554 22.1335C19.7562 22.1439 19.7554 22.1546 19.7547 22.1649C19.7539 22.127 19.7524 22.0895 19.7497 22.0516C19.7481 22.0179 19.7447 21.9834 19.7416 21.9494C19.7386 21.9214 19.7351 21.8931 19.7313 21.8651C19.729 21.8418 19.7248 21.8184 19.721 21.795C19.7187 21.7759 19.7152 21.7564 19.7114 21.7365C19.7099 21.7269 19.7083 21.7165 19.7056 21.7058C19.7018 21.6832 19.6968 21.6606 19.6911 21.6384C19.6869 21.6166 19.6823 21.5959 19.6765 21.5741C19.6765 21.5726 19.6758 21.5699 19.675 21.5676C19.6685 21.5377 19.6605 21.5082 19.6517 21.4784C19.6413 21.4389 19.6298 21.3995 19.6172 21.36C19.5996 21.3022 19.5793 21.2452 19.5578 21.1881V21.1873C19.5352 21.128 19.5111 21.069 19.4847 21.0112C19.4701 20.9775 19.4548 20.9438 19.438 20.9097C19.4242 20.8791 19.4089 20.8485 19.3939 20.8182C19.3786 20.7876 19.3633 20.7581 19.3465 20.7282C19.3311 20.6976 19.3143 20.6677 19.2967 20.6382C19.2806 20.6084 19.263 20.5796 19.2454 20.5498C19.1933 20.4613 19.1378 20.3744 19.0788 20.2901C19.0597 20.2618 19.0394 20.2339 19.0194 20.2055C19.0003 20.1772 18.98 20.1492 18.9593 20.122C18.9394 20.0949 18.9184 20.0673 18.8973 20.0401C18.8774 20.0129 18.8563 19.9861 18.8337 19.9597C18.8192 19.9398 18.8031 19.9195 18.7855 19.8996C18.7767 19.8877 18.7663 19.8747 18.7548 19.8624C18.7388 19.8406 18.7204 19.8199 18.7028 19.7989L18.7005 19.7966C18.7005 19.7958 18.6989 19.795 18.6982 19.7943C18.679 19.7694 18.6572 19.7452 18.6354 19.7211C18.6135 19.6955 18.591 19.6698 18.568 19.6449C18.4925 19.5603 18.4152 19.4783 18.3371 19.3987C18.2969 19.3585 18.2574 19.3191 18.218 19.2804C18.1705 19.2329 18.123 19.1881 18.0755 19.1437C18.0514 19.1211 18.0273 19.0985 18.0039 19.0778C17.9549 19.0319 17.9051 18.9878 17.8569 18.9453C17.8109 18.9051 17.7661 18.8657 17.7202 18.8278C17.6968 18.8067 17.6735 18.7876 17.6501 18.7684C17.6267 18.7493 17.6042 18.7297 17.5808 18.7114C17.5574 18.6922 17.5348 18.6734 17.5123 18.6558C17.4897 18.6374 17.4671 18.6187 17.4449 18.6018C17.2431 18.4418 17.0539 18.3035 16.8923 18.191C16.8739 18.1779 16.8559 18.1661 16.8391 18.155C16.769 18.1067 16.7054 18.0642 16.6484 18.0263C16.6193 18.0079 16.5928 17.9899 16.568 17.975C16.5534 17.9646 16.5389 17.9558 16.5262 17.9478C16.5052 17.934 16.486 17.9221 16.4684 17.9114C16.4427 17.8953 16.4217 17.8823 16.4041 17.8712C16.3991 17.8682 16.3953 17.8655 16.3903 17.8632C16.3865 17.8601 16.383 17.8574 16.3792 17.8559C16.3229 17.8199 16.2666 17.7828 16.2111 17.7448C15.8944 17.53 15.6041 17.3389 15.3361 17.1689C15.2878 17.1383 15.2404 17.1088 15.1936 17.0797C15.1726 17.0659 15.1519 17.0533 15.1308 17.0403C14.9275 16.9139 14.7383 16.7998 14.563 16.6987C14.5285 16.6776 14.4937 16.6585 14.46 16.6393C14.4263 16.6202 14.3933 16.6007 14.3612 16.5831C14.0678 16.4172 13.8174 16.2878 13.6053 16.1867C13.5811 16.1756 13.5578 16.1641 13.5352 16.1538C13.4693 16.1232 13.4065 16.0944 13.3479 16.0692C13.3188 16.0562 13.2909 16.0443 13.2637 16.0332C13.2354 16.0221 13.2089 16.0106 13.1833 16.0002C13.1634 15.9922 13.1438 15.9842 13.1247 15.9769C13.3602 14.9974 13.4039 14.3364 13.4039 14.3364C13.4142 14.1457 13.4111 13.9681 13.3966 13.8026C13.3016 12.7404 12.7268 12.1733 12.1341 11.8712C11.9951 11.8003 11.8549 11.7433 11.7201 11.6992C11.7018 11.6927 11.6841 11.6874 11.6661 11.6816C11.6397 11.6736 11.6129 11.6655 11.5873 11.6583C11.5478 11.6472 11.5099 11.6364 11.4724 11.6276L11.4241 11.6158C11.3943 11.6085 11.3655 11.602 11.3364 11.5966C11.3165 11.5916 11.297 11.5886 11.2779 11.5847C11.2223 11.5744 11.1683 11.5656 11.1193 11.5583C11.0849 11.5533 11.0527 11.5487 11.0221 11.5453C10.9014 11.5307 10.8099 11.5269 10.7609 11.5262H10.7536C10.7337 11.5254 10.7222 11.5254 10.7222 11.5254C10.6931 11.5277 10.6644 11.5304 10.6353 11.5342C10.5645 11.5422 10.4963 11.5526 10.4301 11.5679C10.4124 11.571 10.3956 11.5752 10.3787 11.579C10.3642 11.5821 10.3496 11.5863 10.3343 11.5893C10.332 11.5901 10.3286 11.5909 10.3255 11.5916C10.3205 11.5932 10.3159 11.5947 10.311 11.5958C10.2972 11.5997 10.2838 11.6031 10.27 11.6077C10.2643 11.6092 10.2581 11.6108 10.2531 11.6127C10.2509 11.6135 10.2489 11.6135 10.2474 11.6142C10.2137 11.6253 10.1815 11.6361 10.1494 11.6487C10.1268 11.6567 10.1053 11.6655 10.0835 11.6751C10.0827 11.6751 10.082 11.6751 10.0812 11.6766C10.0701 11.6809 10.0586 11.6854 10.0475 11.6912C10.0211 11.7023 9.99621 11.7146 9.97093 11.7272C9.94183 11.7417 9.91388 11.7563 9.88669 11.7724C9.86027 11.7869 9.83538 11.803 9.8101 11.8191C9.75688 11.8536 9.7048 11.8899 9.65502 11.9294C9.63013 11.9493 9.606 11.9696 9.58188 11.9914C9.55929 12.0106 9.53746 12.0301 9.51678 12.0508C9.51295 12.055 9.50798 12.0596 9.50376 12.0638C9.48462 12.0814 9.46585 12.1009 9.44824 12.1201C9.44173 12.1266 9.43522 12.1339 9.42986 12.14C9.37204 12.202 9.31881 12.2671 9.26903 12.336C9.25065 12.3617 9.23189 12.3873 9.21504 12.4134C9.19666 12.439 9.17981 12.4655 9.16373 12.493C9.1059 12.5853 9.05344 12.6818 9.00711 12.7825C8.99332 12.8082 8.98145 12.835 8.96997 12.8614C8.9669 12.8679 8.96422 12.8744 8.96193 12.8806C8.95005 12.907 8.9378 12.9345 8.92746 12.9617C8.89759 13.0341 8.87041 13.1088 8.84475 13.1838C8.84169 13.1942 8.83747 13.2037 8.83441 13.2145C8.82063 13.2554 8.80799 13.2979 8.79574 13.3401C8.78923 13.36 8.78348 13.3803 8.77812 13.4002C8.76625 13.4419 8.75476 13.4837 8.74442 13.5266C8.73638 13.5557 8.72911 13.5844 8.7226 13.6142C8.70422 13.6897 8.68813 13.7663 8.67358 13.8417C8.66631 13.8788 8.6598 13.9156 8.65367 13.9527C8.64716 13.9899 8.64065 14.0267 8.63529 14.0638C8.49629 13.6755 8.06435 13.0307 6.73101 13.0199C6.48478 13.0176 6.23895 13.0031 5.99694 12.9621C5.47922 12.8752 4.68619 12.6791 4.31781 12.2602C4.28182 12.22 4.25042 12.1783 4.22361 12.1339C4.23166 12.1354 4.23587 12.1362 4.23587 12.1362H5.73004C5.81696 12.1362 5.90197 12.1231 5.98239 12.0944C5.99349 12.0913 6.00498 12.0864 6.01609 12.0814C6.08042 12.0534 6.14973 12.0121 6.2018 11.9512C6.21367 11.9374 6.22516 11.9229 6.23474 11.9079V11.9072C6.25005 11.8838 6.26192 11.8589 6.27188 11.8317C6.27418 11.8245 6.27686 11.8179 6.27839 11.8107C6.27992 11.8057 6.28069 11.8011 6.28145 11.7961C6.29371 11.7479 6.296 11.6939 6.28643 11.6322C6.2849 11.6154 6.28145 11.5978 6.27686 11.5798C6.27188 11.5614 6.26728 11.5426 6.26077 11.5235C6.25848 11.5147 6.25503 11.5059 6.25197 11.4963C6.24967 11.489 6.24622 11.481 6.24316 11.4737C6.23742 11.4599 6.23205 11.4465 6.22554 11.432C6.21904 11.4182 6.21253 11.4055 6.20563 11.3925C6.19912 11.3795 6.19185 11.3676 6.18457 11.3565C6.17959 11.3485 6.175 11.3404 6.16926 11.3324C6.16121 11.3205 6.15317 11.3083 6.14437 11.2972C6.14437 11.2964 6.1436 11.2956 6.14283 11.2949C6.13326 11.2811 6.12177 11.2677 6.11067 11.2539C6.10186 11.242 6.09152 11.2305 6.08003 11.2202C6.0762 11.2145 6.07046 11.2091 6.06472 11.2033C6.0471 11.185 6.02834 11.1681 6.00919 11.1513C5.95941 11.1103 5.89508 11.0532 5.83305 10.9847C5.82501 10.9759 5.81773 10.9678 5.81045 10.959C5.79744 10.9445 5.78633 10.9299 5.77446 10.915C5.76565 10.9039 5.75685 10.8916 5.74804 10.8798C5.74497 10.8767 5.74229 10.8725 5.74 10.8694C5.73923 10.8679 5.7377 10.8664 5.73693 10.8645C5.72889 10.8534 5.72085 10.8419 5.71357 10.83C5.7063 10.8197 5.69979 10.8082 5.69366 10.7971C5.68639 10.7867 5.68064 10.7752 5.67452 10.7634C5.64312 10.704 5.61823 10.6397 5.60521 10.5727C5.60138 10.5558 5.5987 10.5382 5.59717 10.5206C5.59487 10.503 5.5941 10.4846 5.5941 10.4658C5.5941 10.4184 5.60061 10.3701 5.61516 10.3203C5.62091 10.3012 5.62818 10.2809 5.63622 10.261C5.63929 10.2545 5.64197 10.248 5.64503 10.2418C5.64733 10.2353 5.65077 10.228 5.6546 10.2219C5.65767 10.2154 5.66111 10.2081 5.66494 10.202C5.66992 10.1932 5.67452 10.1844 5.68026 10.1756C5.68103 10.174 5.68179 10.1733 5.68256 10.1714C5.69481 10.153 5.70745 10.1335 5.722 10.1151C5.722 10.1135 5.72353 10.1128 5.7243 10.1109C5.73234 10.1005 5.74038 10.091 5.74919 10.0802C5.76604 10.0603 5.78556 10.0393 5.80548 10.019C5.81582 10.0086 5.82654 9.99905 5.83764 9.98833C5.85219 9.97454 5.86828 9.96114 5.88436 9.94735C5.89968 9.93433 5.91576 9.9217 5.93261 9.90868C5.95099 9.89566 5.97052 9.88226 5.98966 9.86847C6.00804 9.85545 6.02757 9.84282 6.04748 9.8298C6.04825 9.82903 6.04902 9.82903 6.05055 9.82827C6.07161 9.81448 6.09305 9.80184 6.11565 9.78882C6.13096 9.77925 6.14705 9.77044 6.16313 9.76164C6.16887 9.75857 6.175 9.75513 6.18151 9.75206C6.19453 9.74479 6.20793 9.73751 6.22172 9.731C6.2355 9.72373 6.2489 9.71645 6.26269 9.70994C6.28911 9.69616 6.31668 9.68352 6.34463 9.6705C6.34693 9.66973 6.34961 9.6682 6.35191 9.66629C6.56903 9.56596 6.76049 9.41394 6.89145 9.21597C6.92285 9.16849 6.95157 9.11717 6.97608 9.06395C6.98182 9.05284 6.98642 9.04135 6.99063 9.03025C6.99446 9.02068 6.99867 9.01034 7.0025 8.99962C7.0048 8.99157 7.00824 8.98353 7.01054 8.97473C7.01552 8.95941 7.02011 8.94333 7.02356 8.92801C7.02777 8.91499 7.03007 8.90235 7.03237 8.88933C7.03466 8.87478 7.03735 8.86023 7.03811 8.84683C7.05343 8.70208 7.00977 8.55427 6.8612 8.42293C6.83708 8.4011 6.80989 8.38043 6.77925 8.36013C6.75934 8.34635 6.73751 8.33294 6.71416 8.31992C6.6908 8.30614 6.66667 8.2935 6.64025 8.28125C6.6146 8.26823 6.58703 8.25636 6.55831 8.24411C6.54376 8.23836 6.52844 8.23223 6.51312 8.22649C6.48249 8.21462 6.45032 8.20313 6.41662 8.19279C6.39978 8.18705 6.38216 8.18245 6.36455 8.17671C6.32932 8.16637 6.29217 8.15565 6.25273 8.14608C6.23359 8.1411 6.21329 8.1365 6.19338 8.13153H4.37372C4.23204 8.13153 4.09227 8.07753 3.99999 7.96993C3.86175 7.80987 3.80201 7.51655 4.31207 7.03062C4.56863 6.78555 4.86923 6.59064 5.19586 6.45164C5.22228 6.44053 5.25062 6.42904 5.27934 6.41717C6.78079 5.8156 8.45417 6.15602 9.63281 7.18915C9.88631 7.4101 10.1168 7.66359 10.3179 7.94657C10.4362 8.11391 10.5511 8.29542 10.6571 8.49339C10.8291 8.81734 11.0584 9.1053 11.3295 9.3408C11.6857 9.65135 12.1153 9.87154 12.589 9.9665C12.6277 9.97454 12.6671 9.98182 12.7073 9.98833C12.7081 9.98833 12.7081 9.98833 12.7088 9.98833C12.7104 9.98909 12.7131 9.98909 12.7146 9.98909H12.7169C12.7468 9.98986 12.7762 9.99062 12.8053 9.99139C13.0071 9.99713 13.2059 10.0113 13.4019 10.0347C13.606 10.058 13.8078 10.0902 14.0073 10.1304C14.074 10.1442 14.141 10.1583 14.2076 10.1737C15.096 10.3804 15.9212 10.7511 16.6488 11.2535C18.2475 12.3552 19.3771 14.0891 19.6781 16.0937C19.729 16.4418 19.7562 16.8013 19.7562 17.167Z" fill="url(#paint5_linear_13_528)"/>
<path d="M16.3792 17.8541C16.3573 17.8411 16.3455 17.8349 16.3455 17.8349C16.3003 17.8035 16.2555 17.7729 16.2111 17.7434C16.2666 17.7809 16.3229 17.8181 16.3792 17.8541Z" fill="url(#paint6_linear_13_528)"/>
<path d="M7.03697 8.8433C7.03621 8.85709 7.03391 8.87125 7.03123 8.8858C7.02893 8.89882 7.02625 8.91146 7.02242 8.92448C7.01936 8.9398 7.01438 8.95588 7.0094 8.9712C7.0071 8.98 7.00366 8.98805 7.00136 8.99609C6.99715 9.00643 6.99332 9.01715 6.98911 9.02672C6.98528 9.03783 6.9803 9.04931 6.97456 9.06042C6.95043 9.11364 6.92133 9.16496 6.88993 9.21244C6.75897 9.41041 6.56751 9.56243 6.35039 9.66276C6.34809 9.66429 6.34541 9.66582 6.34311 9.66697C6.31478 9.67999 6.28759 9.69263 6.26117 9.70641C6.24738 9.71292 6.23398 9.7202 6.22019 9.72747C6.20641 9.73398 6.19301 9.74126 6.17999 9.74853C6.17348 9.7516 6.16697 9.75504 6.16161 9.75811C6.14552 9.76691 6.12944 9.77572 6.11412 9.7853C6.09153 9.79831 6.0697 9.81095 6.04903 9.82474C6.0475 9.8255 6.04673 9.8255 6.04596 9.82627C6.02605 9.83929 6.00652 9.85192 5.98814 9.86494C5.969 9.87873 5.94947 9.89213 5.93109 9.90515C5.91424 9.91817 5.89815 9.93081 5.88284 9.94383C5.86675 9.95761 5.85067 9.97101 5.83612 9.9848C5.82502 9.99514 5.81429 10.0047 5.80396 10.0154C5.78404 10.0353 5.76451 10.0564 5.74767 10.0767C5.73886 10.087 5.73082 10.0966 5.72277 10.1073C5.70746 10.1272 5.69367 10.1475 5.68104 10.1675C5.68027 10.169 5.6795 10.1698 5.67874 10.1713C5.67299 10.1801 5.6684 10.1889 5.66342 10.1977C5.65921 10.2042 5.65615 10.2115 5.65308 10.2176C5.64887 10.2241 5.64581 10.2314 5.64351 10.2375C5.64045 10.244 5.63777 10.2505 5.6347 10.2567C5.62666 10.2766 5.61939 10.2969 5.61364 10.316C5.59909 10.3658 5.59258 10.4141 5.59258 10.4615C5.59258 10.4799 5.59335 10.4987 5.59564 10.5163C5.59718 10.5339 5.59986 10.5515 5.60369 10.5684C5.6167 10.635 5.64159 10.6993 5.67299 10.7591C5.6795 10.7713 5.68487 10.7824 5.69214 10.7928C5.69865 10.8039 5.70516 10.8154 5.71205 10.8257C5.71933 10.838 5.72737 10.8491 5.73541 10.8602C5.73618 10.8617 5.73771 10.8632 5.73847 10.8651C5.74077 10.8682 5.74345 10.8724 5.74652 10.8755C5.75532 10.8877 5.76413 10.8996 5.77294 10.9107C5.78481 10.926 5.7963 10.9406 5.80893 10.9551C5.81621 10.9639 5.82348 10.972 5.83153 10.9808C5.89356 11.0493 5.95789 11.1064 6.00767 11.1474C6.02682 11.1642 6.04558 11.1811 6.06319 11.1998C6.07928 11.2159 6.09459 11.2328 6.10915 11.2504C6.12025 11.2641 6.13097 11.2776 6.14131 11.2913C6.14208 11.2921 6.14284 11.2929 6.14284 11.2936C6.15165 11.3047 6.15969 11.317 6.16773 11.3289C6.17348 11.3369 6.17807 11.3449 6.18305 11.353C6.19033 11.3641 6.1976 11.3763 6.20411 11.389C6.21139 11.402 6.2179 11.4146 6.22402 11.4284C6.23053 11.443 6.23589 11.4564 6.24164 11.4702C6.24815 11.487 6.25389 11.5039 6.25925 11.5199C6.26576 11.5391 6.27036 11.5579 6.27534 11.5762C6.27955 11.5938 6.28261 11.6115 6.28491 11.6283C6.29448 11.6903 6.29218 11.744 6.27993 11.7922C6.27916 11.7972 6.2784 11.8018 6.27687 11.8068C6.27534 11.814 6.27265 11.8205 6.27036 11.8278C6.26078 11.855 6.24853 11.881 6.23321 11.904C6.22364 11.9193 6.21215 11.9339 6.20028 11.9473C6.14782 12.0086 6.0789 12.0495 6.01456 12.0775C6.00346 12.0825 5.99197 12.0871 5.98087 12.0905C5.90045 12.1196 5.81506 12.1322 5.72852 12.1322H4.23435C4.23435 12.1322 4.23052 12.1315 4.22248 12.1299C4.14359 12.1169 3.68944 12.0296 3.35247 11.7263C3.34137 11.7175 3.33064 11.708 3.32031 11.6972C3.19815 11.5797 3.09438 11.4334 3.03464 11.2492C2.98333 11.0907 2.96304 10.9057 2.99137 10.6886C2.99865 10.6273 3.01052 10.5649 3.02584 10.4987C3.02584 10.4987 3.14416 9.69454 3.75761 9.41003C4.02297 9.28711 4.24315 9.08033 4.37297 8.81726C4.50814 8.54232 4.58587 8.23522 4.34233 8.12646H6.19109C6.211 8.13144 6.2313 8.13604 6.25045 8.14102C6.28989 8.15059 6.32665 8.16093 6.36226 8.17165C6.37987 8.17739 6.39749 8.18199 6.41472 8.18773C6.44842 8.19884 6.48058 8.21033 6.51122 8.22143C6.52653 8.22717 6.54185 8.2333 6.5564 8.23904C6.5855 8.2513 6.61269 8.26317 6.63835 8.27619C6.66477 8.28921 6.68889 8.30184 6.71225 8.31486C6.73561 8.32788 6.75744 8.34129 6.77735 8.35507C6.80798 8.37498 6.83517 8.39681 6.8593 8.41787C7.00864 8.55075 7.05229 8.69855 7.03697 8.8433Z" fill="url(#paint7_linear_13_528)"/>
<path opacity="0.08" d="M7.03732 8.84354C7.03655 8.85733 7.03425 8.87188 7.03157 8.88605C7.02928 8.89907 7.02659 8.9117 7.02277 8.92472C7.0197 8.94004 7.01472 8.95612 7.00975 8.97144C7.00745 8.98025 7.004 8.98829 7.00171 8.99633C6.99788 9.00667 6.99366 9.01739 6.98983 9.02696C6.986 9.03807 6.98103 9.04956 6.97528 9.06066C6.95116 9.11389 6.92206 9.1652 6.89104 9.21268C6.76008 9.41066 6.56862 9.56229 6.3515 9.663C6.3492 9.66453 6.34652 9.66607 6.34422 9.66721C6.31627 9.68023 6.2887 9.69287 6.26228 9.70666C6.24849 9.71317 6.23509 9.72044 6.2213 9.72772C6.20752 9.73423 6.19412 9.7415 6.1811 9.74878C6.17459 9.75184 6.16808 9.75529 6.16272 9.75835C6.14663 9.76716 6.13055 9.77597 6.11523 9.78554C6.09264 9.79856 6.07081 9.81119 6.05014 9.82498C6.0486 9.82575 6.04784 9.82575 6.04707 9.82651C6.02716 9.83953 6.00763 9.85217 5.98925 9.86519C5.97011 9.87897 5.95058 9.89237 5.9322 9.90539C5.91535 9.91841 5.89926 9.93105 5.88395 9.94407C5.86786 9.95786 5.85178 9.97126 5.83723 9.98504C5.82613 9.99538 5.8154 10.005 5.80507 10.0157C5.78515 10.0356 5.76562 10.0566 5.74878 10.0769C5.73997 10.0873 5.73193 10.0969 5.72388 10.1076C5.70857 10.1275 5.69478 10.1478 5.68215 10.1677C5.68138 10.1692 5.68061 10.17 5.67985 10.1719C5.6741 10.1807 5.66951 10.1895 5.66453 10.1983C5.6607 10.2048 5.65726 10.2121 5.65419 10.2182C5.65036 10.2248 5.64692 10.232 5.64462 10.2382C5.64156 10.2447 5.63888 10.2512 5.63581 10.2573C5.62777 10.2772 5.6205 10.2975 5.61475 10.3167C5.6002 10.3664 5.59369 10.4147 5.59369 10.4622C5.59369 10.4805 5.59446 10.4993 5.59675 10.5169C5.59829 10.5345 5.60058 10.5522 5.60479 10.569C5.61781 10.6356 5.6427 10.7 5.6741 10.7597C5.68061 10.7716 5.68598 10.7831 5.69325 10.7934C5.69976 10.8045 5.70627 10.816 5.71316 10.8263C5.72044 10.8382 5.72848 10.8497 5.73652 10.8608C5.73729 10.8623 5.73882 10.8639 5.73958 10.8658C5.74188 10.8688 5.74456 10.873 5.74763 10.8761C5.75643 10.8884 5.76524 10.9002 5.77405 10.9113C5.78592 10.9267 5.79741 10.9412 5.81043 10.9554C5.8177 10.9642 5.82498 10.9722 5.83302 10.981C5.89505 11.0492 5.95938 11.1066 6.00916 11.1476C6.02831 11.1645 6.04707 11.1813 6.06469 11.1997C6.08077 11.2158 6.09609 11.2326 6.11064 11.2502C6.12174 11.264 6.13247 11.2774 6.1428 11.2912C6.14357 11.292 6.14434 11.2927 6.14434 11.2935C6.15314 11.3046 6.16119 11.3169 6.16923 11.3287C6.17497 11.3368 6.17957 11.3448 6.18454 11.3528C6.19182 11.364 6.19909 11.3762 6.2056 11.3888C6.21288 11.4019 6.21939 11.4145 6.22552 11.4283C6.23203 11.4428 6.23739 11.4562 6.24313 11.47C6.24964 11.4869 6.255 11.5037 6.26075 11.5198C6.26726 11.539 6.27185 11.5577 6.27683 11.5761C6.28066 11.5937 6.2841 11.6113 6.2864 11.6286C6.29597 11.6906 6.29368 11.7442 6.28142 11.7924C6.28066 11.7974 6.27989 11.802 6.27836 11.807C6.27683 11.8143 6.27453 11.8208 6.27185 11.8281C6.26228 11.8552 6.25002 11.8813 6.23471 11.9043C6.22513 11.9196 6.21365 11.9341 6.20178 11.9475C6.14931 12.0088 6.08039 12.0498 6.01606 12.0777C6.00495 12.0827 5.99346 12.0873 5.98236 12.0907C5.90194 12.1198 5.81655 12.1325 5.73001 12.1325H4.23584C4.23584 12.1325 4.23201 12.1317 4.22397 12.1302C4.22397 12.1302 4.2232 12.1302 4.22091 12.1294H4.21784C4.21478 12.1287 4.2121 12.1279 4.20903 12.1279C4.13666 12.1149 3.92835 12.0693 3.70319 11.9583C3.58563 11.9012 3.46348 11.8258 3.35435 11.7266C3.34324 11.7178 3.33252 11.7082 3.32218 11.6975C3.20003 11.5799 3.09626 11.4336 3.0369 11.2495C2.98559 11.0909 2.96529 10.906 2.99363 10.6889C3.00091 10.6276 3.01278 10.5652 3.02809 10.4989C3.02809 10.4989 3.14642 9.69479 3.75986 9.41027C4.02523 9.28735 4.24541 9.08057 4.37484 8.8175C4.51001 8.54256 4.58813 8.23546 4.34421 8.12671H6.19297C6.21288 8.13169 6.23317 8.13628 6.25232 8.14126C6.29176 8.15083 6.32891 8.16117 6.36413 8.17189C6.38175 8.17764 6.39936 8.18223 6.41621 8.18798C6.44991 8.19908 6.48208 8.21057 6.51271 8.22167C6.52803 8.22742 6.54334 8.23393 6.55789 8.23929C6.587 8.25154 6.61418 8.26341 6.63984 8.27643C6.66626 8.28945 6.69039 8.30209 6.71375 8.31511C6.7371 8.32813 6.75893 8.34153 6.77884 8.35532C6.80948 8.37523 6.83666 8.39705 6.86079 8.41811C7.00898 8.55061 7.05263 8.6988 7.03732 8.84354Z" fill="url(#paint8_linear_13_528)"/>
<path d="M6.4361 18.4462C6.62986 18.3788 6.81979 18.2957 7.00206 18.1992C6.81979 18.2949 6.62986 18.3769 6.4361 18.4462ZM6.4361 18.4462C6.62986 18.3788 6.81979 18.2957 7.00206 18.1992C6.81979 18.2949 6.62986 18.3769 6.4361 18.4462ZM6.4361 18.4462C6.62986 18.3788 6.81979 18.2957 7.00206 18.1992C6.81979 18.2949 6.62986 18.3769 6.4361 18.4462ZM6.4361 18.4462C6.62986 18.3788 6.81979 18.2957 7.00206 18.1992C6.81979 18.2949 6.62986 18.3769 6.4361 18.4462ZM6.4361 18.4462C6.62986 18.3788 6.81979 18.2957 7.00206 18.1992C6.81979 18.2949 6.62986 18.3769 6.4361 18.4462ZM6.4361 18.4462C6.62986 18.3788 6.81979 18.2957 7.00206 18.1992C6.81979 18.2949 6.62986 18.3769 6.4361 18.4462Z" fill="url(#paint9_linear_13_528)"/>
<path d="M23.971 21.3047C23.9661 22.7572 23.3622 24.074 22.3926 25.0271C22.2544 25.1631 22.1089 25.2917 21.9561 25.4124C21.6095 25.6865 21.2266 25.9197 20.8165 26.1024C20.1441 26.4037 19.3981 26.5719 18.6132 26.5719H15.3943C16.2746 26.55 17.0918 26.2736 17.7753 25.8137C17.9224 25.7149 18.064 25.6069 18.1984 25.492H18.6135C19.4184 25.492 20.1728 25.2718 20.8169 24.8889C21.2534 24.6293 21.6394 24.2954 21.9565 23.9055C21.9565 23.9055 21.9572 23.904 21.9595 23.9013C21.9626 23.8983 21.9683 23.8918 21.9748 23.883C22.0128 23.8355 22.0495 23.7872 22.0859 23.7382C22.0924 23.7294 22.0989 23.7206 22.105 23.711C22.1116 23.7022 22.1181 23.6926 22.1253 23.6827C22.2927 23.4472 22.4359 23.1945 22.5508 22.9276C22.7679 22.4275 22.8893 21.8772 22.8908 21.3009C22.895 20.3198 22.5661 19.3912 21.9565 18.6415C21.8649 18.5274 21.765 18.4171 21.6597 18.3118C21.124 17.7761 20.4703 17.4031 19.7573 17.2159V17.1668C19.7573 17.0317 19.7531 16.8976 19.7462 16.7648C19.7344 16.5373 19.711 16.3122 19.6769 16.0908C20.509 16.2486 21.2875 16.6032 21.9565 17.132C22.1188 17.2607 22.2739 17.3989 22.4229 17.5478C22.6304 17.7546 22.8184 17.9756 22.9858 18.2088C23.6302 19.1044 23.9749 20.1774 23.971 21.3047Z" fill="url(#paint10_linear_13_528)"/>
<path d="M8.57282 16.3914C8.56976 16.5017 8.56095 16.6109 8.5464 16.7211C8.54066 16.7629 8.53453 16.8046 8.52802 16.8467C8.52802 16.8467 8.52802 16.8475 8.52725 16.8475C8.51921 16.8965 8.51041 16.9455 8.50083 16.9946C8.46292 17.1925 8.41238 17.3936 8.35187 17.5977H8.35111C7.90309 17.757 7.46349 17.9522 7.03385 18.1831C7.02274 18.1897 7.01279 18.1954 7.00245 18.1992C6.81979 18.295 6.63025 18.3769 6.43649 18.4462C6.42538 18.4504 6.41389 18.4535 6.40279 18.4573C6.32735 18.4837 6.25077 18.5071 6.17342 18.5289C5.80275 18.6327 5.41599 18.6875 5.02196 18.6875C4.97601 18.6875 4.93121 18.6867 4.88526 18.6852C4.85884 18.6852 4.8328 18.6836 4.80714 18.681C4.78953 18.681 4.77268 18.6802 4.75506 18.6794C4.7252 18.6779 4.69494 18.6752 4.66508 18.6721C4.6467 18.6714 4.62793 18.6698 4.60879 18.6664C4.58619 18.6656 4.5636 18.6633 4.54139 18.6599C4.32121 18.635 4.10218 18.5925 3.8885 18.5335C3.86591 18.527 3.84447 18.5205 3.82188 18.5144C3.68938 18.4757 3.56072 18.4309 3.43436 18.3807V18.3589C3.41253 18.3581 3.39032 18.3558 3.36849 18.3532C2.90362 18.1586 2.48547 17.886 2.12782 17.5532C1.23828 16.7292 0.718272 15.5379 0.768818 14.2586C0.783369 13.8975 0.842722 13.5471 0.943432 13.2139C1.1728 12.4477 1.61393 11.7707 2.19713 11.2503C2.4399 11.0339 2.7068 10.8459 2.99323 10.6897C2.96489 10.9068 2.98519 11.0918 3.0365 11.2503C3.09585 11.4345 3.19962 11.5808 3.32178 11.6983C3.33212 11.7087 3.34284 11.7182 3.35394 11.7274C2.53142 12.239 1.9555 13.1163 1.85977 14.1253C1.85403 14.1839 1.8502 14.2429 1.84752 14.3014C1.80233 15.474 2.39663 16.5465 3.35624 17.1351C3.3819 17.1512 3.40755 17.1665 3.43436 17.1818C3.63233 17.2967 3.84294 17.3901 4.0681 17.4602C4.07997 17.464 4.09299 17.4682 4.10601 17.4721C4.11252 17.4744 4.11979 17.477 4.12592 17.4786C4.13166 17.4801 4.13702 17.4816 4.14277 17.4835C4.18872 17.4973 4.23505 17.5092 4.28177 17.5207C4.33308 17.5326 4.38631 17.5433 4.43877 17.5536C4.46442 17.5586 4.48931 17.5624 4.5142 17.5666C4.52607 17.5689 4.53909 17.5709 4.55135 17.5724C4.55211 17.5724 4.55211 17.5724 4.55211 17.5724C4.57394 17.5754 4.59462 17.5789 4.61568 17.5812C4.62678 17.5827 4.63827 17.5843 4.64938 17.585C4.68078 17.5892 4.71218 17.5923 4.74358 17.5954C4.75468 17.5961 4.76617 17.5969 4.77727 17.5977C4.81595 17.6007 4.85462 17.6034 4.89292 17.6042C4.89292 17.6042 4.89368 17.6042 4.89445 17.6042C4.93695 17.6065 4.97984 17.6072 5.02235 17.6072C5.06753 17.6072 5.11233 17.6065 5.15752 17.6042C5.18585 17.6034 5.21304 17.6019 5.24099 17.5992H5.24406C5.25938 17.5984 5.27546 17.5969 5.29154 17.5961C5.30839 17.5946 5.326 17.5931 5.34285 17.5904C5.36123 17.5889 5.38153 17.5873 5.39991 17.5846C5.40297 17.5839 5.40718 17.5839 5.41025 17.5831C5.41829 17.5823 5.42556 17.5816 5.43361 17.5808C5.44663 17.5785 5.4585 17.5766 5.47152 17.5751C5.47956 17.5743 5.48836 17.5735 5.49641 17.572C5.50062 17.5712 5.50521 17.5705 5.51096 17.5697C5.51976 17.5689 5.52934 17.5674 5.53929 17.5647C5.56035 17.5617 5.58103 17.5575 5.60209 17.5544C5.61167 17.5521 5.62315 17.5502 5.63349 17.5479C5.66068 17.5421 5.68902 17.5368 5.71697 17.5303C5.7185 17.5303 5.71927 17.5303 5.72003 17.5295C5.73458 17.5272 5.74837 17.5238 5.76254 17.5207C5.77288 17.5176 5.7836 17.5142 5.79394 17.5119C5.79968 17.5104 5.80581 17.5088 5.81155 17.5069C5.82036 17.5061 5.8284 17.5027 5.83644 17.5004C5.87167 17.4924 5.90805 17.482 5.94404 17.4705C5.94634 17.4698 5.94902 17.469 5.95132 17.4682C5.96166 17.4652 5.97391 17.461 5.98502 17.4579C6.00838 17.4514 6.03097 17.4433 6.05433 17.4345C6.05662 17.4338 6.06007 17.4322 6.0639 17.4315C6.07041 17.4299 6.07577 17.4273 6.08228 17.4242C6.10143 17.4177 6.12019 17.4112 6.13934 17.4031C6.14661 17.4016 6.15465 17.3974 6.16269 17.3951C6.18031 17.3886 6.19716 17.3813 6.21516 17.3752C6.31969 17.3334 6.4227 17.286 6.52303 17.2312C6.8286 17.0673 7.13992 16.9191 7.4543 16.7882C7.82229 16.6327 8.19564 16.501 8.57282 16.3914Z" fill="url(#paint11_linear_13_528)"/>
<path opacity="0.07" d="M13.1251 15.9751C13.1235 15.9824 13.1208 15.9904 13.1193 15.9985C13.0975 16.0877 13.0741 16.1804 13.0492 16.2749C13.0362 16.3255 13.022 16.3779 13.0075 16.4308C12.9776 16.5361 12.9474 16.6437 12.9133 16.754C12.8964 16.8095 12.8796 16.865 12.8608 16.9213C12.8448 16.9726 12.8279 17.0259 12.8103 17.0779C12.7444 17.2774 12.6713 17.4831 12.5893 17.6933C12.5652 17.7561 12.5403 17.8197 12.5139 17.884C12.4856 17.9533 12.4568 18.0222 12.427 18.0923C12.3971 18.1624 12.3669 18.2321 12.3355 18.3021C12.3041 18.373 12.2711 18.4438 12.2374 18.5143C12.2045 18.5851 12.17 18.656 12.1344 18.7272C11.6029 19.7975 10.8528 20.9014 9.79361 21.8358L9.60559 18.7544C9.60559 18.7544 9.60483 18.7165 9.60712 18.6491C9.60712 18.6322 9.60789 18.6138 9.60942 18.5935C9.61019 18.571 9.61172 18.5468 9.6144 18.5212C9.61516 18.5051 9.6167 18.4882 9.61861 18.4706C9.61861 18.4656 9.61938 18.4603 9.62014 18.4545C9.62244 18.4289 9.62512 18.4013 9.62895 18.3726C9.62972 18.3646 9.63048 18.3565 9.63125 18.3485C9.63201 18.3469 9.63201 18.3443 9.63201 18.342C9.63508 18.3186 9.63852 18.2945 9.64235 18.2696C9.64542 18.2424 9.65039 18.2141 9.65537 18.185C9.66035 18.1593 9.66494 18.1317 9.67069 18.1046C9.67145 18.1015 9.67145 18.0973 9.67222 18.0942C9.67375 18.0839 9.67528 18.0732 9.67873 18.0628C9.68179 18.0452 9.68601 18.0276 9.68983 18.0088C9.69558 17.9816 9.70285 17.9525 9.70975 17.9242C9.71626 17.8951 9.7243 17.8664 9.73234 17.8365C9.74038 17.8066 9.74842 17.7772 9.758 17.7473C9.7668 17.7166 9.77638 17.686 9.7871 17.6558C9.79667 17.6259 9.80739 17.5964 9.8185 17.5658C9.8185 17.565 9.81926 17.5635 9.82003 17.5616C9.83458 17.5221 9.8499 17.4827 9.86598 17.4432C9.87096 17.4295 9.87708 17.4168 9.88283 17.403C9.88857 17.39 9.89508 17.3766 9.90044 17.3628C9.91576 17.3284 9.93261 17.2935 9.94946 17.2591C9.95903 17.238 9.96937 17.2181 9.98009 17.1978C9.98316 17.1905 9.98737 17.184 9.9912 17.1779C10.0073 17.148 10.0234 17.1185 10.041 17.0887C10.0578 17.0588 10.0754 17.0301 10.095 17.0002C10.1133 16.9711 10.1329 16.9424 10.1528 16.9133C10.1712 16.8861 10.1907 16.8593 10.2098 16.8336C10.2324 16.8038 10.2558 16.7743 10.2799 16.7452C10.3106 16.708 10.3427 16.672 10.3757 16.6357C10.3956 16.6138 10.4166 16.5931 10.4377 16.5721C10.4618 16.548 10.4867 16.5238 10.5124 16.5005C10.5139 16.4989 10.5166 16.4963 10.5181 16.4955V16.4947C10.53 16.4836 10.5422 16.4721 10.5552 16.4626C10.5698 16.4495 10.5843 16.4369 10.5997 16.4247C10.6173 16.4101 10.6341 16.3956 10.6529 16.3822C10.6728 16.3661 10.6939 16.35 10.7157 16.3347C10.7318 16.3224 10.7479 16.3113 10.7647 16.3002C10.7839 16.2864 10.8034 16.2738 10.8233 16.2608C10.8459 16.2455 10.8692 16.2309 10.8934 16.2175C10.911 16.2072 10.9286 16.1964 10.9474 16.1861C10.9657 16.1758 10.9845 16.1662 11.0029 16.1555C11.0408 16.1356 11.0791 16.116 11.1185 16.0984C11.1377 16.0888 11.158 16.08 11.1779 16.0712C11.2189 16.0536 11.2598 16.0368 11.3027 16.0207C11.3238 16.0126 11.3452 16.0046 11.3678 15.9973H11.3686C11.3736 15.995 11.3781 15.9931 11.3831 15.9916C11.3862 15.9908 11.3889 15.9893 11.3919 15.9885C11.395 15.9877 11.3977 15.987 11.4007 15.9862C11.4103 15.9824 11.4207 15.9789 11.4314 15.9759C11.4452 15.9709 11.4586 15.9671 11.4716 15.9629C11.5183 15.9483 11.5665 15.9349 11.6156 15.9226C11.6439 15.9154 11.6726 15.9089 11.7025 15.9027C11.7362 15.8947 11.7699 15.8874 11.8055 15.8809C11.8239 15.8778 11.8426 15.8744 11.8618 15.8713C11.8828 15.8671 11.9043 15.8641 11.9261 15.861C11.9935 15.8507 12.0636 15.8418 12.1352 15.8353C12.2646 15.8223 12.4006 15.8162 12.5438 15.817C12.5426 15.8173 12.6966 15.8085 13.1251 15.9751Z" fill="url(#paint12_linear_13_528)"/>
<path opacity="0.2" d="M13.4046 14.3343C13.4046 14.3343 13.3613 14.9952 13.1254 15.9747C13.1239 15.982 13.1212 15.9901 13.1197 15.9981C13.0979 16.0873 13.0745 16.18 13.0496 16.2746C13.0358 16.3251 13.0224 16.3776 13.0079 16.4304C12.9773 16.5357 12.9478 16.6433 12.9137 16.7536C12.8968 16.8091 12.88 16.8647 12.8616 16.921C12.8455 16.9723 12.8287 17.0255 12.8111 17.078C12.7452 17.2775 12.6713 17.4831 12.5901 17.6929C12.566 17.7557 12.5411 17.8193 12.5139 17.8836C12.4867 17.9529 12.4569 18.0219 12.427 18.0919C12.3979 18.162 12.3669 18.2317 12.3362 18.3018C12.3048 18.3726 12.2719 18.4435 12.2382 18.5139C12.2053 18.5848 12.1708 18.6556 12.1352 18.7268C11.6029 19.7971 10.8535 20.9011 9.79361 21.8358C9.46774 22.1253 9.11162 22.3979 8.7241 22.648C8.53915 22.7678 8.36071 22.898 8.18839 23.0363L4.72561 25.8427C4.14279 26.3156 3.41562 26.573 2.6647 26.573H0.503861C0.323886 26.573 0.149272 26.4868 0.0558388 26.3325C-0.0276388 26.1927 -0.0464021 26.0078 0.207094 25.8186C0.22624 25.8033 0.247301 25.7895 0.268362 25.7769C0.268362 25.7769 0.272191 25.7746 0.279467 25.7703C0.31393 25.7527 0.431488 25.6957 0.632523 25.6417C0.647075 25.6386 0.661626 25.6344 0.67656 25.6306C0.955712 25.5613 1.37961 25.5023 1.95476 25.5452C3.01891 25.6248 4.08114 25.3445 4.96608 24.7483C6.57743 23.6627 8.76393 21.8232 8.94314 19.7431C8.94314 19.7431 9.62168 20.6503 9.39269 21.4245C9.39269 21.4245 12.9669 17.0508 12.3454 14.3749C12.3665 14.4086 12.7042 14.9677 12.746 15.8174C12.746 15.8174 13.9104 13.0059 11.4731 11.6255C11.5103 11.6343 11.5486 11.6446 11.588 11.6561C11.6137 11.6634 11.6401 11.6714 11.6661 11.6795C11.6845 11.6852 11.7021 11.6906 11.7209 11.6971C11.856 11.7415 11.9958 11.7986 12.1348 11.869C12.8203 12.2186 13.4804 12.9217 13.4046 14.3343Z" fill="#380179"/>
<path d="M12.3722 21.5959L12.2799 24.3725L12.2083 24.8091C12.1739 25.0174 12.1432 25.2265 12.1279 25.4371C12.0804 26.0934 11.799 26.3787 11.524 26.4993C11.4049 26.5525 11.274 26.5732 11.1438 26.5732H6.99748C6.66702 26.5732 6.49662 26.1662 6.73786 25.941C6.73786 25.941 6.73862 25.941 6.73939 25.9402C6.79415 25.9211 7.95862 25.5221 8.78344 25.7874C8.78344 25.7874 11.179 26.1049 10.7777 23.946C10.7777 23.9463 10.1061 21.7962 12.3722 21.5959Z" fill="url(#paint13_linear_13_528)"/>
<path opacity="0.3" d="M19.7566 19.0956V22.0395C19.7566 22.0709 19.7558 22.1015 19.7558 22.1329C19.7566 22.1433 19.7558 22.154 19.7551 22.1643C19.7543 22.1264 19.7528 22.0889 19.7501 22.051C19.7486 22.0173 19.7451 21.9824 19.7421 21.9487C19.739 21.9208 19.7355 21.8924 19.7317 21.8645C19.7294 21.8411 19.7252 21.8178 19.7214 21.7944C19.7191 21.7753 19.7156 21.7557 19.7118 21.7358C19.7103 21.7263 19.7087 21.7155 19.7061 21.7052C19.7022 21.6826 19.6973 21.66 19.6915 21.6378C19.6877 21.616 19.6827 21.5953 19.677 21.5735C19.677 21.5719 19.6762 21.5693 19.6754 21.567C19.6689 21.5371 19.6609 21.5076 19.6521 21.4777C19.6417 21.4383 19.6302 21.3989 19.6176 21.3594C19.6 21.3016 19.5797 21.2445 19.5583 21.1875V21.1867C19.5357 21.1274 19.5115 21.0684 19.4851 21.0106C19.4706 20.9769 19.4552 20.9432 19.4384 20.9091C19.4246 20.8785 19.4093 20.8478 19.394 20.8176C19.3787 20.7869 19.3633 20.7575 19.3465 20.7276C19.3312 20.697 19.3143 20.6675 19.2967 20.6376C19.2806 20.6077 19.263 20.579 19.2454 20.5491C19.1929 20.4607 19.1378 20.3738 19.0788 20.2895C19.0597 20.2612 19.0394 20.2332 19.0195 20.2049C19.0003 20.1766 18.98 20.1486 18.9594 20.1214C18.9394 20.0942 18.9184 20.0667 18.8973 20.0395C18.8774 20.0123 18.8564 19.9855 18.8338 19.9591C18.8192 19.9391 18.8031 19.9189 18.7855 19.8989C18.7767 19.8871 18.7664 19.8741 18.7549 19.8618C18.7388 19.84 18.7204 19.8193 18.7028 19.7982L18.7005 19.7959C18.7005 19.7952 18.699 19.7944 18.6982 19.7936C18.6791 19.7687 18.6572 19.7446 18.6354 19.7205C18.6136 19.6948 18.5914 19.6692 18.568 19.6443C18.4547 19.5172 18.3363 19.3958 18.218 19.2801C18.1705 19.2327 18.1231 19.1879 18.0756 19.1434C18.0514 19.1208 18.0273 19.0982 18.004 19.0776C17.9549 19.0316 17.9052 18.9876 17.8569 18.9451C17.811 18.9049 17.7662 18.8654 17.7202 18.8275C17.6969 18.8065 17.6735 18.7873 17.6501 18.7682C17.6268 18.749 17.6042 18.7295 17.5808 18.7111C17.5575 18.692 17.5349 18.6732 17.5123 18.6556C17.4897 18.6372 17.4671 18.6184 17.4449 18.6016C17.2431 18.4415 17.0539 18.3033 16.8923 18.1907C16.874 18.1777 16.8563 18.1658 16.8391 18.1547C16.769 18.1065 16.7055 18.064 16.6484 18.0261C16.6193 18.0077 16.5929 17.9897 16.568 17.9747C16.5534 17.9644 16.5389 17.9556 16.5263 17.9476C16.5052 17.9338 16.486 17.9219 16.4684 17.9112C16.4428 17.8951 16.4217 17.8821 16.4041 17.871C16.3991 17.8679 16.3953 17.8652 16.3903 17.8629C16.3861 17.8599 16.383 17.8572 16.3792 17.8557C16.3229 17.8197 16.2666 17.7825 16.2111 17.7446C15.8944 17.5298 15.6042 17.3387 15.3361 17.1687C15.2879 17.1381 15.2404 17.1086 15.1937 17.0795C15.1726 17.0657 15.1519 17.053 15.1309 17.04C14.9275 16.9137 14.7384 16.7995 14.563 16.6985C14.5285 16.6774 14.4937 16.6583 14.46 16.6391C14.4263 16.62 14.3934 16.6004 14.3612 16.5828C14.0679 16.417 13.8174 16.2876 13.6053 16.1865C13.5812 16.1754 13.5578 16.1639 13.5352 16.1536C13.4694 16.1229 13.4066 16.0942 13.348 16.0689C13.3189 16.0559 13.2909 16.044 13.2634 16.0329C13.235 16.0218 13.2086 16.0103 13.1829 16C13.163 15.992 13.1435 15.9839 13.1244 15.9766C13.3599 14.9971 13.4035 14.3362 13.4035 14.3362C13.4797 12.9232 12.8188 12.2205 12.1337 11.8705C11.9947 11.7997 11.8546 11.7426 11.7198 11.6986C11.7014 11.6921 11.6834 11.6867 11.6658 11.681C11.6394 11.673 11.6126 11.6649 11.5869 11.6576C11.5475 11.6465 11.5096 11.6358 11.472 11.627C11.4261 11.6151 11.3805 11.6044 11.3361 11.5956C11.3162 11.5906 11.2967 11.5876 11.2775 11.5837C11.1833 11.5661 11.0968 11.5531 11.0217 11.5443C10.9011 11.5297 10.8096 11.5259 10.7606 11.5251C11.4353 11.496 14.5948 11.5654 14.236 15.421C14.2364 15.4191 17.847 16.9171 19.7566 19.0956Z" fill="url(#paint14_linear_13_528)"/>
<path opacity="0.3" d="M14.0207 16.3938C13.1208 19.829 11.0278 22.014 9.86482 23.0076L9.79321 21.8359C10.8531 20.9016 11.6025 19.7976 12.1348 18.7269C12.17 18.6553 12.2049 18.5845 12.2378 18.514C12.2715 18.4432 12.3044 18.3723 12.3358 18.3019C12.368 18.231 12.3986 18.1614 12.4266 18.092C12.458 18.022 12.4867 17.953 12.5135 17.8837C12.5407 17.8194 12.5656 17.7558 12.5897 17.693C12.6709 17.4832 12.7448 17.2772 12.8107 17.0781C12.8283 17.0256 12.8451 16.9728 12.8612 16.9211C12.8796 16.8648 12.8964 16.8092 12.9133 16.7537C12.947 16.6434 12.9768 16.5358 13.0075 16.4305C13.022 16.3773 13.0358 16.3252 13.0492 16.2747C13.0741 16.1797 13.0975 16.0874 13.1193 15.9982C13.1208 15.9902 13.1235 15.9821 13.125 15.9749C13.1442 15.9821 13.1637 15.9902 13.1836 15.9982C13.2093 16.0086 13.2357 16.02 13.264 16.0311C13.2905 16.0422 13.3188 16.0545 13.3483 16.0671C13.4069 16.092 13.4697 16.1211 13.5348 16.1518C13.5581 16.1621 13.5815 16.1736 13.6056 16.1847C13.7312 16.2444 13.8687 16.3134 14.0207 16.3938Z" fill="url(#paint15_linear_13_528)"/>
<path d="M21.9556 17.132V18.6415C21.8641 18.5274 21.7642 18.4171 21.6589 18.3118C21.1232 17.7761 20.4695 17.4031 19.7565 17.2159V17.1668C19.7565 16.8011 19.7293 16.4416 19.6761 16.0908C20.5086 16.2482 21.2867 16.6028 21.9556 17.132Z" fill="url(#paint16_linear_13_528)"/>
<path d="M21.9557 23.9053V25.4121C21.0382 26.1373 19.8752 26.5716 18.6127 26.5716H15.3939C16.4641 26.5452 17.4414 26.1423 18.198 25.4917H18.6131C19.9633 25.4917 21.171 24.871 21.9557 23.9053Z" fill="url(#paint17_linear_13_528)"/>
<path d="M8.57287 16.3914C8.5698 16.5016 8.561 16.6108 8.54645 16.7211C8.5407 16.7628 8.53458 16.8045 8.52807 16.8467C8.52807 16.8467 8.52807 16.8474 8.5273 16.8474C8.48786 17.0917 8.42774 17.3429 8.35192 17.5976H8.35115C7.90313 17.7569 7.46353 17.9522 7.03389 18.1831C7.02279 18.1896 7.01283 18.1953 7.00249 18.1991C6.81984 18.2949 6.63029 18.3768 6.43653 18.4461C6.42543 18.4503 6.41394 18.4534 6.40283 18.4572C6.3274 18.4837 6.25081 18.507 6.17346 18.5288C5.80279 18.6326 5.41604 18.6874 5.02201 18.6874C4.97606 18.6874 4.93125 18.6866 4.8853 18.6851C4.85888 18.6851 4.83284 18.6835 4.80719 18.6809C4.78957 18.6809 4.77272 18.6801 4.75511 18.6793C4.72524 18.6778 4.69499 18.6751 4.66512 18.6721C4.64674 18.6713 4.62798 18.6698 4.60883 18.6663C4.58624 18.6655 4.56365 18.6632 4.54144 18.6598C4.32125 18.6349 4.10222 18.5924 3.88855 18.5334L4.06776 17.4601C4.07963 17.4639 4.09265 17.4681 4.10567 17.472C4.11218 17.4743 4.11945 17.4769 4.12558 17.4785C4.13132 17.48 4.13668 17.4815 4.14243 17.4835C4.18838 17.4972 4.23471 17.5091 4.28143 17.5206C4.33274 17.5325 4.38597 17.5432 4.43843 17.5535C4.46409 17.5585 4.48898 17.5623 4.51387 17.5666C4.52574 17.5689 4.53876 17.5708 4.55101 17.5723C4.55178 17.5723 4.55178 17.5723 4.55178 17.5723C4.5736 17.5754 4.59428 17.5788 4.61534 17.5811C4.62645 17.5826 4.63793 17.5842 4.64904 17.5849C4.68044 17.5891 4.71184 17.5922 4.74324 17.5953C4.75434 17.596 4.76583 17.5968 4.77694 17.5976C4.81561 17.6006 4.85429 17.6033 4.89258 17.6041C4.89258 17.6041 4.89334 17.6041 4.89411 17.6041C4.93661 17.6064 4.9795 17.6071 5.02201 17.6071C5.06719 17.6071 5.11199 17.6064 5.15718 17.6041C5.18552 17.6033 5.2127 17.6018 5.24066 17.5991H5.24372C5.25904 17.5983 5.27512 17.5968 5.2912 17.596C5.30805 17.5945 5.32567 17.593 5.34251 17.5903C5.3609 17.5888 5.38119 17.5872 5.39957 17.5846C5.40263 17.5838 5.40685 17.5838 5.40991 17.583C5.41795 17.5823 5.42523 17.5815 5.43327 17.5807C5.44629 17.5784 5.45816 17.5765 5.47118 17.575C5.47922 17.5742 5.48803 17.5734 5.49607 17.5719C5.50028 17.5711 5.50488 17.5704 5.51062 17.5696C5.51943 17.5689 5.529 17.5673 5.53895 17.5646C5.56002 17.5616 5.58069 17.5574 5.60175 17.5543C5.61133 17.552 5.62282 17.5501 5.63315 17.5478C5.66034 17.542 5.68868 17.5367 5.71663 17.5302C5.71816 17.5302 5.71893 17.5302 5.7197 17.5294C5.73425 17.5271 5.74803 17.5237 5.7622 17.5206C5.77254 17.5175 5.78326 17.5141 5.7936 17.5118C5.79934 17.5103 5.80547 17.5087 5.81121 17.5068C5.82002 17.5061 5.82806 17.5026 5.8361 17.5003C5.87133 17.4923 5.90771 17.4819 5.94371 17.4704C5.946 17.4697 5.94868 17.4689 5.95098 17.4681C5.96132 17.4651 5.97357 17.4609 5.98468 17.4578C6.00804 17.4513 6.03063 17.4433 6.05399 17.4344C6.05629 17.4337 6.05973 17.4321 6.06356 17.4314C6.07007 17.4298 6.07543 17.4272 6.08194 17.4241C6.10109 17.4176 6.11985 17.4111 6.139 17.403C6.14627 17.4015 6.15431 17.3973 6.16236 17.395C6.17997 17.3885 6.19682 17.3812 6.21482 17.3751C6.31936 17.3334 6.42236 17.2859 6.52269 17.2311C6.82826 17.0672 7.13958 16.919 7.45396 16.7881C7.82234 16.6326 8.19569 16.5009 8.57287 16.3914Z" fill="url(#paint18_linear_13_528)"/>
<path d="M3.35328 11.7273C2.53075 12.2389 1.95484 13.1162 1.8591 14.1252L0.942383 13.2142C1.17175 12.4479 1.61288 11.7709 2.19608 11.2505C2.43885 11.0342 2.70575 10.8462 2.99218 10.6899C2.96384 10.9071 2.98414 11.092 3.03545 11.2505C3.0948 11.4347 3.19858 11.581 3.32073 11.6986C3.33145 11.7089 3.34179 11.7185 3.35328 11.7273Z" fill="url(#paint19_linear_13_528)"/>
<path d="M8.50041 16.9946C8.4625 17.1925 8.41195 17.3936 8.35145 17.5977H8.35068C7.90266 17.757 7.46306 17.9522 7.03342 18.1831C7.02232 18.1897 7.01236 18.1954 7.00202 18.1992C6.81937 18.295 6.62982 18.3769 6.43606 18.4462C6.42495 18.4504 6.41347 18.4535 6.40236 18.4573C6.32693 18.4837 6.25034 18.5071 6.17299 18.5289C5.80232 18.6327 5.41556 18.6875 5.02153 18.6875C4.97558 18.6875 4.93078 18.6867 4.88483 18.6852C4.85841 18.6852 4.83237 18.6836 4.80671 18.681C4.7891 18.681 4.77225 18.6802 4.75464 18.6794C4.72477 18.6779 4.69452 18.6752 4.66465 18.6721C4.64627 18.6714 4.62751 18.6698 4.60836 18.6664C4.58577 18.6656 4.56317 18.6633 4.54096 18.6599C4.32078 18.635 4.10175 18.5925 3.88808 18.5335C3.86549 18.527 3.84404 18.5205 3.82145 18.5144C3.68896 18.4757 3.56029 18.4309 3.43393 18.3807V18.3589C3.4121 18.3581 3.38989 18.3558 3.36807 18.3532C2.9032 18.1586 2.48504 17.886 2.12739 17.5532C1.23786 16.7292 0.717845 15.5379 0.768391 14.2586C0.782942 13.8975 0.842295 13.5471 0.943004 13.2139C1.17238 12.4477 1.61351 11.7707 2.1967 11.2503C2.43947 11.0339 2.70637 10.8459 2.9928 10.6897C2.96446 10.9068 2.98476 11.0918 3.03607 11.2503C3.03607 11.2503 -0.0173708 13.4031 2.06536 16.3911C2.06459 16.3914 3.87161 19.7256 8.50041 16.9946Z" fill="url(#paint20_radial_13_528)"/>
<path d="M23.971 21.3047C23.9661 22.7572 23.3622 24.074 22.3926 25.0271C22.2544 25.1631 22.1089 25.2917 21.9561 25.4124C21.6095 25.6865 21.2266 25.9197 20.8165 26.1024C20.1441 26.4037 19.3981 26.5719 18.6132 26.5719H15.3943C16.2746 26.55 17.0918 26.2736 17.7753 25.8137C23.2668 26.6339 23.3706 21.1378 23.3706 21.1378C23.1834 17.8442 20.6622 16.9731 19.7455 16.7648C19.7336 16.5373 19.7102 16.3122 19.6762 16.0908C20.5082 16.2486 21.2867 16.6032 21.9557 17.132C22.1181 17.2607 22.2731 17.3989 22.4221 17.5478C22.6296 17.7546 22.8177 17.9756 22.985 18.2088C23.6302 19.1044 23.9749 20.1774 23.971 21.3047Z" fill="url(#paint21_radial_13_528)"/>
<path opacity="0.2" d="M19.1688 24.3169C18.9145 24.7615 18.586 25.1589 18.1989 25.4917C17.4422 26.1423 16.465 26.5451 15.3947 26.5715H15.1952C14.2827 26.5474 13.4663 26.1342 12.9076 25.4917C12.6269 25.17 12.4098 24.7898 12.2796 24.3724L12.4018 20.6982C12.4018 20.6982 12.5737 24.5114 14.9245 24.3724C14.9245 24.3724 14.1065 25.0165 13.1255 24.4344C13.1561 24.4812 14.5224 26.4808 16.9306 25.0215C16.9306 25.0215 16.5366 25.7525 15.7478 25.9455C15.7481 25.9455 18.1403 25.7475 19.1688 24.3169Z" fill="#380179"/>
<path opacity="0.18" d="M19.7557 22.1643V22.1682C19.7565 22.1689 19.7565 22.1697 19.7557 22.1705C19.7565 22.1712 19.7565 22.172 19.7557 22.1735V22.2019L19.7542 22.2237C19.7339 22.9838 19.5233 23.6968 19.1687 24.3168C18.9145 24.7613 18.5859 25.1588 18.1988 25.4916C17.4421 26.1422 16.4649 26.545 15.3946 26.5714C15.3946 26.5714 17.8955 26.1816 19.0512 23.9652C20.2076 21.7489 18.1628 19.7806 18.1628 19.7806C16.4798 17.8733 14.1195 16.6744 13.0687 16.203C13.0871 16.1329 13.104 16.0647 13.12 15.9977C13.1216 15.9897 13.1242 15.9816 13.1258 15.9744C13.1449 15.9816 13.1645 15.9897 13.1844 15.9977C13.21 16.0081 13.2364 16.0196 13.2648 16.0307C13.2912 16.0418 13.3195 16.054 13.349 16.0667C13.4076 16.0915 13.4704 16.1206 13.5355 16.1513C13.5589 16.1616 13.5822 16.1731 13.6064 16.1842C13.7308 16.2436 13.8687 16.3129 14.0203 16.3933C14.1271 16.4503 14.2405 16.5124 14.3619 16.5805C14.394 16.5989 14.4277 16.6177 14.4599 16.6368C14.4944 16.656 14.5292 16.6763 14.5637 16.6962C14.7383 16.7977 14.9271 16.9118 15.1312 17.0377C15.1522 17.0508 15.1729 17.0634 15.194 17.0772C15.2407 17.1063 15.2874 17.1358 15.3364 17.1664C15.6041 17.336 15.8936 17.5275 16.2114 17.7423C16.2554 17.7722 16.3006 17.8024 16.3458 17.8338C16.3458 17.8338 16.3577 17.8404 16.3795 17.853C16.3837 17.8545 16.3868 17.8572 16.3898 17.8603C16.3948 17.8626 16.3994 17.8652 16.4044 17.8683C16.422 17.8794 16.4431 17.8924 16.4687 17.9085C16.4863 17.9196 16.5059 17.9319 16.5265 17.9449C16.5396 17.9529 16.5537 17.9617 16.5675 17.9721C16.5932 17.9874 16.6196 18.005 16.6479 18.0234C16.7057 18.0613 16.7685 18.1038 16.8386 18.1521C16.8555 18.1632 16.8738 18.1754 16.8926 18.1881C17.0534 18.3006 17.2434 18.4389 17.4452 18.5989C17.4678 18.6158 17.4904 18.6342 17.5126 18.6529C17.5352 18.6705 17.5578 18.6889 17.5807 18.7084C17.6041 18.7268 17.6267 18.7464 17.65 18.7655C17.6734 18.7847 17.6968 18.8042 17.7201 18.8249C17.7661 18.8628 17.8109 18.9022 17.8568 18.9424C17.9043 18.9849 17.9548 19.0293 18.0031 19.0749C18.0272 19.096 18.0513 19.1182 18.0755 19.1408C18.1222 19.1852 18.1704 19.2308 18.2179 19.2775C18.3362 19.3931 18.4542 19.5145 18.5679 19.6416C18.5913 19.6665 18.6139 19.6922 18.6353 19.7178C18.6571 19.742 18.6786 19.7661 18.6981 19.791C18.6989 19.7917 18.7004 19.7925 18.7004 19.7933L18.7019 19.7956C18.7203 19.8166 18.7391 19.8373 18.7552 19.8591C18.7655 19.871 18.777 19.884 18.7858 19.8963C18.8026 19.9162 18.8195 19.9365 18.834 19.9564C18.8566 19.9828 18.8773 20.0096 18.8976 20.0368C18.9187 20.064 18.9393 20.0916 18.9596 20.1188C18.9807 20.1459 19.0006 20.1743 19.0198 20.2022C19.0397 20.2306 19.06 20.2585 19.0791 20.2869C19.1377 20.3715 19.1932 20.458 19.2449 20.5465C19.2633 20.5764 19.2809 20.6051 19.297 20.6349C19.3138 20.6648 19.3299 20.6943 19.3468 20.7249C19.3636 20.7548 19.3789 20.7843 19.3943 20.8149C19.4088 20.8456 19.4249 20.8762 19.4383 20.9064C19.4551 20.9401 19.4705 20.9738 19.485 21.0079C19.5107 21.0657 19.5356 21.1243 19.5582 21.1841V21.1848C19.5792 21.2419 19.5991 21.2989 19.6175 21.3568C19.6298 21.3962 19.6416 21.4356 19.6512 21.4751C19.6608 21.5049 19.668 21.5344 19.6753 21.5643C19.6761 21.5666 19.6769 21.5693 19.6769 21.5708C19.6826 21.5926 19.6864 21.6133 19.6914 21.6351C19.6972 21.6577 19.7017 21.6803 19.706 21.7025C19.7083 21.7129 19.7102 21.7236 19.7117 21.7332C19.7159 21.7531 19.719 21.7726 19.7213 21.7918C19.7251 21.8151 19.7286 21.8385 19.7316 21.8618C19.7358 21.8898 19.7389 21.9181 19.742 21.9461C19.745 21.9798 19.7469 22.0135 19.75 22.0483C19.7523 22.0885 19.7542 22.1264 19.7557 22.1643Z" fill="white"/>
<path opacity="0.18" d="M8.94359 15.0991C9.23079 17.9844 7.79674 20.3348 7.79674 20.3348C5.58037 25.322 0.942383 25.5617 0.942383 25.5617C1.50145 25.4089 2.43234 25.1129 3.32188 24.645C4.04867 24.2613 4.74751 23.7627 5.19132 23.1332C5.19132 23.1332 7.58536 20.1747 8.35159 17.5977H8.35236C8.42779 17.3426 8.4883 17.0918 8.52697 16.8475C8.5285 16.8475 8.5285 16.8467 8.5285 16.8467C8.53501 16.805 8.54152 16.7633 8.54688 16.7211C8.56144 16.6109 8.57024 16.5017 8.57331 16.3914C8.57828 16.2482 8.57331 16.105 8.5645 15.9622C8.53961 15.5988 8.51242 14.846 8.63534 14.0613C8.64108 14.0242 8.64759 13.9874 8.65372 13.9503C8.66023 13.9132 8.66674 13.8764 8.67363 13.8392C8.68742 13.7638 8.70427 13.6872 8.72265 13.6118C8.72916 13.5819 8.73567 13.5532 8.74447 13.5241C8.75405 13.4816 8.7663 13.4399 8.77741 13.3977C8.79732 13.3246 8.82068 13.253 8.8448 13.1814C8.87046 13.1067 8.89803 13.0317 8.92751 12.9593C8.93785 12.9321 8.9501 12.9045 8.96198 12.8781C8.96427 12.8716 8.96695 12.8651 8.97002 12.859C8.98227 12.8325 8.99414 12.8057 9.00716 12.7801C9.05388 12.6798 9.10596 12.5833 9.16378 12.4906C9.17909 12.4634 9.19594 12.4366 9.21509 12.4109C9.23194 12.3853 9.24955 12.3596 9.26908 12.3336C9.3181 12.265 9.37285 12.1992 9.42991 12.1375C9.43565 12.131 9.44178 12.1237 9.44829 12.1176C9.46667 12.0985 9.48543 12.0797 9.50381 12.0613C9.50803 12.0571 9.51262 12.0525 9.51683 12.0483C9.53789 12.0284 9.55934 12.0081 9.58116 11.989C9.60605 11.9671 9.63018 11.9472 9.65507 11.9269C9.70485 11.8875 9.75731 11.8515 9.81015 11.8166C9.83504 11.8006 9.8607 11.7852 9.88674 11.7699C9.91316 11.7546 9.9415 11.7393 9.97098 11.7247C9.99587 11.7117 10.0215 11.6998 10.0476 11.6887C10.0587 11.683 10.0702 11.6784 10.0805 11.6742C10.082 11.6727 10.082 11.6727 10.0836 11.6727C10.1054 11.6631 10.1268 11.6543 10.1494 11.6462C10.1808 11.6332 10.2138 11.6229 10.2475 11.6118C10.249 11.611 10.2505 11.611 10.2532 11.6102C10.2582 11.6087 10.2643 11.6072 10.27 11.6053C10.2831 11.6003 10.2972 11.5972 10.311 11.5934C10.3152 11.5926 10.3206 11.5911 10.3248 11.5892C10.329 11.5884 10.3321 11.5877 10.3344 11.5869C10.3497 11.5838 10.3635 11.5796 10.3788 11.5765C10.3956 11.5723 10.4125 11.5685 10.4301 11.5654C10.5829 11.5356 10.7414 11.5268 10.8988 11.5348C8.70925 12.2122 8.94359 15.0991 8.94359 15.0991Z" fill="white"/>
<path d="M13.4046 14.3343C13.4046 14.3343 13.3613 14.9952 13.1254 15.9747C13.1239 15.982 13.1212 15.99 13.1197 15.9981C13.1147 16.0191 13.1094 16.0398 13.1036 16.0616C11.2131 16.8279 9.66841 16.2757 8.54337 15.4409C8.53916 15.0572 8.55639 14.5659 8.63489 14.0609C8.64064 14.0237 8.64715 13.9869 8.65327 13.9498C8.65978 13.9127 8.66629 13.8759 8.67318 13.8388C8.68697 13.7633 8.70382 13.6867 8.7222 13.6113C8.72871 13.5814 8.73522 13.5527 8.74403 13.5236C8.7536 13.4811 8.76585 13.4394 8.77696 13.3972C8.79687 13.3241 8.82023 13.2525 8.84435 13.1809C8.87001 13.1062 8.89758 13.0312 8.92706 12.9588C8.9374 12.9316 8.94966 12.904 8.96153 12.8776C8.96382 12.8711 8.9665 12.8646 8.96957 12.8585C8.98182 12.832 8.99369 12.8052 9.00671 12.7796C9.05343 12.6793 9.10551 12.5828 9.16333 12.4901C9.17865 12.4629 9.19549 12.4361 9.21464 12.4104C9.23149 12.3848 9.2491 12.3591 9.26863 12.3331C9.31765 12.2646 9.3724 12.1987 9.42946 12.137C9.4352 12.1305 9.44133 12.1233 9.44784 12.1171C9.46622 12.098 9.48498 12.0792 9.50336 12.0608C9.50758 12.0566 9.51217 12.052 9.51638 12.0478C9.53745 12.0279 9.55889 12.0076 9.58072 11.9885C9.60561 11.9666 9.62973 11.9467 9.65462 11.9264C9.7044 11.887 9.75686 11.851 9.8097 11.8161C9.83459 11.8001 9.86025 11.7847 9.88629 11.7694C9.91271 11.7541 9.94105 11.7388 9.97053 11.7242C9.99542 11.7112 10.0211 11.6994 10.0471 11.6883C10.0582 11.6825 10.0697 11.6779 10.08 11.6737C10.0816 11.6722 10.0816 11.6722 10.0831 11.6722C10.1049 11.6626 10.1264 11.6538 10.149 11.6457C10.1804 11.6327 10.2133 11.6224 10.247 11.6113C10.2485 11.6105 10.2501 11.6105 10.2527 11.6098C10.2577 11.6082 10.2639 11.6067 10.2696 11.6048C10.2826 11.5998 10.2968 11.5967 10.3106 11.5929C10.3148 11.5921 10.3201 11.5906 10.3244 11.5887C10.3286 11.5879 10.3316 11.5872 10.3339 11.5864C10.3492 11.5833 10.363 11.5791 10.3783 11.5761C10.3952 11.5718 10.412 11.568 10.4297 11.565C10.5824 11.5351 10.741 11.5263 10.8984 11.5343C10.9393 11.5351 10.9803 11.5385 11.0213 11.5424C11.0959 11.5512 11.1821 11.5642 11.2771 11.5818C11.2962 11.586 11.3157 11.5891 11.3357 11.5937C11.3801 11.6025 11.4249 11.6128 11.4708 11.6251H11.4716C11.5087 11.6339 11.547 11.6442 11.5865 11.6557C11.6121 11.663 11.6386 11.671 11.6646 11.6791C11.683 11.6848 11.7006 11.6902 11.7193 11.6967C11.8545 11.7411 11.9943 11.7982 12.1333 11.8686C12.8203 12.2186 13.4804 12.9217 13.4046 14.3343Z" fill="url(#paint22_radial_13_528)"/>
<path opacity="0.2" d="M13.4046 14.3346C13.4046 14.3346 13.3613 14.9955 13.1254 15.9751C13.1239 15.9823 13.1216 15.9904 13.1197 15.9984C13.1147 16.0195 13.1094 16.0402 13.1036 16.062C13.0868 16.1313 13.0691 16.2025 13.0496 16.2749C13.0358 16.3254 13.0224 16.3779 13.0079 16.4307C12.9772 16.536 12.9478 16.6437 12.9137 16.7539C12.8968 16.8095 12.88 16.865 12.8616 16.9213C12.8455 16.9726 12.8287 17.0258 12.8111 17.0783C12.7452 17.2778 12.6713 17.4834 12.5901 17.6932C12.566 17.756 12.5411 17.8196 12.5135 17.8839C12.4863 17.9533 12.4565 18.0222 12.4266 18.0923C12.3975 18.1623 12.3665 18.232 12.3358 18.3021C12.3044 18.3729 12.2715 18.4438 12.2378 18.5142C12.2049 18.5851 12.1704 18.6559 12.1348 18.7271C11.6025 19.7974 10.8532 20.9014 9.79323 21.8361C9.53284 22.0678 9.25369 22.288 8.95386 22.4947L9.60521 21.8361C12.8371 18.7593 13.2392 14.6881 13.2392 14.6881C13.549 12.3771 11.8377 11.7369 11.6784 11.6829C11.6929 11.6871 11.7067 11.6917 11.7209 11.6966C11.856 11.7411 11.9958 11.7981 12.1348 11.8686C12.8199 12.219 13.48 12.922 13.4046 14.3346Z" fill="white"/>
<path opacity="0.18" d="M8.44036 25.715C6.71145 25.8567 7.29848 26.5724 7.29848 26.5724L7.29771 26.5739H6.99712C6.66665 26.5739 6.49625 26.1669 6.73749 25.9417C6.73749 25.9417 6.73826 25.9417 6.73902 25.9409C6.92627 25.7663 7.29809 25.5921 7.99732 25.4673C7.99732 25.4673 9.91692 25.1142 9.91692 23.859L9.88399 23.3217L9.86484 23.0081L9.79323 21.8364C9.88743 21.7529 9.97972 21.6683 10.0689 21.5833L10.1934 23.5871C10.5085 25.2214 8.44036 25.715 8.44036 25.715Z" fill="white"/>
<path d="M19.7554 22.1649V22.1688C19.7562 22.1695 19.7562 22.1703 19.7554 22.1711C19.7562 22.1718 19.7562 22.1726 19.7554 22.1741V22.2025L19.7539 22.2243C19.7336 22.984 19.523 23.6974 19.1684 24.3174C19.0126 24.5915 18.8276 24.8473 18.6166 25.0805C14.666 24.7508 12.4232 22.603 11.1526 20.3457C11.1526 20.3457 11.1526 20.3457 11.1526 20.3449C11.3418 20.0876 11.5153 19.8272 11.6738 19.5649C11.8434 19.2865 11.9962 19.0062 12.1345 18.7278C12.1697 18.6562 12.2045 18.5854 12.2375 18.5149C12.2712 18.4441 12.3041 18.3732 12.3355 18.3028C12.3677 18.2319 12.3983 18.1622 12.4263 18.0929C12.4577 18.0228 12.4864 17.9539 12.5132 17.8846C12.5404 17.8203 12.5653 17.7567 12.5898 17.6939C12.6709 17.4841 12.7448 17.2781 12.8107 17.0789C12.8283 17.0265 12.8452 16.9736 12.8613 16.9219C12.8796 16.8656 12.8965 16.8101 12.9133 16.7546C12.947 16.6443 12.9769 16.5367 13.0075 16.4314C13.0221 16.3782 13.0359 16.3261 13.0493 16.2756C13.0558 16.2514 13.0623 16.2273 13.0677 16.2039C13.086 16.1339 13.1029 16.0657 13.119 15.9987C13.1205 15.9907 13.1228 15.9826 13.1247 15.9753C13.1439 15.9826 13.1634 15.9907 13.1833 15.9987C13.209 16.009 13.2354 16.0205 13.2637 16.0316C13.2901 16.0427 13.3185 16.055 13.3483 16.0676C13.4069 16.0925 13.4697 16.1216 13.5348 16.1523C13.5582 16.1626 13.5815 16.1741 13.6057 16.1852C13.7305 16.2445 13.868 16.3138 14.0196 16.3943C14.1264 16.4513 14.2398 16.5134 14.3612 16.5815C14.3933 16.5999 14.427 16.6187 14.4592 16.6378C14.4937 16.6569 14.5285 16.6772 14.563 16.6972C14.7376 16.7986 14.9264 16.9127 15.1309 17.0387C15.1519 17.0517 15.1726 17.0644 15.1937 17.0782C15.2404 17.1073 15.2871 17.1368 15.3361 17.1674C15.6038 17.337 15.8933 17.5285 16.2111 17.7433C16.2555 17.7732 16.3003 17.8034 16.3455 17.8348C16.3455 17.8348 16.3574 17.8413 16.3792 17.854C16.383 17.8555 16.3865 17.8582 16.3895 17.8612C16.3945 17.8635 16.3991 17.8662 16.4041 17.8693C16.4217 17.8804 16.4428 17.8934 16.4684 17.9095C16.486 17.9206 16.5056 17.9329 16.5262 17.9459C16.5393 17.9539 16.5534 17.9627 16.5672 17.9731C16.5929 17.9884 16.6193 18.006 16.6476 18.0244C16.7054 18.0623 16.7682 18.1048 16.8383 18.153C16.8552 18.1641 16.8735 18.1764 16.8923 18.189C17.0531 18.3016 17.2431 18.4398 17.4449 18.5999C17.4675 18.6168 17.4901 18.6351 17.5123 18.6539C17.5349 18.6715 17.5574 18.6899 17.5808 18.7094C17.6042 18.7278 17.6268 18.7473 17.6501 18.7665C17.6735 18.7856 17.6968 18.8052 17.7202 18.8258C17.7661 18.8637 17.8109 18.9032 17.8569 18.9434C17.9044 18.9859 17.9549 19.0303 18.0032 19.0759C18.0273 19.0969 18.0514 19.1192 18.0755 19.1417C18.1223 19.1862 18.1705 19.2317 18.218 19.2785C18.3363 19.3941 18.4543 19.5155 18.568 19.6426C18.5913 19.6675 18.6139 19.6932 18.6354 19.7188C18.6572 19.7429 18.6787 19.7671 18.6982 19.792C18.6989 19.7927 18.7005 19.7935 18.7005 19.7942L18.702 19.7965C18.7204 19.8176 18.7392 19.8383 18.7552 19.8601C18.7656 19.872 18.7771 19.885 18.7859 19.8973C18.8027 19.9172 18.8196 19.9375 18.8341 19.9574C18.8567 19.9838 18.8774 20.0106 18.8977 20.0378C18.9187 20.065 18.9394 20.0925 18.9597 20.1197C18.9808 20.1469 19.0007 20.1753 19.0198 20.2032C19.0398 20.2315 19.06 20.2595 19.0792 20.2878C19.1378 20.3725 19.1933 20.459 19.245 20.5475C19.2634 20.5773 19.2814 20.606 19.2971 20.6359C19.3139 20.6658 19.33 20.6953 19.3469 20.7259C19.3637 20.7558 19.379 20.7853 19.3943 20.8159C19.4089 20.8465 19.425 20.8772 19.4388 20.9074C19.4556 20.9411 19.4709 20.9748 19.4855 21.0089C19.5111 21.0667 19.536 21.1253 19.5586 21.185V21.1858C19.5797 21.2429 19.5996 21.2999 19.618 21.3577C19.6298 21.3972 19.6421 21.4366 19.6517 21.4761C19.6612 21.5059 19.6685 21.5354 19.6758 21.5653C19.6766 21.5676 19.6773 21.5703 19.6773 21.5718C19.6831 21.5936 19.6869 21.6143 19.6919 21.6361C19.6976 21.6587 19.7022 21.6813 19.7064 21.7035C19.7087 21.7139 19.7103 21.7246 19.7122 21.7341C19.716 21.7544 19.7194 21.7736 19.7217 21.7927C19.7256 21.8161 19.729 21.8395 19.7321 21.8628C19.7359 21.8908 19.7394 21.9191 19.7424 21.9471C19.7455 21.9808 19.7474 22.0144 19.7505 22.0493C19.7524 22.0891 19.7539 22.127 19.7554 22.1649Z" fill="url(#paint23_radial_13_528)"/>
<path d="M7.08558 9.08833C6.98334 9.28898 6.74822 9.60987 6.22821 9.85303C6.14052 9.894 6.05743 9.9434 5.98467 10.007C5.85371 10.1211 5.6902 10.3125 5.7262 10.5335C5.73922 10.6131 5.78134 10.6844 5.83725 10.7422C6.01645 10.9275 6.58663 11.5693 6.23472 11.9059L6.23396 11.9051C6.24927 11.8818 6.26114 11.8569 6.2711 11.8297C6.2734 11.8224 6.27608 11.8159 6.27761 11.8086C6.27914 11.8036 6.27991 11.7991 6.28067 11.7941C6.29293 11.7458 6.29522 11.6918 6.28565 11.6302C6.28412 11.6133 6.28067 11.5957 6.27608 11.5777C6.2711 11.5593 6.2665 11.5406 6.25999 11.5214C6.2577 11.5126 6.25425 11.5038 6.25119 11.4942C6.24889 11.487 6.24544 11.4789 6.24238 11.4717C6.23664 11.4579 6.23127 11.4445 6.22477 11.4299C6.21826 11.4161 6.21175 11.4035 6.20485 11.3905C6.19834 11.3775 6.19107 11.3656 6.18379 11.3545C6.17881 11.3464 6.17422 11.3384 6.16848 11.3304C6.16043 11.3185 6.15239 11.3062 6.14359 11.2951C6.14359 11.2944 6.14282 11.2936 6.14205 11.2928C6.13248 11.279 6.12099 11.2656 6.10989 11.2519C6.10108 11.24 6.09074 11.2285 6.07925 11.2182C6.07542 11.2124 6.06968 11.2071 6.06394 11.2013C6.04632 11.1829 6.02756 11.1661 6.00841 11.1492C5.95863 11.1083 5.8943 11.0512 5.83227 10.9827C5.82423 10.9739 5.81695 10.9658 5.80967 10.957C5.79666 10.9424 5.78555 10.9279 5.77368 10.913C5.76487 10.9019 5.75607 10.8896 5.74726 10.8777C5.74419 10.8747 5.74151 10.8705 5.73922 10.8674C5.73845 10.8659 5.73692 10.8643 5.73615 10.8624C5.72811 10.8513 5.72007 10.8398 5.7128 10.828C5.70552 10.8176 5.69901 10.8061 5.69288 10.795C5.68561 10.7847 5.67986 10.7732 5.67374 10.7613C5.64234 10.702 5.61745 10.6376 5.60443 10.5706C5.6006 10.5538 5.59792 10.5362 5.59639 10.5186C5.59409 10.5009 5.59332 10.4826 5.59332 10.4638C5.59332 10.4163 5.59983 10.3681 5.61438 10.3183C5.62013 10.2991 5.6274 10.2788 5.63544 10.2589C5.63851 10.2524 5.64119 10.2459 5.64425 10.2398C5.64655 10.2333 5.65 10.226 5.65382 10.2199C5.65689 10.2134 5.66033 10.2061 5.66416 10.2C5.66914 10.1912 5.67374 10.1823 5.67948 10.1735C5.68025 10.172 5.68101 10.1712 5.68178 10.1693C5.6948 10.1494 5.7082 10.1291 5.72352 10.1092C5.73156 10.0989 5.7396 10.0893 5.74841 10.0786C5.76526 10.0587 5.78478 10.0376 5.8047 10.0173C5.81504 10.007 5.82576 9.99739 5.83686 9.98667C5.85141 9.97288 5.8675 9.95948 5.88358 9.9457C5.8989 9.93268 5.91498 9.92004 5.93183 9.90702C5.95021 9.894 5.96974 9.8806 5.98888 9.86681C6.00726 9.85379 6.02679 9.84116 6.04671 9.82814C6.04747 9.82737 6.04824 9.82737 6.04977 9.82661C6.07083 9.81282 6.09227 9.80019 6.11487 9.78717C6.13018 9.77759 6.14627 9.76879 6.16235 9.75998C6.16809 9.75691 6.17422 9.75347 6.18073 9.75041C6.19375 9.74313 6.20715 9.73585 6.22094 9.72934C6.23472 9.72207 6.24812 9.71479 6.26191 9.70828C6.28833 9.6945 6.3159 9.68186 6.34385 9.66884C6.34615 9.66808 6.34883 9.66654 6.35113 9.66463C6.56825 9.5643 6.75971 9.41228 6.89067 9.21431C6.92207 9.16683 6.95079 9.11552 6.9753 9.06229C6.98104 9.05118 6.98564 9.0397 6.98985 9.02859C6.99368 9.01902 6.99789 9.00868 7.00172 8.99796C7.00402 8.98992 7.00746 8.98188 7.00976 8.97307C7.01474 8.95775 7.01933 8.94167 7.02278 8.92635C7.02699 8.91333 7.02929 8.9007 7.03159 8.88768C7.03389 8.87312 7.03657 8.85857 7.03733 8.84517C7.05265 8.70043 7.009 8.55262 6.86042 8.42127C6.8363 8.39945 6.80911 8.37877 6.77847 8.35847C6.75856 8.34469 6.73674 8.33129 6.71338 8.31827C6.69002 8.30448 6.66589 8.29184 6.63947 8.27959C6.61382 8.26657 6.58625 8.2547 6.55753 8.24245C6.54298 8.2367 6.52766 8.23058 6.51234 8.22483C6.48171 8.21296 6.44954 8.20147 6.41584 8.19114C6.399 8.18539 6.38138 8.1808 6.36377 8.17505C6.32854 8.16471 6.29139 8.15399 6.25195 8.14442C6.23281 8.13944 6.21251 8.13485 6.1926 8.12987H6.16771L6.17498 8.12183C6.17498 8.12183 7.00172 8.12757 7.14225 8.66979C7.17748 8.80956 7.15144 8.95852 7.08558 9.08833Z" fill="url(#paint24_radial_13_528)"/>
<path opacity="0.3" d="M8.83367 13.2123C8.81989 13.2533 8.80725 13.2958 8.795 13.3379C8.78849 13.3578 8.78275 13.3781 8.77738 13.398C8.76551 13.4398 8.75403 13.4815 8.74369 13.5244C8.73565 13.5535 8.72837 13.5822 8.72186 13.6121C8.70348 13.6875 8.6874 13.7641 8.67285 13.8395C8.66557 13.8767 8.65906 13.9134 8.65293 13.9506C8.64642 13.9877 8.63991 14.0245 8.63455 14.0616C8.49555 13.6733 8.06361 13.0285 6.73027 13.0178C6.48405 13.0155 6.23821 13.0009 5.9962 12.96C5.47849 12.873 4.68545 12.677 4.31708 12.2581C4.75131 12.4357 5.66804 12.7275 6.7609 12.5839C6.76052 12.5835 8.0169 12.5318 8.83367 13.2123Z" fill="url(#paint25_linear_13_528)"/>
<path d="M7.03733 8.84374C7.03656 8.85752 7.03426 8.87208 7.03158 8.88624C7.02929 8.89926 7.02661 8.9119 7.02278 8.92492C7.01971 8.94024 7.01474 8.95632 7.00976 8.97164C7.00746 8.98044 7.00401 8.98848 7.00172 8.99653C6.99789 9.00687 6.99367 9.01759 6.98985 9.02716C6.98602 9.03827 6.98104 9.04975 6.97529 9.06086C6.95117 9.11408 6.92207 9.1654 6.89105 9.21288C6.76009 9.41085 6.56863 9.56249 6.35151 9.6632C6.34921 9.66473 6.34653 9.66626 6.34423 9.66741C6.31628 9.68043 6.28871 9.69307 6.26229 9.70685C6.2485 9.71336 6.2351 9.72064 6.22132 9.72791C6.20753 9.73442 6.19413 9.7417 6.18111 9.74897C6.1746 9.75204 6.16809 9.75548 6.16273 9.75855C6.14665 9.76735 6.13056 9.77616 6.11525 9.78573C6.09265 9.79875 6.07083 9.81139 6.05015 9.82518C6.04862 9.82594 6.04785 9.82594 6.04708 9.82671C6.02717 9.83973 6.00764 9.85236 5.98926 9.86538C5.97012 9.87917 5.95059 9.89257 5.93221 9.90559C5.91536 9.91861 5.89928 9.93125 5.88396 9.94427C5.86788 9.95805 5.85179 9.97145 5.83724 9.98524C5.82614 9.99558 5.81542 10.0052 5.80508 10.0159C5.78516 10.0358 5.76564 10.0568 5.74879 10.0771C5.73998 10.0875 5.73194 10.0971 5.7239 10.1078C5.70858 10.1277 5.69479 10.148 5.68216 10.1679C5.68139 10.1694 5.68063 10.1702 5.67986 10.1721C5.67412 10.1809 5.66952 10.1897 5.66454 10.1985C5.66071 10.205 5.65727 10.2123 5.6542 10.2184C5.65038 10.2249 5.64693 10.2322 5.64463 10.2384C5.64157 10.2449 5.63889 10.2514 5.63582 10.2575C5.62778 10.2774 5.62051 10.2977 5.61476 10.3169C5.60021 10.3666 5.5937 10.4149 5.5937 10.4624C5.5937 10.4807 5.59447 10.4995 5.59677 10.5171C5.5983 10.5347 5.60059 10.5523 5.60481 10.5692C5.61783 10.6358 5.64272 10.7002 5.67412 10.7599C5.68063 10.7718 5.68599 10.7833 5.69326 10.7936C5.69977 10.8047 5.70628 10.8162 5.71317 10.8265C5.72045 10.8384 5.72849 10.8499 5.73653 10.861C5.7373 10.8625 5.73883 10.864 5.7396 10.866C5.74189 10.869 5.74457 10.8732 5.74764 10.8763C5.75645 10.8886 5.76525 10.9004 5.77406 10.9115C5.78593 10.9268 5.79742 10.9414 5.81044 10.9556C5.81771 10.9644 5.82499 10.9724 5.83303 10.9812C5.89506 11.0494 5.95939 11.1068 6.00918 11.1478C6.02832 11.1646 6.04709 11.1815 6.0647 11.1999C6.08078 11.216 6.0961 11.2328 6.11065 11.2504C6.12176 11.2642 6.13248 11.2776 6.14282 11.2914C6.14358 11.2922 6.14435 11.2929 6.14435 11.2937C6.15316 11.3048 6.1612 11.317 6.16924 11.3289C6.17498 11.337 6.17958 11.345 6.18455 11.353C6.19183 11.3641 6.19911 11.3764 6.20562 11.389C6.21289 11.4021 6.2194 11.4147 6.22553 11.4285C6.23204 11.443 6.2374 11.4564 6.24314 11.4702C6.24965 11.4871 6.25501 11.5039 6.26076 11.52C6.26727 11.5391 6.27186 11.5579 6.27684 11.5763C6.28067 11.5939 6.28412 11.6115 6.28641 11.6288C6.29599 11.6908 6.29369 11.7444 6.28143 11.7926C6.28067 11.7976 6.2799 11.8022 6.27837 11.8072C6.27684 11.8145 6.27454 11.821 6.27186 11.8283C6.26229 11.8554 6.25004 11.8815 6.23472 11.9045C6.22515 11.9198 6.21366 11.9343 6.20179 11.9477C6.14933 12.009 6.0804 12.05 6.01607 12.0779C6.00496 12.0829 5.99348 12.0875 5.98237 12.0909C5.90196 12.12 5.81656 12.1327 5.73002 12.1327H4.23585C4.23585 12.1327 4.23202 12.1319 4.22398 12.1304C4.22398 12.1304 4.22168 12.1304 4.21747 12.1296C4.21441 12.1288 4.21173 12.1281 4.20866 12.1281C4.13629 12.1151 3.92798 12.0695 3.70282 11.9584L5.00706 8.12767L5.00936 8.11963L6.19221 8.12767C6.21213 8.13265 6.23242 8.13724 6.25157 8.14222C6.29101 8.15179 6.32815 8.16213 6.36338 8.17286C6.38099 8.1786 6.39861 8.18319 6.41546 8.18894C6.44916 8.20004 6.48132 8.21153 6.51196 8.22264C6.52727 8.22838 6.54259 8.23489 6.55714 8.24025C6.58624 8.2525 6.61343 8.26437 6.63909 8.27739C6.66551 8.29041 6.68963 8.30305 6.71299 8.31607C6.73635 8.32909 6.75818 8.34249 6.77809 8.35628C6.80872 8.37619 6.83591 8.39801 6.86003 8.41908C7.00899 8.5508 7.05264 8.69899 7.03733 8.84374Z" fill="url(#paint26_linear_13_528)"/>
<path d="M5.47647 8.1288L4.3522 12.1342H4.23541C4.23541 12.1342 4.23158 12.1334 4.22354 12.1319C4.22354 12.1319 4.22278 12.1319 4.22048 12.1311H4.21741C4.21435 12.1304 4.21167 12.1296 4.20861 12.1296C4.13623 12.1166 3.92792 12.071 3.70276 11.96C3.58521 11.9029 3.46305 11.8275 3.35392 11.7283C3.34281 11.7195 3.33209 11.7099 3.32175 11.6992C3.1996 11.5816 3.09583 11.4354 3.03647 11.2512C2.98516 11.0926 2.96487 10.9077 2.9932 10.6906C3.00048 10.6293 3.01235 10.5669 3.02767 10.5006C3.02767 10.5006 3.14599 9.69649 3.75944 9.41198C4.0248 9.28906 4.24498 9.08228 4.37441 8.81921C4.50959 8.54427 4.5877 8.23717 4.34378 8.12842H5.47647V8.1288Z" fill="url(#paint27_radial_13_528)"/>
<path d="M3.1234 10.5382C3.11497 10.6059 3.1031 10.673 3.09238 10.7403C2.92849 11.7608 4.14811 12.1108 4.22048 12.1311H4.21741C4.21435 12.1304 4.21167 12.1296 4.20861 12.1296C4.13623 12.1166 3.92792 12.071 3.70276 11.96C3.58521 11.9029 3.46305 11.8275 3.35392 11.7283C3.34281 11.7195 3.33209 11.7099 3.32175 11.6992C3.1996 11.5816 3.09583 11.4354 3.03647 11.2512C2.98516 11.0926 2.96487 10.9077 2.9932 10.6906C3.00048 10.6293 3.01235 10.5669 3.02767 10.5006C3.02767 10.5006 3.14599 9.69649 3.75944 9.41198C4.0248 9.28906 4.24498 9.08228 4.37441 8.81921C4.50959 8.54427 4.5877 8.23717 4.34378 8.12842H4.72402C5.01658 9.07233 3.98115 9.44951 3.98115 9.44951C3.29342 9.65552 3.1525 10.3027 3.1234 10.5382Z" fill="url(#paint28_radial_13_528)"/>
<path d="M14.005 10.1277C12.2175 11.7425 10.0857 9.67007 10.0857 9.67007C7.07249 6.78244 5.22067 7.51995 4.44065 8.12842H4.37134C4.22966 8.12842 4.08989 8.07443 3.99761 7.96682C3.85937 7.80676 3.79963 7.51344 4.30969 7.02751C4.56625 6.78244 4.86685 6.58753 5.19348 6.44853C5.2199 6.43742 5.24824 6.42593 5.27696 6.41406C7.10083 5.68383 9.17781 6.34246 10.3155 7.94347C10.4338 8.1108 10.5487 8.29231 10.6548 8.49028C11.0545 9.24043 11.7534 9.79682 12.5862 9.96339C12.6249 9.97143 12.6643 9.97871 12.7045 9.98522C12.7053 9.98522 12.7053 9.98522 12.7061 9.98522C12.7076 9.98599 12.7103 9.98599 12.7118 9.98599H12.7141C12.9458 9.9902 13.174 10.0051 13.3992 10.0319C13.6037 10.0553 13.8055 10.0875 14.005 10.1277Z" fill="url(#paint29_radial_13_528)"/>
<path d="M11.1189 11.5558C11.0844 11.5508 11.0522 11.5462 11.0216 11.5428C10.901 11.5282 10.8094 11.5244 10.7604 11.5236H10.7532C10.7332 11.5229 10.7218 11.5229 10.7218 11.5229C10.6927 11.5252 10.6639 11.5278 10.6348 11.5317C10.564 11.5397 10.4958 11.55 10.4296 11.5654C10.412 11.5684 10.3951 11.5726 10.3783 11.5765C10.3637 11.5795 10.3492 11.5837 10.3339 11.5868C10.3316 11.5876 10.3281 11.5883 10.325 11.5891C10.3201 11.5906 10.3155 11.5922 10.3105 11.5933C10.2967 11.5971 10.2833 11.6006 10.2695 11.6052C10.2638 11.6067 10.2577 11.6083 10.2527 11.6102C10.2504 11.6109 10.2485 11.6109 10.2469 11.6117C10.2132 11.6228 10.1811 11.6335 10.1489 11.6462C10.1263 11.6542 10.1049 11.663 10.083 11.6726C10.0823 11.6726 10.0815 11.6726 10.0807 11.6741C10.0696 11.6783 10.0582 11.6829 10.047 11.6887C10.0206 11.6998 9.99573 11.712 9.97046 11.7247C9.94136 11.7392 9.9134 11.7538 9.88622 11.7698C9.8598 11.7844 9.83491 11.8005 9.80963 11.8166C9.75641 11.851 9.70433 11.8874 9.65455 11.9268C9.62966 11.9468 9.60553 11.9671 9.58141 11.9889C9.55882 12.008 9.53699 12.0276 9.51631 12.0482C9.51248 12.0524 9.5075 12.057 9.50329 12.0613C9.48415 12.0789 9.46538 12.0984 9.44777 12.1175C9.44126 12.1241 9.43475 12.1313 9.42939 12.1375C9.37157 12.1995 9.31834 12.2646 9.26856 12.3335C9.25018 12.3592 9.23142 12.3848 9.21457 12.4109C9.19619 12.4365 9.17934 12.4629 9.16326 12.4905C9.10543 12.5828 9.05297 12.6793 9.00664 12.78C8.99285 12.8057 8.98098 12.8325 8.9695 12.8589C8.96643 12.8654 8.96375 12.8719 8.96145 12.878C8.94958 12.9045 8.93733 12.932 8.92699 12.9592C8.89712 13.0316 8.86994 13.1063 8.84428 13.1813C8.84122 13.1916 8.837 13.2012 8.83394 13.2119C8.82016 13.2529 8.80752 13.2954 8.79527 13.3375C8.78876 13.3575 8.78301 13.3777 8.77765 13.3977C8.76578 13.4394 8.75429 13.4811 8.74395 13.524C8.73591 13.5531 8.72864 13.5818 8.72213 13.6117C8.70375 13.6872 8.68766 13.7637 8.67311 13.8392C8.66584 13.8763 8.65933 13.9131 8.6532 13.9502C8.64669 13.9874 8.64018 14.0241 8.63482 14.0613C8.49582 13.673 8.06388 13.0281 6.73054 13.0174C6.48431 13.0151 6.23848 13.0006 5.99647 12.9596C5.47875 12.8727 4.68572 12.6766 4.31734 12.2577C4.28135 12.2175 4.24995 12.1757 4.22314 12.1313C4.23119 12.1329 4.2354 12.1336 4.2354 12.1336H5.72957C5.81649 12.1336 5.9015 12.1206 5.98192 12.0919C5.99302 12.0888 6.00451 12.0838 6.01562 12.0789C6.07995 12.0509 6.14926 12.0096 6.20133 11.9487C6.2132 11.9349 6.22469 11.9203 6.23426 11.9054V11.9046C6.24958 11.8813 6.26145 11.8564 6.27141 11.8292C6.27371 11.8219 6.27639 11.8154 6.27792 11.8081C6.27945 11.8032 6.28022 11.7986 6.28098 11.7936C6.29324 11.7453 6.29553 11.6913 6.28596 11.6297C6.28443 11.6128 6.28098 11.5952 6.27639 11.5772C6.27141 11.5589 6.26681 11.5401 6.2603 11.5209C6.25801 11.5121 6.25456 11.5033 6.2515 11.4938C6.2492 11.4865 6.24575 11.4784 6.24269 11.4712C6.23695 11.4574 6.23158 11.444 6.22508 11.4294C6.21857 11.4156 6.21206 11.403 6.20516 11.39C6.19865 11.377 6.19138 11.3651 6.1841 11.354C6.17912 11.3459 6.17453 11.3379 6.16878 11.3299C6.16074 11.318 6.1527 11.3057 6.14389 11.2946C6.14389 11.2939 6.14313 11.2931 6.14236 11.2923C6.13279 11.2786 6.1213 11.2652 6.1102 11.2514C6.10139 11.2395 6.09105 11.228 6.07956 11.2177C6.07573 11.2119 6.06999 11.2066 6.06425 11.2008C6.04663 11.1824 6.02787 11.1656 6.00872 11.1487C5.95894 11.1078 5.89461 11.0507 5.83258 10.9822C5.82454 10.9734 5.81726 10.9653 5.80998 10.9565C5.79696 10.942 5.78586 10.9274 5.77399 10.9125C5.76518 10.9014 5.75638 10.8891 5.74757 10.8772C5.7445 10.8742 5.74182 10.87 5.73953 10.8669C5.73876 10.8654 5.73723 10.8638 5.73646 10.8619C5.72842 10.8508 5.72038 10.8393 5.7131 10.8275C5.70583 10.8171 5.69932 10.8056 5.69319 10.7945C5.68592 10.7842 5.68017 10.7727 5.67405 10.7608C5.64265 10.7015 5.61776 10.6372 5.60474 10.5701C5.60091 10.5533 5.59823 10.5357 5.5967 10.5181C5.5944 10.5005 5.59363 10.4821 5.59363 10.4633C5.59363 10.4158 5.60014 10.3676 5.61469 10.3178C5.62044 10.2986 5.62771 10.2784 5.63575 10.2584C5.63882 10.2519 5.6415 10.2454 5.64456 10.2393C5.64686 10.2328 5.6503 10.2255 5.65413 10.2194C5.6572 10.2129 5.66064 10.2056 5.66447 10.1995C5.66945 10.1907 5.67405 10.1819 5.67979 10.1731C5.68056 10.1715 5.68132 10.1708 5.68209 10.1688C5.69434 10.1505 5.70698 10.1309 5.72153 10.1125C7.4826 10.2144 9.37884 10.61 11.1189 11.5558Z" fill="url(#paint30_radial_13_528)"/>
<path d="M19.7562 17.1668V17.6275C16.9184 16.4622 14.872 15.1308 13.3962 13.8005C13.3013 12.7383 12.7265 12.1712 12.1337 11.8691C11.9947 11.7982 11.8546 11.7412 11.7198 11.6971C11.7014 11.6906 11.6838 11.6853 11.6658 11.6795C11.6394 11.6715 11.6126 11.6634 11.5869 11.6562C11.5475 11.6451 11.5096 11.6343 11.472 11.6255L11.4238 11.6137C10.0947 9.75034 9.72705 8.09802 9.63055 7.18628C9.88405 7.40723 10.1146 7.66072 10.3156 7.9437C10.4339 8.11104 10.5488 8.29255 10.6549 8.49052C10.8268 8.81448 11.0562 9.10243 11.3273 9.33793C11.6834 9.64849 12.1131 9.86867 12.5867 9.96363C12.6254 9.97167 12.6648 9.97895 12.7051 9.98546C12.7058 9.98546 12.7058 9.98546 12.7066 9.98546C12.7081 9.98623 12.7108 9.98622 12.7123 9.98622H12.7146C12.7445 9.98699 12.774 9.98776 12.8031 9.98852C13.0049 9.99427 13.2036 10.0084 13.3997 10.0318C13.6038 10.0552 13.8056 10.0873 14.0051 10.1275C14.0717 10.1413 14.1387 10.1555 14.2054 10.1708C15.0937 10.3776 15.9189 10.7482 16.6465 11.2506C18.2452 12.3523 19.3748 14.0862 19.6758 16.0908C19.729 16.4416 19.7562 16.8011 19.7562 17.1668Z" fill="url(#paint31_radial_13_528)"/>
<path d="M16.8486 5.42528H16.7436C16.0394 5.42528 15.4314 4.91561 15.328 4.21906C15.3268 4.21217 15.3261 4.20528 15.3249 4.19839C15.3249 4.19839 15.0706 2.56521 13.0274 1.655C13.0274 1.655 12.278 1.03658 12.8527 0C12.8022 0.0191462 11.058 0.722962 11.344 3.09097L10.9668 2.48403C10.9668 2.48403 10.2703 3.76836 12.2381 5.42566C12.3557 5.52369 12.4817 5.62363 12.6184 5.72473C12.6184 5.72473 13.6527 6.50474 14.9443 6.3554C15.3617 6.30715 15.784 6.33204 16.193 6.42892C16.4078 6.47985 16.6276 6.50551 16.8482 6.50551C16.8861 6.50551 16.9228 6.50627 16.96 6.50972C17.9192 6.56678 18.6816 7.36517 18.6816 8.33895C18.6816 8.86318 18.4595 9.33685 18.1049 9.67076C17.7775 9.98132 17.3345 10.1716 16.8482 10.1716H14.2048C15.0932 10.3784 15.9184 10.7491 16.646 11.2515H16.8486C17.5202 11.2515 18.139 11.024 18.6322 10.6411C18.6322 10.6411 18.6322 10.6411 18.6322 10.6403C19.3188 10.1081 19.7622 9.27405 19.7622 8.33895C19.7619 6.73105 18.4549 5.42528 16.8486 5.42528Z" fill="url(#paint32_linear_13_528)"/>
<path d="M18.6323 10.6395C18.6323 10.6403 18.6323 10.6403 18.6323 10.6403C18.1395 11.0232 17.5203 11.2506 16.8487 11.2506H16.6469C15.9189 10.7482 15.0941 10.3772 14.2053 10.1708H16.8487C17.3353 10.1708 17.7784 9.98009 18.1054 9.66992C18.2528 9.94065 18.4489 10.3017 18.6323 10.6395Z" fill="url(#paint33_linear_13_528)"/>
<defs>
<linearGradient id="paint0_linear_13_528" x1="19.7559" y1="22.0865" x2="19.7567" y2="22.0865" gradientUnits="userSpaceOnUse">
<stop stop-color="#BF27F8"/>
<stop offset="1" stop-color="#6E25EE"/>
</linearGradient>
<linearGradient id="paint1_linear_13_528" x1="4.80918" y1="18.8797" x2="14.4779" y2="23.3128" gradientUnits="userSpaceOnUse">
<stop stop-color="#BF27F8"/>
<stop offset="1" stop-color="#6E25EE"/>
</linearGradient>
<linearGradient id="paint2_linear_13_528" x1="16.2113" y1="17.7987" x2="16.3793" y2="17.7987" gradientUnits="userSpaceOnUse">
<stop stop-color="#BF27F8"/>
<stop offset="1" stop-color="#6E25EE"/>
</linearGradient>
<linearGradient id="paint3_linear_13_528" x1="-0.54541" y1="20.494" x2="14.1583" y2="18.373" gradientUnits="userSpaceOnUse">
<stop stop-color="#BF27F8"/>
<stop offset="1" stop-color="#6E25EE"/>
</linearGradient>
<linearGradient id="paint4_linear_13_528" x1="2.2394" y1="17.4138" x2="11.5546" y2="21.5985" gradientUnits="userSpaceOnUse">
<stop stop-color="#BF27F8"/>
<stop offset="1" stop-color="#6E25EE"/>
</linearGradient>
<linearGradient id="paint5_linear_13_528" x1="0.39632" y1="5.60931" x2="20.5745" y2="18.1825" gradientUnits="userSpaceOnUse">
<stop stop-color="#BF27F8"/>
<stop offset="1" stop-color="#6E25EE"/>
</linearGradient>
<linearGradient id="paint6_linear_13_528" x1="16.2113" y1="17.7987" x2="16.3793" y2="17.7987" gradientUnits="userSpaceOnUse">
<stop stop-color="#BF27F8"/>
<stop offset="1" stop-color="#6E25EE"/>
</linearGradient>
<linearGradient id="paint7_linear_13_528" x1="2.92445" y1="10.1311" x2="10.0086" y2="10.1311" gradientUnits="userSpaceOnUse">
<stop stop-color="#BF27F8"/>
<stop offset="1" stop-color="#6E25EE"/>
</linearGradient>
<linearGradient id="paint8_linear_13_528" x1="2.9248" y1="10.1312" x2="10.009" y2="10.1312" gradientUnits="userSpaceOnUse">
<stop stop-color="#3D0374"/>
<stop offset="1" stop-color="#380179"/>
</linearGradient>
<linearGradient id="paint9_linear_13_528" x1="6.43618" y1="18.3227" x2="7.00229" y2="18.3227" gradientUnits="userSpaceOnUse">
<stop stop-color="#BF27F8"/>
<stop offset="1" stop-color="#6E25EE"/>
</linearGradient>
<linearGradient id="paint10_linear_13_528" x1="27.5438" y1="21.1042" x2="19.098" y2="21.3335" gradientUnits="userSpaceOnUse">
<stop stop-color="#BF27F8"/>
<stop offset="1" stop-color="#6E25EE"/>
</linearGradient>
<linearGradient id="paint11_linear_13_528" x1="-0.78591" y1="16.6687" x2="6.5707" y2="13.8598" gradientUnits="userSpaceOnUse">
<stop stop-color="#BF27F8"/>
<stop offset="1" stop-color="#6E25EE"/>
</linearGradient>
<linearGradient id="paint12_linear_13_528" x1="3.2298" y1="15.2087" x2="12.545" y2="19.3934" gradientUnits="userSpaceOnUse">
<stop stop-color="#BF27F8"/>
<stop offset="1" stop-color="#6E25EE"/>
</linearGradient>
<linearGradient id="paint13_linear_13_528" x1="9.41738" y1="26.9357" x2="9.54158" y2="22.2637" gradientUnits="userSpaceOnUse">
<stop stop-color="#3D0374" stop-opacity="0.4"/>
<stop offset="1" stop-color="#380179" stop-opacity="0"/>
</linearGradient>
<linearGradient id="paint14_linear_13_528" x1="15.1039" y1="22.6457" x2="15.3565" y2="13.1467" gradientUnits="userSpaceOnUse">
<stop stop-color="#3D0374"/>
<stop offset="1" stop-color="#380179"/>
</linearGradient>
<linearGradient id="paint15_linear_13_528" x1="11.7911" y1="23.4729" x2="11.9638" y2="16.9771" gradientUnits="userSpaceOnUse">
<stop stop-color="#3D0374"/>
<stop offset="1" stop-color="#380179"/>
</linearGradient>
<linearGradient id="paint16_linear_13_528" x1="19.585" y1="16.5215" x2="21.8636" y2="17.7969" gradientUnits="userSpaceOnUse">
<stop stop-color="#3D0374" stop-opacity="0.4"/>
<stop offset="1" stop-color="#380179" stop-opacity="0"/>
</linearGradient>
<linearGradient id="paint17_linear_13_528" x1="16.0356" y1="25.5419" x2="21.9209" y2="25.131" gradientUnits="userSpaceOnUse">
<stop stop-color="#3D0374" stop-opacity="0.4"/>
<stop offset="1" stop-color="#380179" stop-opacity="0"/>
</linearGradient>
<linearGradient id="paint18_linear_13_528" x1="9.01986" y1="16.8849" x2="4.45303" y2="18.1843" gradientUnits="userSpaceOnUse">
<stop stop-color="#3D0374" stop-opacity="0.4"/>
<stop offset="1" stop-color="#380179" stop-opacity="0"/>
</linearGradient>
<linearGradient id="paint19_linear_13_528" x1="3.41402" y1="11.4243" x2="1.55815" y2="13.1154" gradientUnits="userSpaceOnUse">
<stop stop-color="#3D0374" stop-opacity="0.4"/>
<stop offset="1" stop-color="#380179" stop-opacity="0"/>
</linearGradient>
<radialGradient id="paint20_radial_13_528" cx="0" cy="0" r="1" gradientUnits="userSpaceOnUse" gradientTransform="translate(-0.476892 18.8064) scale(6.7526)">
<stop stop-color="white"/>
<stop offset="1" stop-color="white" stop-opacity="0"/>
</radialGradient>
<radialGradient id="paint21_radial_13_528" cx="0" cy="0" r="1" gradientUnits="userSpaceOnUse" gradientTransform="translate(26.007 21.1376) scale(8.42708 8.42708)">
<stop stop-color="white" stop-opacity="0.9"/>
<stop offset="1" stop-color="white" stop-opacity="0"/>
</radialGradient>
<radialGradient id="paint22_radial_13_528" cx="0" cy="0" r="1" gradientUnits="userSpaceOnUse" gradientTransform="translate(11.6855 9.64397) scale(7.23945 7.23945)">
<stop stop-color="white" stop-opacity="0.9"/>
<stop offset="1" stop-color="white" stop-opacity="0"/>
</radialGradient>
<radialGradient id="paint23_radial_13_528" cx="0" cy="0" r="1" gradientUnits="userSpaceOnUse" gradientTransform="translate(18.971 16.6441) scale(9.49413)">
<stop stop-color="white" stop-opacity="0.9"/>
<stop offset="1" stop-color="white" stop-opacity="0"/>
</radialGradient>
<radialGradient id="paint24_radial_13_528" cx="0" cy="0" r="1" gradientUnits="userSpaceOnUse" gradientTransform="translate(6.34532 8.05253) scale(5.32052)">
<stop stop-color="white" stop-opacity="0.9"/>
<stop offset="1" stop-color="white" stop-opacity="0"/>
</radialGradient>
<linearGradient id="paint25_linear_13_528" x1="4.31694" y1="13.1595" x2="8.83375" y2="13.1595" gradientUnits="userSpaceOnUse">
<stop stop-color="#3D0374"/>
<stop offset="1" stop-color="#380179"/>
</linearGradient>
<linearGradient id="paint26_linear_13_528" x1="6.12066" y1="10.4653" x2="4.81639" y2="9.99229" gradientUnits="userSpaceOnUse">
<stop stop-color="#3D0374" stop-opacity="0.4"/>
<stop offset="1" stop-color="#380179" stop-opacity="0"/>
</linearGradient>
<radialGradient id="paint27_radial_13_528" cx="0" cy="0" r="1" gradientUnits="userSpaceOnUse" gradientTransform="translate(3.06344 8.74289) scale(2.31319)">
<stop stop-color="white" stop-opacity="0.9"/>
<stop offset="1" stop-color="white" stop-opacity="0"/>
</radialGradient>
<radialGradient id="paint28_radial_13_528" cx="0" cy="0" r="1" gradientUnits="userSpaceOnUse" gradientTransform="translate(2.46154 10.6394) scale(2.96224)">
<stop stop-color="white" stop-opacity="0.9"/>
<stop offset="1" stop-color="white" stop-opacity="0"/>
</radialGradient>
<radialGradient id="paint29_radial_13_528" cx="0" cy="0" r="1" gradientUnits="userSpaceOnUse" gradientTransform="translate(7.96466 5.17923) scale(6.61643)">
<stop stop-color="white" stop-opacity="0.9"/>
<stop offset="1" stop-color="white" stop-opacity="0"/>
</radialGradient>
<radialGradient id="paint30_radial_13_528" cx="0" cy="0" r="1" gradientUnits="userSpaceOnUse" gradientTransform="translate(7.46307 9.76499) scale(3.06698)">
<stop stop-color="white" stop-opacity="0.9"/>
<stop offset="1" stop-color="white" stop-opacity="0"/>
</radialGradient>
<radialGradient id="paint31_radial_13_528" cx="0" cy="0" r="1" gradientUnits="userSpaceOnUse" gradientTransform="translate(16.8309 10.3001) scale(6.21777)">
<stop stop-color="white" stop-opacity="0.9"/>
<stop offset="1" stop-color="white" stop-opacity="0"/>
</radialGradient>
<linearGradient id="paint32_linear_13_528" x1="17.3246" y1="1.7239" x2="12.9298" y2="10.7429" gradientUnits="userSpaceOnUse">
<stop stop-color="#BF27F8"/>
<stop offset="1" stop-color="#6E25EE"/>
</linearGradient>
<linearGradient id="paint33_linear_13_528" x1="15.8922" y1="10.6839" x2="18.2234" y2="9.67114" gradientUnits="userSpaceOnUse">
<stop stop-color="#3D0374" stop-opacity="0.4"/>
<stop offset="1" stop-color="#380179" stop-opacity="0"/>
</linearGradient>
</defs>
</svg>
