<svg width="50" height="50" viewBox="0 0 50 50" fill="none" xmlns="http://www.w3.org/2000/svg">
<path opacity="0.2" d="M24.9985 28.125C30.1762 28.125 34.3735 23.9277 34.3735 18.75C34.3735 13.5723 30.1762 9.375 24.9985 9.375C19.8209 9.375 15.6235 13.5723 15.6235 18.75C15.6235 23.9277 19.8209 28.125 24.9985 28.125Z" fill="#C1ABFF"/>
<path d="M24.9985 34.375C33.628 34.375 40.6235 27.3794 40.6235 18.75C40.6235 10.1206 33.628 3.125 24.9985 3.125C16.3691 3.125 9.37354 10.1206 9.37354 18.75C9.37354 27.3794 16.3691 34.375 24.9985 34.375Z" stroke="#C1ABFF" stroke-width="2.5" stroke-linecap="round" stroke-linejoin="round"/>
<path d="M24.9985 28.125C30.1762 28.125 34.3735 23.9277 34.3735 18.75C34.3735 13.5723 30.1762 9.375 24.9985 9.375C19.8209 9.375 15.6235 13.5723 15.6235 18.75C15.6235 23.9277 19.8209 28.125 24.9985 28.125Z" stroke="#C1ABFF" stroke-width="2.5" stroke-linecap="round" stroke-linejoin="round"/>
<path d="M34.375 31.2488V46.8748L24.9986 42.1873L15.625 46.8748V31.2501" stroke="#C1ABFF" stroke-width="2.5" stroke-linecap="round" stroke-linejoin="round"/>
</svg>
