<svg width="98" height="15" viewBox="0 0 98 15" fill="none" xmlns="http://www.w3.org/2000/svg">
<path d="M2.12947 14H0.509469V1.4H2.12947L7.20547 10.256L12.2635 1.4H13.8835V14H12.2635V4.478L7.72747 12.434H6.66547L2.12947 4.496V14ZM17.4729 12.812C16.5489 11.864 16.0869 10.7 16.0869 9.32C16.0869 7.928 16.5489 6.77 17.4729 5.846C18.4089 4.91 19.5729 4.442 20.9649 4.442C22.3569 4.442 23.5209 4.91 24.4569 5.846C25.3929 6.77 25.8609 7.928 25.8609 9.32C25.8609 10.712 25.3929 11.876 24.4569 12.812C23.5089 13.736 22.3449 14.198 20.9649 14.198C19.5849 14.198 18.4209 13.736 17.4729 12.812ZM20.9649 12.686C21.9129 12.686 22.7049 12.368 23.3409 11.732C23.9769 11.072 24.2949 10.268 24.2949 9.32C24.2949 8.36 23.9769 7.562 23.3409 6.926C22.7049 6.278 21.9129 5.954 20.9649 5.954C20.0169 5.954 19.2309 6.278 18.6069 6.926C17.9709 7.562 17.6529 8.36 17.6529 9.32C17.6529 10.268 17.9709 11.072 18.6069 11.732C19.2429 12.368 20.0289 12.686 20.9649 12.686ZM29.4404 8.708V14H27.9284V4.64H29.4404V6.224C30.1484 5.036 31.2584 4.442 32.7704 4.442H33.0224V6.116C32.8304 6.044 32.6084 6.008 32.3564 6.008C31.5284 6.008 30.8384 6.266 30.2864 6.782C29.7224 7.31 29.4404 7.952 29.4404 8.708ZM43.3649 9.842H35.3189C35.4269 10.682 35.7989 11.384 36.4349 11.948C37.0589 12.5 37.8269 12.776 38.7389 12.776C39.9269 12.776 40.8509 12.326 41.5109 11.426L42.9869 11.894C42.5549 12.614 41.9609 13.178 41.2049 13.586C40.4609 13.994 39.6389 14.198 38.7389 14.198C37.3229 14.198 36.1349 13.736 35.1749 12.812C34.2269 11.876 33.7529 10.712 33.7529 9.32C33.7529 7.928 34.2149 6.77 35.1389 5.846C36.0629 4.91 37.2089 4.442 38.5769 4.442C39.9569 4.442 41.1029 4.91 42.0149 5.846C42.9389 6.77 43.4009 7.928 43.4009 9.32C43.4009 9.356 43.3889 9.53 43.3649 9.842ZM35.3369 8.618H41.8349C41.6909 7.814 41.3129 7.148 40.7009 6.62C40.1009 6.104 39.3809 5.846 38.5409 5.846C37.7249 5.846 37.0229 6.104 36.4349 6.62C35.8469 7.136 35.4809 7.802 35.3369 8.618ZM51.1702 12.812C50.2462 11.864 49.7842 10.7 49.7842 9.32C49.7842 7.928 50.2462 6.77 51.1702 5.846C52.1062 4.91 53.2702 4.442 54.6622 4.442C56.0542 4.442 57.2182 4.91 58.1542 5.846C59.0902 6.77 59.5582 7.928 59.5582 9.32C59.5582 10.712 59.0902 11.876 58.1542 12.812C57.2062 13.736 56.0422 14.198 54.6622 14.198C53.2822 14.198 52.1182 13.736 51.1702 12.812ZM54.6622 12.686C55.6102 12.686 56.4022 12.368 57.0382 11.732C57.6742 11.072 57.9922 10.268 57.9922 9.32C57.9922 8.36 57.6742 7.562 57.0382 6.926C56.4022 6.278 55.6102 5.954 54.6622 5.954C53.7142 5.954 52.9282 6.278 52.3042 6.926C51.6682 7.562 51.3502 8.36 51.3502 9.32C51.3502 10.268 51.6682 11.072 52.3042 11.732C52.9402 12.368 53.7262 12.686 54.6622 12.686ZM62.1493 5.972H60.5833V4.64H62.1493V3.254C62.1493 2.474 62.4133 1.82 62.9413 1.292C63.4693 0.763999 64.1233 0.499999 64.9033 0.499999H66.1453V1.958H65.0113C64.6273 1.958 64.3033 2.102 64.0393 2.39C63.7873 2.666 63.6613 3.014 63.6613 3.434V4.64H67.8013V3.254C67.8013 2.474 68.0653 1.82 68.5933 1.292C69.1213 0.763999 69.7753 0.499999 70.5553 0.499999H71.7973V1.958H70.6633C70.2793 1.958 69.9553 2.102 69.6913 2.39C69.4393 2.666 69.3133 3.014 69.3133 3.434V4.64H71.8153V5.972H69.3133V14H67.8013V5.972H63.6613V14H62.1493V5.972ZM82.2302 9.842H74.1842C74.2922 10.682 74.6642 11.384 75.3002 11.948C75.9242 12.5 76.6922 12.776 77.6042 12.776C78.7922 12.776 79.7162 12.326 80.3762 11.426L81.8522 11.894C81.4202 12.614 80.8262 13.178 80.0702 13.586C79.3262 13.994 78.5042 14.198 77.6042 14.198C76.1882 14.198 75.0002 13.736 74.0402 12.812C73.0922 11.876 72.6182 10.712 72.6182 9.32C72.6182 7.928 73.0802 6.77 74.0042 5.846C74.9282 4.91 76.0742 4.442 77.4422 4.442C78.8222 4.442 79.9682 4.91 80.8802 5.846C81.8042 6.77 82.2662 7.928 82.2662 9.32C82.2662 9.356 82.2542 9.53 82.2302 9.842ZM74.2022 8.618H80.7002C80.5562 7.814 80.1782 7.148 79.5662 6.62C78.9662 6.104 78.2462 5.846 77.4062 5.846C76.5902 5.846 75.8882 6.104 75.3002 6.62C74.7122 7.136 74.3462 7.802 74.2022 8.618ZM85.708 8.708V14H84.196V4.64H85.708V6.224C86.416 5.036 87.526 4.442 89.038 4.442H89.29V6.116C89.098 6.044 88.876 6.008 88.624 6.008C87.796 6.008 87.106 6.266 86.554 6.782C85.99 7.31 85.708 7.952 85.708 8.708ZM97.0539 6.674L95.6319 6.926C95.5359 6.566 95.3079 6.284 94.9479 6.08C94.5999 5.876 94.1559 5.774 93.6159 5.774C93.0999 5.774 92.6679 5.888 92.3199 6.116C91.9839 6.344 91.8159 6.638 91.8159 6.998C91.8159 7.502 92.1459 7.868 92.8059 8.096L95.0919 8.906C96.5199 9.434 97.2339 10.286 97.2339 11.462C97.2339 12.314 96.9099 12.986 96.2619 13.478C95.6139 13.958 94.7679 14.198 93.7239 14.198C92.7279 14.198 91.9059 13.982 91.2579 13.55C90.6219 13.106 90.2379 12.506 90.1059 11.75L91.5279 11.498C91.6239 11.906 91.8699 12.236 92.2659 12.488C92.6739 12.74 93.1719 12.866 93.7599 12.866C94.3359 12.866 94.8159 12.74 95.1999 12.488C95.5959 12.236 95.7939 11.912 95.7939 11.516C95.7939 10.952 95.3799 10.526 94.5519 10.238L92.3199 9.464C91.0119 9.02 90.3579 8.234 90.3579 7.106C90.3579 6.266 90.6639 5.612 91.2759 5.144C91.8999 4.676 92.7159 4.442 93.7239 4.442C94.6239 4.442 95.3679 4.646 95.9559 5.054C96.5559 5.45 96.9219 5.99 97.0539 6.674Z" fill="black"/>
</svg>
