<svg width="250" height="34" viewBox="0 0 250 34" fill="none" xmlns="http://www.w3.org/2000/svg">
<path d="M4.12 26H0.312V2.2H4.12L13.164 18.078L22.174 2.2H26.016V26H22.174V9.442L14.422 23.178H11.906L4.12 9.442V26ZM38.9225 26.442C36.2705 26.442 34.0605 25.558 32.2925 23.79C30.5245 22.022 29.6405 19.812 29.6405 17.16C29.6405 14.508 30.5245 12.298 32.2925 10.53C34.0605 8.762 36.2705 7.878 38.9225 7.878C41.5745 7.878 43.7845 8.762 45.5525 10.53C47.3431 12.298 48.2385 14.508 48.2385 17.16C48.2385 19.812 47.3431 22.022 45.5525 23.79C43.7845 25.558 41.5745 26.442 38.9225 26.442ZM38.9225 22.906C40.5545 22.906 41.8918 22.362 42.9345 21.274C44.0225 20.1633 44.5665 18.792 44.5665 17.16C44.5665 15.528 44.0225 14.168 42.9345 13.08C41.8918 11.9693 40.5545 11.414 38.9225 11.414C37.3358 11.414 35.9985 11.9693 34.9105 13.08C33.8451 14.1907 33.3125 15.5507 33.3125 17.16C33.3125 18.7693 33.8451 20.1407 34.9105 21.274C35.9985 22.362 37.3358 22.906 38.9225 22.906ZM64.2185 12.366L60.8865 12.944C60.4785 11.6293 59.3225 10.972 57.4185 10.972C56.5571 10.972 55.8545 11.142 55.3105 11.482C54.7665 11.822 54.4945 12.2867 54.4945 12.876C54.4945 13.6467 55.0611 14.236 56.1945 14.644L60.1725 16.004C61.6911 16.5707 62.7905 17.262 63.4705 18.078C64.1731 18.894 64.5245 19.9027 64.5245 21.104C64.5245 22.804 63.9011 24.1187 62.6545 25.048C61.4078 25.9773 59.7645 26.442 57.7245 26.442C55.7298 26.442 54.1091 26.0113 52.8625 25.15C51.6158 24.266 50.8678 23.0533 50.6185 21.512L53.9505 21.002C54.1091 21.7047 54.5285 22.2713 55.2085 22.702C55.8885 23.1327 56.7498 23.348 57.7925 23.348C58.7671 23.348 59.5605 23.1553 60.1725 22.77C60.8071 22.3847 61.1245 21.8633 61.1245 21.206C61.1245 20.3673 60.4105 19.6873 58.9825 19.166L55.0385 17.84C53.6558 17.364 52.6471 16.752 52.0125 16.004C51.4005 15.256 51.0945 14.304 51.0945 13.148C51.0945 11.448 51.6951 10.1447 52.8965 9.238C54.0978 8.33133 55.6958 7.878 57.6905 7.878C59.4811 7.878 60.9545 8.286 62.1105 9.102C63.2665 9.89533 63.9691 10.9833 64.2185 12.366ZM66.1092 11.414V8.32H68.7952V4.818H72.3312V8.32H77.0232V11.414H72.3312V20.118C72.3312 20.8207 72.5578 21.41 73.0112 21.886C73.4645 22.362 74.0312 22.6 74.7112 22.6H77.0232V26H74.4392C72.8525 26 71.5152 25.49 70.4272 24.47C69.3392 23.4047 68.7952 22.1127 68.7952 20.594V11.414H66.1092ZM106.703 18.452H92.0148C92.2868 19.8347 92.9554 20.968 94.0208 21.852C95.1088 22.7133 96.3894 23.144 97.8628 23.144C99.8574 23.144 101.421 22.4073 102.555 20.934L106.023 21.988C105.207 23.3707 104.073 24.4587 102.623 25.252C101.195 26.0453 99.6081 26.442 97.8628 26.442C95.1428 26.442 92.8874 25.558 91.0968 23.79C89.2834 22.022 88.3768 19.812 88.3768 17.16C88.3768 14.5307 89.2494 12.3207 90.9948 10.53C92.7628 8.762 94.9614 7.878 97.5908 7.878C100.22 7.878 102.396 8.762 104.119 10.53C105.887 12.298 106.771 14.508 106.771 17.16C106.771 17.2507 106.748 17.6813 106.703 18.452ZM92.0488 15.63H103.133C102.815 14.3153 102.135 13.25 101.093 12.434C100.05 11.5953 98.8488 11.176 97.4888 11.176C96.1968 11.176 95.0408 11.5953 94.0208 12.434C93.0234 13.25 92.3661 14.3153 92.0488 15.63ZM121.147 26L116.489 19.778L111.797 26H107.615L114.381 16.922L107.955 8.32H112.103L116.489 14.1L120.841 8.32H125.023L118.563 16.922L125.329 26H121.147ZM131.443 33.65H127.907V8.32H131.443V10.224C133.075 8.66 135.035 7.878 137.325 7.878C139.795 7.878 141.869 8.762 143.547 10.53C145.201 12.2753 146.029 14.4853 146.029 17.16C146.029 19.8347 145.201 22.0447 143.547 23.79C141.869 25.558 139.795 26.442 137.325 26.442C135.035 26.442 133.075 25.66 131.443 24.096V33.65ZM136.917 11.414C135.398 11.414 134.117 11.9693 133.075 13.08C132.032 14.1453 131.511 15.5053 131.511 17.16C131.511 18.792 132.032 20.1633 133.075 21.274C134.117 22.362 135.398 22.906 136.917 22.906C138.435 22.906 139.727 22.362 140.793 21.274C141.835 20.1633 142.357 18.792 142.357 17.16C142.357 15.5053 141.835 14.1453 140.793 13.08C139.75 11.9693 138.458 11.414 136.917 11.414ZM167 18.452H152.312C152.584 19.8347 153.252 20.968 154.318 21.852C155.406 22.7133 156.686 23.144 158.16 23.144C160.154 23.144 161.718 22.4073 162.852 20.934L166.32 21.988C165.504 23.3707 164.37 24.4587 162.92 25.252C161.492 26.0453 159.905 26.442 158.16 26.442C155.44 26.442 153.184 25.558 151.394 23.79C149.58 22.022 148.674 19.812 148.674 17.16C148.674 14.5307 149.546 12.3207 151.292 10.53C153.06 8.762 155.258 7.878 157.888 7.878C160.517 7.878 162.693 8.762 164.416 10.53C166.184 12.298 167.068 14.508 167.068 17.16C167.068 17.2507 167.045 17.6813 167 18.452ZM152.346 15.63H163.43C163.112 14.3153 162.432 13.25 161.39 12.434C160.347 11.5953 159.146 11.176 157.786 11.176C156.494 11.176 155.338 11.5953 154.318 12.434C153.32 13.25 152.663 14.3153 152.346 15.63ZM187.31 13.454L183.74 14.508C183.286 13.556 182.618 12.808 181.734 12.264C180.85 11.6973 179.841 11.414 178.708 11.414C177.121 11.414 175.784 11.9693 174.696 13.08C173.63 14.1907 173.098 15.5507 173.098 17.16C173.098 18.7693 173.63 20.1407 174.696 21.274C175.784 22.362 177.121 22.906 178.708 22.906C179.841 22.906 180.85 22.634 181.734 22.09C182.618 21.5233 183.286 20.764 183.74 19.812L187.31 20.866C186.607 22.566 185.485 23.926 183.944 24.946C182.425 25.9433 180.68 26.442 178.708 26.442C176.056 26.442 173.846 25.558 172.078 23.79C170.31 22.022 169.426 19.812 169.426 17.16C169.426 14.508 170.31 12.298 172.078 10.53C173.846 8.762 176.056 7.878 178.708 7.878C180.68 7.878 182.425 8.388 183.944 9.408C185.485 10.4053 186.607 11.754 187.31 13.454ZM188.695 11.414V8.32H191.381V4.818H194.917V8.32H199.609V11.414H194.917V20.118C194.917 20.8207 195.144 21.41 195.597 21.886C196.05 22.362 196.617 22.6 197.297 22.6H199.609V26H197.025C195.438 26 194.101 25.49 193.013 24.47C191.925 23.4047 191.381 22.1127 191.381 20.594V11.414H188.695ZM220.191 18.452H205.503C205.775 19.8347 206.444 20.968 207.509 21.852C208.597 22.7133 209.878 23.144 211.351 23.144C213.346 23.144 214.91 22.4073 216.043 20.934L219.511 21.988C218.695 23.3707 217.562 24.4587 216.111 25.252C214.683 26.0453 213.096 26.442 211.351 26.442C208.631 26.442 206.376 25.558 204.585 23.79C202.772 22.022 201.865 19.812 201.865 17.16C201.865 14.5307 202.738 12.3207 204.483 10.53C206.251 8.762 208.45 7.878 211.079 7.878C213.708 7.878 215.884 8.762 217.607 10.53C219.375 12.298 220.259 14.508 220.259 17.16C220.259 17.2507 220.236 17.6813 220.191 18.452ZM205.537 15.63H216.621C216.304 14.3153 215.624 13.25 214.581 12.434C213.538 11.5953 212.337 11.176 210.977 11.176C209.685 11.176 208.529 11.5953 207.509 12.434C206.512 13.25 205.854 14.3153 205.537 15.63ZM231.321 7.878C233.61 7.878 235.571 8.66 237.203 10.224V0.499998H240.739V26H237.203V24.096C235.571 25.66 233.61 26.442 231.321 26.442C228.85 26.442 226.776 25.558 225.099 23.79C223.444 22.0447 222.617 19.8347 222.617 17.16C222.617 14.4853 223.444 12.2753 225.099 10.53C226.776 8.762 228.85 7.878 231.321 7.878ZM231.695 11.414C230.176 11.414 228.896 11.9693 227.853 13.08C226.81 14.1453 226.289 15.5053 226.289 17.16C226.289 18.792 226.81 20.1633 227.853 21.274C228.918 22.362 230.199 22.906 231.695 22.906C233.236 22.906 234.528 22.362 235.571 21.274C236.614 20.1633 237.135 18.792 237.135 17.16C237.135 15.5053 236.614 14.1453 235.571 13.08C234.528 11.9693 233.236 11.414 231.695 11.414ZM247.022 21.716C247.702 21.716 248.269 21.9427 248.722 22.396C249.175 22.8493 249.402 23.416 249.402 24.096C249.402 24.776 249.175 25.3427 248.722 25.796C248.269 26.2267 247.702 26.442 247.022 26.442C246.365 26.442 245.809 26.2267 245.356 25.796C244.903 25.3427 244.676 24.776 244.676 24.096C244.676 23.416 244.903 22.8493 245.356 22.396C245.809 21.9427 246.365 21.716 247.022 21.716ZM248.586 18.69H245.526L245.152 2.2H248.96L248.586 18.69Z" fill="black"/>
</svg>
