<svg width="77" height="25" viewBox="0 0 77 25" fill="none" xmlns="http://www.w3.org/2000/svg">
<path d="M3.984 24H0.312V0.199998H3.678L17.312 17.438V0.199998H20.984V24H17.618L3.984 6.762V24ZM42.9528 16.452H28.2648C28.5368 17.8347 29.2054 18.968 30.2708 19.852C31.3588 20.7133 32.6394 21.144 34.1128 21.144C36.1074 21.144 37.6714 20.4073 38.8048 18.934L42.2728 19.988C41.4568 21.3707 40.3234 22.4587 38.8728 23.252C37.4448 24.0453 35.8581 24.442 34.1128 24.442C31.3928 24.442 29.1374 23.558 27.3468 21.79C25.5334 20.022 24.6268 17.812 24.6268 15.16C24.6268 12.5307 25.4994 10.3207 27.2448 8.53C29.0128 6.762 31.2114 5.878 33.8408 5.878C36.4701 5.878 38.6461 6.762 40.3688 8.53C42.1368 10.298 43.0208 12.508 43.0208 15.16C43.0208 15.2507 42.9981 15.6813 42.9528 16.452ZM28.2988 13.63H39.3828C39.0654 12.3153 38.3854 11.25 37.3428 10.434C36.3001 9.59533 35.0988 9.176 33.7388 9.176C32.4468 9.176 31.2908 9.59533 30.2708 10.434C29.2734 11.25 28.6161 12.3153 28.2988 13.63ZM52.8399 24H49.7119L43.8299 6.32H47.3999L51.2419 18.526L55.0839 6.32H58.2799L62.0879 18.526L65.9639 6.32H69.5339L63.6519 24H60.4899L56.6819 12.202L52.8399 24ZM74.1 19.716C74.78 19.716 75.3466 19.9427 75.8 20.396C76.2533 20.8493 76.48 21.416 76.48 22.096C76.48 22.776 76.2533 23.3427 75.8 23.796C75.3466 24.2267 74.78 24.442 74.1 24.442C73.4426 24.442 72.8873 24.2267 72.434 23.796C71.9806 23.3427 71.754 22.776 71.754 22.096C71.754 21.416 71.9806 20.8493 72.434 20.396C72.8873 19.9427 73.4426 19.716 74.1 19.716ZM75.664 16.69H72.604L72.23 0.199998H76.038L75.664 16.69Z" fill="black"/>
</svg>
