<svg id="Слой_1" xmlns="http://www.w3.org/2000/svg" width="800" height="101.3"><style>.st0{fill:#484f54}.st1{fill:#a2c617}</style><path class="st0" d="M57.6 4.5v12.4H35.7v74.3h-13V16.9H1.2V4.5h56.4zM73 91.2V4.5h57v11.8H86.2v25.4h39v12.1h-39v25.4h45.5v12.1L73 91.2zM146.8 91.2V4.5H160v74.3h43.1v12.4h-56.3zM215.2 91.2V4.5h57v11.8h-43.8v25.4h39v12.1h-39v25.4h45.5v12.1l-58.7-.1zM289 .6c.7 1.1 2.2 3.3 4.5 6.4 2.3 3.2 4.9 6.8 7.9 10.9s6.2 8.6 9.5 13.2c3.3 4.7 6.5 9.1 9.5 13.2s5.5 7.7 7.7 10.7 3.7 5 4.4 6c.2-.4 1-1.5 2.3-3.2 1.3-1.8 2.9-4 4.7-6.6 1.9-2.6 4-5.6 6.4-8.9s4.8-6.7 7.4-10.2c2.5-3.5 5-6.9 7.4-10.3s4.7-6.6 6.8-9.4c2.1-2.8 3.8-5.3 5.3-7.4s2.5-3.6 3.2-4.4v90.6h-14V42.6c0-.6.1-1.3.2-2s.2-1.2.2-1.6c-.7 1-1.9 2.6-3.4 4.8-1.6 2.3-3.3 4.9-5.4 7.8-2 2.9-4.2 6-6.4 9.2-2.2 3.2-4.3 6.3-6.3 9.2s-3.8 5.4-5.3 7.6-2.6 3.7-3.1 4.6c-.6-.7-1.7-2.2-3.3-4.5-1.6-2.3-3.5-4.9-5.7-8s-4.5-6.3-6.9-9.7-4.7-6.6-6.8-9.6c-2.1-3-3.9-5.5-5.4-7.6s-2.4-3.4-2.6-3.9c0 .3.1.8.2 1.6.1.7.2 1.4.2 2v48.6h-13V.6h-.2zM450.9 91.2c-.4-.9-1-2.2-1.7-3.8-.7-1.7-1.5-3.6-2.5-5.8-.9-2.2-1.9-4.6-3-7.2s-2.2-5.3-3.3-8.1h-30.6l-10.3 24.9h-12.9L425.3.4c.5 1.1 1.3 3.2 2.6 6.1 1.2 3 2.7 6.5 4.4 10.6 1.7 4.1 3.6 8.7 5.7 13.6 2.1 5 4.3 10 6.5 15.1S448.8 56 451 61c2.1 4.9 4 9.5 5.8 13.6s3.3 7.7 4.5 10.6 2.1 4.9 2.6 6h-13zm-36.5-35.9h21.7c-1.1-2.6-2.2-5.2-3.2-7.6-1-2.4-1.9-4.7-2.8-6.7s-1.6-3.8-2.2-5.3-1.1-2.7-1.4-3.6c-.1-.2-.3-.7-.5-1.7-.3-1-.5-1.8-.7-2.6-.2.8-.4 1.7-.7 2.6-.3 1-.5 1.5-.6 1.7l-9.6 23.2zM474.6 91.2V4.5h23.7c4.6 0 8.7.6 12.5 1.8 3.8 1.2 7.1 3 9.8 5.3 2.7 2.4 4.9 5.2 6.4 8.6s2.3 7.3 2.3 11.7c0 2.4-.2 4.8-.7 7.1-.5 2.4-1.3 4.6-2.3 6.8-1.1 2.2-2.5 4.2-4.1 6.1-1.7 1.9-3.7 3.5-6.1 4.7 3.2 5 6.7 10.6 10.4 16.7s7.5 12.1 11.4 17.9h-15.7c-1.6-2.5-3.3-5.1-5-7.8l-5.1-8.1c-1.7-2.7-3.4-5.3-5-7.9s-3.2-5-4.6-7.2h-14.7v31h-13.2zm13.2-43.3h11.8c3.2 0 5.9-.5 8-1.6s3.8-2.4 5.1-4c1.2-1.6 2.1-3.3 2.6-5.1s.8-3.5.8-5-.3-3.2-.8-5-1.4-3.5-2.7-5c-1.3-1.6-3-2.8-5.1-3.9-2.1-1-4.7-1.6-7.8-1.6h-12v31.2h.1zM600.2 4.5v12.4h-21.9v74.3h-13V16.9h-21.4V4.5h56.3z"/><path class="st1" d="M616 91.2c0-2.1.8-3.9 2.3-5.4s3.3-2.3 5.5-2.3c2.1 0 3.9.8 5.4 2.3s2.3 3.3 2.3 5.4-.8 3.9-2.3 5.4-3.3 2.3-5.4 2.3c-2.1 0-3.9-.8-5.5-2.3-1.6-1.4-2.3-3.2-2.3-5.4zM679.9 92.2c-4.6 0-8.9-.8-12.9-2.3s-7.5-3.7-10.5-6.4-5.3-6.1-7.1-9.9c-1.7-3.9-2.6-8.2-2.6-13V4.5H660v55.8c0 2.8.5 5.4 1.5 7.7 1 2.4 2.4 4.4 4.2 6.2 1.8 1.8 3.9 3.2 6.3 4.2s5 1.5 7.9 1.5c2.8 0 5.4-.5 7.8-1.5 2.4-1 4.6-2.4 6.3-4.2 1.8-1.8 3.2-3.9 4.2-6.2 1-2.4 1.6-4.9 1.6-7.7V4.5H713v56.1c0 4.8-.9 9.1-2.6 13s-4.1 7.2-7.1 9.9c-3 2.8-6.5 4.9-10.5 6.4s-8.3 2.3-12.9 2.3zM787.1 91.2c-.4-.9-1-2.2-1.7-3.8-.7-1.7-1.5-3.6-2.5-5.8-.9-2.2-1.9-4.6-3-7.2s-2.2-5.3-3.3-8.1H746l-10.3 24.9h-12.9L761.5.4c.5 1.1 1.3 3.2 2.6 6.1 1.2 3 2.7 6.5 4.4 10.6s3.6 8.7 5.7 13.6c2.1 5 4.3 10 6.5 15.1s4.3 10.1 6.5 15.1c2.1 4.9 4 9.5 5.8 13.6s3.3 7.7 4.5 10.6 2.1 4.9 2.6 6h-13v.1zm-36.5-35.9h21.7c-1.1-2.6-2.2-5.2-3.2-7.6-1-2.4-1.9-4.7-2.8-6.7-.8-2-1.6-3.8-2.2-5.3-.6-1.5-1.1-2.7-1.4-3.6-.1-.2-.3-.7-.5-1.7-.3-1-.5-1.8-.7-2.6-.2.8-.4 1.7-.7 2.6-.3 1-.5 1.5-.6 1.7l-9.6 23.2z"/></svg>