<svg width="278" height="34" viewBox="0 0 278 34" fill="none" xmlns="http://www.w3.org/2000/svg">
<path d="M4.12 17.228V26H0.312V2.2H10.852C13.1187 2.2 15.0113 2.914 16.53 4.342C18.0713 5.77 18.842 7.56067 18.842 9.714C18.842 11.8673 18.0713 13.658 16.53 15.086C15.0113 16.514 13.1187 17.228 10.852 17.228H4.12ZM10.852 5.736H4.12V13.692H10.852C11.9853 13.692 12.9373 13.318 13.708 12.57C14.4787 11.7993 14.864 10.8473 14.864 9.714C14.864 8.58067 14.4787 7.64 13.708 6.892C12.9373 6.12133 11.9853 5.736 10.852 5.736ZM29.5924 26.442C26.9404 26.442 24.7304 25.558 22.9624 23.79C21.1944 22.022 20.3104 19.812 20.3104 17.16C20.3104 14.508 21.1944 12.298 22.9624 10.53C24.7304 8.762 26.9404 7.878 29.5924 7.878C32.2444 7.878 34.4544 8.762 36.2224 10.53C38.013 12.298 38.9084 14.508 38.9084 17.16C38.9084 19.812 38.013 22.022 36.2224 23.79C34.4544 25.558 32.2444 26.442 29.5924 26.442ZM29.5924 22.906C31.2244 22.906 32.5617 22.362 33.6044 21.274C34.6924 20.1633 35.2364 18.792 35.2364 17.16C35.2364 15.528 34.6924 14.168 33.6044 13.08C32.5617 11.9693 31.2244 11.414 29.5924 11.414C28.0057 11.414 26.6684 11.9693 25.5804 13.08C24.515 14.1907 23.9824 15.5507 23.9824 17.16C23.9824 18.7693 24.515 20.1407 25.5804 21.274C26.6684 22.362 28.0057 22.906 29.5924 22.906ZM45.8784 33.65H42.3424V8.32H45.8784V10.224C47.5104 8.66 49.471 7.878 51.7604 7.878C54.231 7.878 56.305 8.762 57.9824 10.53C59.637 12.2753 60.4644 14.4853 60.4644 17.16C60.4644 19.8347 59.637 22.0447 57.9824 23.79C56.305 25.558 54.231 26.442 51.7604 26.442C49.471 26.442 47.5104 25.66 45.8784 24.096V33.65ZM51.3524 11.414C49.8337 11.414 48.553 11.9693 47.5104 13.08C46.4677 14.1453 45.9464 15.5053 45.9464 17.16C45.9464 18.792 46.4677 20.1633 47.5104 21.274C48.553 22.362 49.8337 22.906 51.3524 22.906C52.871 22.906 54.163 22.362 55.2284 21.274C56.271 20.1633 56.7924 18.792 56.7924 17.16C56.7924 15.5053 56.271 14.1453 55.2284 13.08C54.1857 11.9693 52.8937 11.414 51.3524 11.414ZM63.8572 19.472V8.32H67.3932V18.486C67.3932 19.778 67.8239 20.8773 68.6852 21.784C69.5919 22.6453 70.6799 23.076 71.9492 23.076C73.2865 23.076 74.4199 22.634 75.3492 21.75C76.2559 20.866 76.7092 19.7667 76.7092 18.452V8.32H80.2452V26H76.7092V23.484C75.3492 25.456 73.4225 26.442 70.9292 26.442C68.8665 26.442 67.1779 25.7847 65.8632 24.47C64.5259 23.1327 63.8572 21.4667 63.8572 19.472ZM88.0131 26H84.4771V0.499998H88.0131V26ZM100.135 7.878C102.425 7.878 104.385 8.66 106.017 10.224V8.32H109.553V26H106.017V24.096C104.385 25.66 102.425 26.442 100.135 26.442C97.6648 26.442 95.5908 25.558 93.9135 23.79C92.2588 22.0447 91.4315 19.8347 91.4315 17.16C91.4315 14.4853 92.2588 12.2753 93.9135 10.53C95.5908 8.762 97.6648 7.878 100.135 7.878ZM100.509 11.414C98.9908 11.414 97.7101 11.9693 96.6675 13.08C95.6248 14.1453 95.1035 15.5053 95.1035 17.16C95.1035 18.792 95.6248 20.1633 96.6675 21.274C97.7328 22.362 99.0135 22.906 100.509 22.906C102.051 22.906 103.343 22.362 104.385 21.274C105.428 20.1633 105.949 18.792 105.949 17.16C105.949 15.5053 105.428 14.1453 104.385 13.08C103.343 11.9693 102.051 11.414 100.509 11.414ZM117.298 8.32V10.904C118.636 8.88667 120.732 7.878 123.588 7.878V11.822C123.18 11.6407 122.67 11.55 122.058 11.55C120.698 11.55 119.565 11.992 118.658 12.876C117.752 13.7147 117.298 14.8027 117.298 16.14V26H113.762V8.32H117.298ZM138.88 33.65H135.344V8.32H138.88V10.224C140.512 8.66 142.473 7.878 144.762 7.878C147.233 7.878 149.307 8.762 150.984 10.53C152.639 12.2753 153.466 14.4853 153.466 17.16C153.466 19.8347 152.639 22.0447 150.984 23.79C149.307 25.558 147.233 26.442 144.762 26.442C142.473 26.442 140.512 25.66 138.88 24.096V33.65ZM144.354 11.414C142.836 11.414 141.555 11.9693 140.512 13.08C139.47 14.1453 138.948 15.5053 138.948 17.16C138.948 18.792 139.47 20.1633 140.512 21.274C141.555 22.362 142.836 22.906 144.354 22.906C145.873 22.906 147.165 22.362 148.23 21.274C149.273 20.1633 149.794 18.792 149.794 17.16C149.794 15.5053 149.273 14.1453 148.23 13.08C147.188 11.9693 145.896 11.414 144.354 11.414ZM160.429 8.32V10.904C161.766 8.88667 163.863 7.878 166.719 7.878V11.822C166.311 11.6407 165.801 11.55 165.189 11.55C163.829 11.55 162.696 11.992 161.789 12.876C160.882 13.7147 160.429 14.8027 160.429 16.14V26H156.893V8.32H160.429ZM177.18 26.442C174.528 26.442 172.318 25.558 170.55 23.79C168.782 22.022 167.898 19.812 167.898 17.16C167.898 14.508 168.782 12.298 170.55 10.53C172.318 8.762 174.528 7.878 177.18 7.878C179.832 7.878 182.042 8.762 183.81 10.53C185.601 12.298 186.496 14.508 186.496 17.16C186.496 19.812 185.601 22.022 183.81 23.79C182.042 25.558 179.832 26.442 177.18 26.442ZM177.18 22.906C178.812 22.906 180.15 22.362 181.192 21.274C182.28 20.1633 182.824 18.792 182.824 17.16C182.824 15.528 182.28 14.168 181.192 13.08C180.15 11.9693 178.812 11.414 177.18 11.414C175.594 11.414 174.256 11.9693 173.168 13.08C172.103 14.1907 171.57 15.5507 171.57 17.16C171.57 18.7693 172.103 20.1407 173.168 21.274C174.256 22.362 175.594 22.906 177.18 22.906ZM197.852 7.878C200.142 7.878 202.102 8.66 203.734 10.224V0.499998H207.27V26H203.734V24.096C202.102 25.66 200.142 26.442 197.852 26.442C195.382 26.442 193.308 25.558 191.63 23.79C189.976 22.0447 189.148 19.8347 189.148 17.16C189.148 14.4853 189.976 12.2753 191.63 10.53C193.308 8.762 195.382 7.878 197.852 7.878ZM198.226 11.414C196.708 11.414 195.427 11.9693 194.384 13.08C193.342 14.1453 192.82 15.5053 192.82 17.16C192.82 18.792 193.342 20.1633 194.384 21.274C195.45 22.362 196.73 22.906 198.226 22.906C199.768 22.906 201.06 22.362 202.102 21.274C203.145 20.1633 203.666 18.792 203.666 17.16C203.666 15.5053 203.145 14.1453 202.102 13.08C201.06 11.9693 199.768 11.414 198.226 11.414ZM211.445 19.472V8.32H214.981V18.486C214.981 19.778 215.412 20.8773 216.273 21.784C217.18 22.6453 218.268 23.076 219.537 23.076C220.874 23.076 222.008 22.634 222.937 21.75C223.844 20.866 224.297 19.7667 224.297 18.452V8.32H227.833V26H224.297V23.484C222.937 25.456 221.01 26.442 218.517 26.442C216.454 26.442 214.766 25.7847 213.451 24.47C212.114 23.1327 211.445 21.4667 211.445 19.472ZM249.167 13.454L245.597 14.508C245.144 13.556 244.475 12.808 243.591 12.264C242.707 11.6973 241.698 11.414 240.565 11.414C238.978 11.414 237.641 11.9693 236.553 13.08C235.488 14.1907 234.955 15.5507 234.955 17.16C234.955 18.7693 235.488 20.1407 236.553 21.274C237.641 22.362 238.978 22.906 240.565 22.906C241.698 22.906 242.707 22.634 243.591 22.09C244.475 21.5233 245.144 20.764 245.597 19.812L249.167 20.866C248.464 22.566 247.342 23.926 245.801 24.946C244.282 25.9433 242.537 26.442 240.565 26.442C237.913 26.442 235.703 25.558 233.935 23.79C232.167 22.022 231.283 19.812 231.283 17.16C231.283 14.508 232.167 12.298 233.935 10.53C235.703 8.762 237.913 7.878 240.565 7.878C242.537 7.878 244.282 8.388 245.801 9.408C247.342 10.4053 248.464 11.754 249.167 13.454ZM250.553 11.414V8.32H253.239V4.818H256.775V8.32H261.467V11.414H256.775V20.118C256.775 20.8207 257.001 21.41 257.455 21.886C257.908 22.362 258.475 22.6 259.155 22.6H261.467V26H258.883C257.296 26 255.959 25.49 254.871 24.47C253.783 23.4047 253.239 22.1127 253.239 20.594V11.414H250.553ZM277.117 12.366L273.785 12.944C273.377 11.6293 272.221 10.972 270.317 10.972C269.456 10.972 268.753 11.142 268.209 11.482C267.665 11.822 267.393 12.2867 267.393 12.876C267.393 13.6467 267.96 14.236 269.093 14.644L273.071 16.004C274.59 16.5707 275.689 17.262 276.369 18.078C277.072 18.894 277.423 19.9027 277.423 21.104C277.423 22.804 276.8 24.1187 275.553 25.048C274.306 25.9773 272.663 26.442 270.623 26.442C268.628 26.442 267.008 26.0113 265.761 25.15C264.514 24.266 263.766 23.0533 263.517 21.512L266.849 21.002C267.008 21.7047 267.427 22.2713 268.107 22.702C268.787 23.1327 269.648 23.348 270.691 23.348C271.666 23.348 272.459 23.1553 273.071 22.77C273.706 22.3847 274.023 21.8633 274.023 21.206C274.023 20.3673 273.309 19.6873 271.881 19.166L267.937 17.84C266.554 17.364 265.546 16.752 264.911 16.004C264.299 15.256 263.993 14.304 263.993 13.148C263.993 11.448 264.594 10.1447 265.795 9.238C266.996 8.33133 268.594 7.878 270.589 7.878C272.38 7.878 273.853 8.286 275.009 9.102C276.165 9.89533 276.868 10.9833 277.117 12.366Z" fill="black"/>
</svg>
