<svg width="233" height="19" viewBox="0 0 233 19" fill="none" xmlns="http://www.w3.org/2000/svg">
<path d="M3.032 11.568V18H0.872V1.2H8.24C9.792 1.2 11.088 1.696 12.128 2.688C13.168 3.68 13.688 4.912 13.688 6.384C13.688 7.856 13.168 9.088 12.128 10.08C11.088 11.072 9.792 11.568 8.24 11.568H3.032ZM8.24 3.216H3.032V9.552H8.24C9.152 9.552 9.912 9.248 10.52 8.64C11.128 8.032 11.432 7.28 11.432 6.384C11.432 5.472 11.128 4.72 10.52 4.128C9.912 3.52 9.152 3.216 8.24 3.216ZM18.3528 10.944V18H16.3368V5.52H18.3528V7.632C19.2968 6.048 20.7768 5.256 22.7928 5.256H23.1288V7.488C22.8728 7.392 22.5768 7.344 22.2408 7.344C21.1368 7.344 20.2168 7.688 19.4808 8.376C18.7288 9.08 18.3528 9.936 18.3528 10.944ZM36.9189 12.456H26.1909C26.3349 13.576 26.8309 14.512 27.6789 15.264C28.5109 16 29.5349 16.368 30.7509 16.368C32.3349 16.368 33.5669 15.768 34.4469 14.568L36.4149 15.192C35.8389 16.152 35.0469 16.904 34.0389 17.448C33.0469 17.992 31.9509 18.264 30.7509 18.264C28.8629 18.264 27.2789 17.648 25.9989 16.416C24.7349 15.168 24.1029 13.616 24.1029 11.76C24.1029 9.904 24.7189 8.36 25.9509 7.128C27.1829 5.88 28.7109 5.256 30.5349 5.256C32.3749 5.256 33.9029 5.88 35.1189 7.128C36.3509 8.36 36.9669 9.904 36.9669 11.76C36.9669 11.808 36.9509 12.04 36.9189 12.456ZM26.2149 10.824H34.8789C34.6869 9.752 34.1829 8.864 33.3669 8.16C32.5669 7.472 31.6069 7.128 30.4869 7.128C29.3989 7.128 28.4629 7.472 27.6789 8.16C26.8949 8.848 26.4069 9.736 26.2149 10.824ZM45.0359 5.256C46.9079 5.256 48.4279 5.936 49.5959 7.296V-1.43051e-06H51.6119V18H49.5959V16.224C48.4279 17.584 46.9079 18.264 45.0359 18.264C43.2919 18.264 41.8279 17.648 40.6439 16.416C39.4759 15.184 38.8919 13.632 38.8919 11.76C38.8919 9.888 39.4759 8.344 40.6439 7.128C41.8119 5.88 43.2759 5.256 45.0359 5.256ZM45.2519 7.272C44.0519 7.272 43.0359 7.704 42.2039 8.568C41.3879 9.416 40.9799 10.48 40.9799 11.76C40.9799 13.04 41.3879 14.112 42.2039 14.976C43.0519 15.824 44.0679 16.248 45.2519 16.248C46.4679 16.248 47.4839 15.824 48.2999 14.976C49.1319 14.128 49.5479 13.056 49.5479 11.76C49.5479 10.464 49.1319 9.4 48.2999 8.568C47.4839 7.704 46.4679 7.272 45.2519 7.272ZM56.2087 16.416C54.9767 15.152 54.3607 13.6 54.3607 11.76C54.3607 9.904 54.9767 8.36 56.2087 7.128C57.4567 5.88 59.0087 5.256 60.8647 5.256C62.7207 5.256 64.2727 5.88 65.5207 7.128C66.7687 8.36 67.3927 9.904 67.3927 11.76C67.3927 13.616 66.7687 15.168 65.5207 16.416C64.2567 17.648 62.7047 18.264 60.8647 18.264C59.0247 18.264 57.4727 17.648 56.2087 16.416ZM60.8647 16.248C62.1287 16.248 63.1847 15.824 64.0327 14.976C64.8807 14.096 65.3047 13.024 65.3047 11.76C65.3047 10.48 64.8807 9.416 64.0327 8.568C63.1847 7.704 62.1287 7.272 60.8647 7.272C59.6007 7.272 58.5527 7.704 57.7207 8.568C56.8727 9.416 56.4487 10.48 56.4487 11.76C56.4487 13.024 56.8727 14.096 57.7207 14.976C58.5687 15.824 59.6167 16.248 60.8647 16.248ZM72.1653 10.944V18H70.1493V5.52H72.1653V7.632C73.1093 6.048 74.5893 5.256 76.6053 5.256H76.9413V7.488C76.6853 7.392 76.3893 7.344 76.0533 7.344C74.9493 7.344 74.0293 7.688 73.2933 8.376C72.5413 9.08 72.1653 9.936 72.1653 10.944ZM84.0594 5.256C85.9314 5.256 87.4514 5.936 88.6194 7.296V-1.43051e-06H90.6354V18H88.6194V16.224C87.4514 17.584 85.9314 18.264 84.0594 18.264C82.3154 18.264 80.8514 17.648 79.6674 16.416C78.4994 15.184 77.9154 13.632 77.9154 11.76C77.9154 9.888 78.4994 8.344 79.6674 7.128C80.8354 5.88 82.2994 5.256 84.0594 5.256ZM84.2754 7.272C83.0754 7.272 82.0594 7.704 81.2274 8.568C80.4114 9.416 80.0034 10.48 80.0034 11.76C80.0034 13.04 80.4114 14.112 81.2274 14.976C82.0754 15.824 83.0914 16.248 84.2754 16.248C85.4914 16.248 86.5074 15.824 87.3234 14.976C88.1554 14.128 88.5714 13.056 88.5714 11.76C88.5714 10.464 88.1554 9.4 87.3234 8.568C86.5074 7.704 85.4914 7.272 84.2754 7.272ZM106.2 12.456H95.4721C95.6161 13.576 96.1121 14.512 96.9601 15.264C97.7921 16 98.8161 16.368 100.032 16.368C101.616 16.368 102.848 15.768 103.728 14.568L105.696 15.192C105.12 16.152 104.328 16.904 103.32 17.448C102.328 17.992 101.232 18.264 100.032 18.264C98.1441 18.264 96.5601 17.648 95.2801 16.416C94.0161 15.168 93.3841 13.616 93.3841 11.76C93.3841 9.904 94.0001 8.36 95.2321 7.128C96.4641 5.88 97.9921 5.256 99.8161 5.256C101.656 5.256 103.184 5.88 104.4 7.128C105.632 8.36 106.248 9.904 106.248 11.76C106.248 11.808 106.232 12.04 106.2 12.456ZM95.4961 10.824H104.16C103.968 9.752 103.464 8.864 102.648 8.16C101.848 7.472 100.888 7.128 99.7681 7.128C98.6801 7.128 97.7441 7.472 96.9601 8.16C96.1761 8.848 95.6881 9.736 95.4961 10.824ZM110.837 10.944V18H108.821V5.52H110.837V7.632C111.781 6.048 113.261 5.256 115.277 5.256H115.613V7.488C115.357 7.392 115.061 7.344 114.725 7.344C113.621 7.344 112.701 7.688 111.965 8.376C111.213 9.08 110.837 9.936 110.837 10.944ZM129.903 5.256C131.775 5.256 133.295 5.936 134.463 7.296V5.52H136.479V18H134.463V16.224C133.295 17.584 131.775 18.264 129.903 18.264C128.159 18.264 126.695 17.648 125.511 16.416C124.343 15.184 123.759 13.632 123.759 11.76C123.759 9.888 124.343 8.344 125.511 7.128C126.679 5.88 128.143 5.256 129.903 5.256ZM130.119 7.272C128.919 7.272 127.903 7.704 127.071 8.568C126.255 9.416 125.847 10.48 125.847 11.76C125.847 13.04 126.255 14.112 127.071 14.976C127.919 15.824 128.935 16.248 130.119 16.248C131.335 16.248 132.351 15.824 133.167 14.976C133.999 14.128 134.415 13.056 134.415 11.76C134.415 10.464 133.999 9.4 133.167 8.568C132.351 7.704 131.335 7.272 130.119 7.272ZM143.884 18L138.508 5.52H140.596L144.796 15.408L149.02 5.52H151.108L145.732 18H143.884ZM158.192 5.256C160.064 5.256 161.584 5.936 162.752 7.296V5.52H164.768V18H162.752V16.224C161.584 17.584 160.064 18.264 158.192 18.264C156.448 18.264 154.984 17.648 153.8 16.416C152.632 15.184 152.048 13.632 152.048 11.76C152.048 9.888 152.632 8.344 153.8 7.128C154.968 5.88 156.432 5.256 158.192 5.256ZM158.408 7.272C157.208 7.272 156.192 7.704 155.36 8.568C154.544 9.416 154.136 10.48 154.136 11.76C154.136 13.04 154.544 14.112 155.36 14.976C156.208 15.824 157.224 16.248 158.408 16.248C159.624 16.248 160.64 15.824 161.456 14.976C162.288 14.128 162.704 13.056 162.704 11.76C162.704 10.464 162.288 9.4 161.456 8.568C160.64 7.704 159.624 7.272 158.408 7.272ZM170.181 18H168.165V5.52H170.181V18ZM168.165 3.48C167.909 3.208 167.781 2.872 167.781 2.472C167.781 2.072 167.909 1.744 168.165 1.488C168.437 1.216 168.773 1.08 169.173 1.08C169.573 1.08 169.909 1.216 170.181 1.488C170.453 1.744 170.589 2.072 170.589 2.472C170.589 2.872 170.453 3.208 170.181 3.48C169.909 3.736 169.573 3.864 169.173 3.864C168.773 3.864 168.437 3.736 168.165 3.48ZM175.595 18H173.579V-1.43051e-06H175.595V18ZM184.489 5.256C186.361 5.256 187.881 5.936 189.049 7.296V5.52H191.065V18H189.049V16.224C187.881 17.584 186.361 18.264 184.489 18.264C182.745 18.264 181.281 17.648 180.097 16.416C178.929 15.184 178.345 13.632 178.345 11.76C178.345 9.888 178.929 8.344 180.097 7.128C181.265 5.88 182.729 5.256 184.489 5.256ZM184.705 7.272C183.505 7.272 182.489 7.704 181.657 8.568C180.841 9.416 180.433 10.48 180.433 11.76C180.433 13.04 180.841 14.112 181.657 14.976C182.505 15.824 183.521 16.248 184.705 16.248C185.921 16.248 186.937 15.824 187.753 14.976C188.585 14.128 189.001 13.056 189.001 11.76C189.001 10.464 188.585 9.4 187.753 8.568C186.937 7.704 185.921 7.272 184.705 7.272ZM194.462 18V-1.43051e-06H196.478V7.296C197.646 5.936 199.158 5.256 201.014 5.256C202.774 5.256 204.238 5.88 205.406 7.128C206.59 8.36 207.182 9.904 207.182 11.76C207.182 13.6 206.59 15.152 205.406 16.416C204.222 17.648 202.758 18.264 201.014 18.264C199.158 18.264 197.646 17.584 196.478 16.224V18H194.462ZM200.798 7.272C199.598 7.272 198.582 7.704 197.75 8.568C196.934 9.416 196.526 10.48 196.526 11.76C196.526 13.04 196.934 14.112 197.75 14.976C198.598 15.824 199.614 16.248 200.798 16.248C202.014 16.248 203.03 15.824 203.846 14.976C204.678 14.128 205.094 13.056 205.094 11.76C205.094 10.464 204.678 9.4 203.846 8.568C203.03 7.704 202.014 7.272 200.798 7.272ZM211.947 18H209.931V-1.43051e-06H211.947V18ZM227.513 12.456H216.785C216.929 13.576 217.425 14.512 218.273 15.264C219.105 16 220.129 16.368 221.345 16.368C222.929 16.368 224.161 15.768 225.041 14.568L227.009 15.192C226.433 16.152 225.641 16.904 224.633 17.448C223.641 17.992 222.545 18.264 221.345 18.264C219.457 18.264 217.873 17.648 216.593 16.416C215.329 15.168 214.697 13.616 214.697 11.76C214.697 9.904 215.313 8.36 216.545 7.128C217.777 5.88 219.305 5.256 221.129 5.256C222.969 5.256 224.497 5.88 225.713 7.128C226.945 8.36 227.561 9.904 227.561 11.76C227.561 11.808 227.545 12.04 227.513 12.456ZM216.809 10.824H225.473C225.281 9.752 224.777 8.864 223.961 8.16C223.161 7.472 222.201 7.128 221.081 7.128C219.993 7.128 219.057 7.472 218.273 8.16C217.489 8.848 217.001 9.736 216.809 10.824ZM231.382 15.384C231.782 15.384 232.118 15.528 232.39 15.816C232.678 16.088 232.822 16.424 232.822 16.824C232.886 17.448 232.59 17.888 231.934 18.144C231.294 18.4 230.766 18.304 230.35 17.856C229.902 17.44 229.806 16.912 230.062 16.272C230.318 15.616 230.758 15.32 231.382 15.384ZM232.27 12.984H230.518L230.302 1.2H232.462L232.27 12.984Z" fill="black"/>
</svg>
