<svg width="15" height="17" viewBox="0 0 15 17" fill="none" xmlns="http://www.w3.org/2000/svg">
<path fill-rule="evenodd" clip-rule="evenodd" d="M7.50006 0.298279C5.06909 0.298279 3.0984 2.26897 3.0984 4.69994C3.0984 7.13092 5.06909 9.10161 7.50006 9.10161C9.93104 9.10161 11.9017 7.13092 11.9017 4.69994C11.9017 2.26897 9.93104 0.298279 7.50006 0.298279ZM4.30173 4.69994C4.30173 2.93355 5.73367 1.50161 7.50006 1.50161C9.26646 1.50161 10.6984 2.93355 10.6984 4.69994C10.6984 6.46634 9.26646 7.89828 7.50006 7.89828C5.73367 7.89828 4.30173 6.46634 4.30173 4.69994ZM1.7684 16.2265C1.7684 14.2521 2.3339 12.8787 3.27342 11.9937C4.21912 11.1028 5.63373 10.6215 7.49997 10.6215C9.36623 10.6215 10.7808 11.1028 11.7267 11.9937C12.6661 12.8787 13.2317 14.2522 13.2317 16.2265C13.2317 16.5589 13.501 16.8282 13.8334 16.8282C14.1656 16.8282 14.435 16.5589 14.435 16.2265C14.435 14.021 13.7971 12.291 12.5518 11.1178C11.3125 9.95034 9.5604 9.41821 7.49997 9.41821C5.43956 9.41821 3.68755 9.95034 2.44829 11.1178C1.20286 12.291 0.565063 14.021 0.565063 16.2265C0.565063 16.5589 0.834446 16.8282 1.16673 16.8282C1.49903 16.8282 1.7684 16.5589 1.7684 16.2265Z" fill="black"/>
</svg>
