<svg width="360" height="34" viewBox="0 0 360 34" fill="none" xmlns="http://www.w3.org/2000/svg">
<path d="M4.12 17.228V26H0.312V2.2H10.852C13.1187 2.2 15.0113 2.914 16.53 4.342C18.0713 5.77 18.842 7.56067 18.842 9.714C18.842 11.8673 18.0713 13.658 16.53 15.086C15.0113 16.514 13.1187 17.228 10.852 17.228H4.12ZM10.852 5.736H4.12V13.692H10.852C11.9853 13.692 12.9373 13.318 13.708 12.57C14.4787 11.7993 14.864 10.8473 14.864 9.714C14.864 8.58067 14.4787 7.64 13.708 6.892C12.9373 6.12133 11.9853 5.736 10.852 5.736ZM25.6577 8.32V10.904C26.995 8.88667 29.0917 7.878 31.9477 7.878V11.822C31.5397 11.6407 31.0297 11.55 30.4177 11.55C29.0577 11.55 27.9243 11.992 27.0177 12.876C26.111 13.7147 25.6577 14.8027 25.6577 16.14V26H22.1217V8.32H25.6577ZM42.4088 26.442C39.7568 26.442 37.5468 25.558 35.7788 23.79C34.0108 22.022 33.1268 19.812 33.1268 17.16C33.1268 14.508 34.0108 12.298 35.7788 10.53C37.5468 8.762 39.7568 7.878 42.4088 7.878C45.0608 7.878 47.2708 8.762 49.0388 10.53C50.8294 12.298 51.7248 14.508 51.7248 17.16C51.7248 19.812 50.8294 22.022 49.0388 23.79C47.2708 25.558 45.0608 26.442 42.4088 26.442ZM42.4088 22.906C44.0408 22.906 45.3781 22.362 46.4208 21.274C47.5088 20.1633 48.0528 18.792 48.0528 17.16C48.0528 15.528 47.5088 14.168 46.4208 13.08C45.3781 11.9693 44.0408 11.414 42.4088 11.414C40.8221 11.414 39.4848 11.9693 38.3968 13.08C37.3314 14.1907 36.7988 15.5507 36.7988 17.16C36.7988 18.7693 37.3314 20.1407 38.3968 21.274C39.4848 22.362 40.8221 22.906 42.4088 22.906ZM58.6948 26H55.1588V8.32H58.6948V10.564C59.9188 8.77333 61.7208 7.878 64.1008 7.878C65.3248 7.878 66.4354 8.16133 67.4328 8.728C68.4301 9.272 69.2348 10.0313 69.8468 11.006C70.1188 10.5753 70.4474 10.1447 70.8328 9.714C71.3088 9.238 72.0001 8.81867 72.9068 8.456C73.8134 8.07067 74.7768 7.878 75.7968 7.878C77.8141 7.878 79.4801 8.50133 80.7948 9.748C82.1321 11.0173 82.8008 12.5813 82.8008 14.44V26H79.2648V15.426C79.2648 14.2473 78.8681 13.2613 78.0748 12.468C77.2814 11.652 76.2954 11.244 75.1168 11.244C73.8701 11.244 72.8274 11.652 71.9888 12.468C71.1728 13.2387 70.7648 14.236 70.7648 15.46V26H67.2288V15.426C67.2288 14.2473 66.8321 13.2613 66.0388 12.468C65.2454 11.652 64.2594 11.244 63.0808 11.244C61.8341 11.244 60.7914 11.652 59.9528 12.468C59.1141 13.2387 58.6948 14.236 58.6948 15.46V26ZM95.5006 26.442C92.8486 26.442 90.6386 25.558 88.8706 23.79C87.1026 22.022 86.2186 19.812 86.2186 17.16C86.2186 14.508 87.1026 12.298 88.8706 10.53C90.6386 8.762 92.8486 7.878 95.5006 7.878C98.1526 7.878 100.363 8.762 102.131 10.53C103.921 12.298 104.817 14.508 104.817 17.16C104.817 19.812 103.921 22.022 102.131 23.79C100.363 25.558 98.1526 26.442 95.5006 26.442ZM95.5006 22.906C97.1326 22.906 98.4699 22.362 99.5126 21.274C100.601 20.1633 101.145 18.792 101.145 17.16C101.145 15.528 100.601 14.168 99.5126 13.08C98.4699 11.9693 97.1326 11.414 95.5006 11.414C93.9139 11.414 92.5766 11.9693 91.4886 13.08C90.4232 14.1907 89.8906 15.5507 89.8906 17.16C89.8906 18.7693 90.4232 20.1407 91.4886 21.274C92.5766 22.362 93.9139 22.906 95.5006 22.906ZM106.484 11.414V8.32H109.17V4.818H112.706V8.32H117.398V11.414H112.706V20.118C112.706 20.8207 112.933 21.41 113.386 21.886C113.84 22.362 114.406 22.6 115.086 22.6H117.398V26H114.814C113.228 26 111.89 25.49 110.802 24.47C109.714 23.4047 109.17 22.1127 109.17 20.594V11.414H106.484ZM124.039 26H120.503V8.32H124.039V26ZM120.605 5.702C120.174 5.24867 119.959 4.69333 119.959 4.036C119.959 3.37867 120.174 2.82333 120.605 2.37C121.058 1.91667 121.613 1.69 122.271 1.69C122.928 1.69 123.483 1.91667 123.937 2.37C124.39 2.82333 124.617 3.37867 124.617 4.036C124.617 4.69333 124.39 5.24867 123.937 5.702C123.483 6.15533 122.928 6.382 122.271 6.382C121.613 6.382 121.058 6.15533 120.605 5.702ZM136.739 26.442C134.087 26.442 131.877 25.558 130.109 23.79C128.341 22.022 127.457 19.812 127.457 17.16C127.457 14.508 128.341 12.298 130.109 10.53C131.877 8.762 134.087 7.878 136.739 7.878C139.391 7.878 141.601 8.762 143.369 10.53C145.16 12.298 146.055 14.508 146.055 17.16C146.055 19.812 145.16 22.022 143.369 23.79C141.601 25.558 139.391 26.442 136.739 26.442ZM136.739 22.906C138.371 22.906 139.708 22.362 140.751 21.274C141.839 20.1633 142.383 18.792 142.383 17.16C142.383 15.528 141.839 14.168 140.751 13.08C139.708 11.9693 138.371 11.414 136.739 11.414C135.152 11.414 133.815 11.9693 132.727 13.08C131.662 14.1907 131.129 15.5507 131.129 17.16C131.129 18.7693 131.662 20.1407 132.727 21.274C133.815 22.362 135.152 22.906 136.739 22.906ZM149.489 26V8.32H153.025V10.904C154.317 8.88667 156.255 7.878 158.839 7.878C160.879 7.878 162.556 8.53533 163.871 9.85C165.208 11.1873 165.877 12.842 165.877 14.814V26H162.341V15.834C162.341 14.5193 161.91 13.4313 161.049 12.57C160.188 11.686 159.1 11.244 157.785 11.244C156.425 11.244 155.292 11.686 154.385 12.57C153.478 13.454 153.025 14.5533 153.025 15.868V26H149.489ZM182.621 12.366L179.289 12.944C178.881 11.6293 177.725 10.972 175.821 10.972C174.959 10.972 174.257 11.142 173.713 11.482C173.169 11.822 172.897 12.2867 172.897 12.876C172.897 13.6467 173.463 14.236 174.597 14.644L178.575 16.004C180.093 16.5707 181.193 17.262 181.873 18.078C182.575 18.894 182.927 19.9027 182.927 21.104C182.927 22.804 182.303 24.1187 181.057 25.048C179.81 25.9773 178.167 26.442 176.127 26.442C174.132 26.442 172.511 26.0113 171.265 25.15C170.018 24.266 169.27 23.0533 169.021 21.512L172.353 21.002C172.511 21.7047 172.931 22.2713 173.611 22.702C174.291 23.1327 175.152 23.348 176.195 23.348C177.169 23.348 177.963 23.1553 178.575 22.77C179.209 22.3847 179.527 21.8633 179.527 21.206C179.527 20.3673 178.813 19.6873 177.385 19.166L173.441 17.84C172.058 17.364 171.049 16.752 170.415 16.004C169.803 15.256 169.497 14.304 169.497 13.148C169.497 11.448 170.097 10.1447 171.299 9.238C172.5 8.33133 174.098 7.878 176.093 7.878C177.883 7.878 179.357 8.286 180.513 9.102C181.669 9.89533 182.371 10.9833 182.621 12.366ZM203.743 26.442C201.091 26.442 198.881 25.558 197.113 23.79C195.345 22.022 194.461 19.812 194.461 17.16C194.461 14.508 195.345 12.298 197.113 10.53C198.881 8.762 201.091 7.878 203.743 7.878C206.395 7.878 208.605 8.762 210.373 10.53C212.163 12.298 213.059 14.508 213.059 17.16C213.059 19.812 212.163 22.022 210.373 23.79C208.605 25.558 206.395 26.442 203.743 26.442ZM203.743 22.906C205.375 22.906 206.712 22.362 207.755 21.274C208.843 20.1633 209.387 18.792 209.387 17.16C209.387 15.528 208.843 14.168 207.755 13.08C206.712 11.9693 205.375 11.414 203.743 11.414C202.156 11.414 200.819 11.9693 199.731 13.08C198.665 14.1907 198.133 15.5507 198.133 17.16C198.133 18.7693 198.665 20.1407 199.731 21.274C200.819 22.362 202.156 22.906 203.743 22.906ZM221.118 6.382V8.32H225.606V11.414H221.118V26H217.582V11.414H214.76V8.32H217.582V5.906C217.582 4.36467 218.126 3.084 219.214 2.064C220.28 1.02133 221.617 0.499998 223.226 0.499998H225.606V3.9H223.498C222.818 3.9 222.252 4.138 221.798 4.614C221.345 5.09 221.118 5.67933 221.118 6.382ZM235.478 11.414V8.32H238.164V4.818H241.7V8.32H246.392V11.414H241.7V20.118C241.7 20.8207 241.927 21.41 242.38 21.886C242.834 22.362 243.4 22.6 244.08 22.6H246.392V26H243.808C242.222 26 240.884 25.49 239.796 24.47C238.708 23.4047 238.164 22.1127 238.164 20.594V11.414H235.478ZM249.497 26V0.499998H253.033V10.904C254.37 8.88667 256.342 7.878 258.949 7.878C261.034 7.878 262.745 8.53533 264.083 9.85C265.443 11.1873 266.123 12.842 266.123 14.814V26H262.587V15.834C262.587 14.4967 262.145 13.4087 261.261 12.57C260.377 11.686 259.266 11.244 257.929 11.244C256.546 11.244 255.379 11.686 254.427 12.57C253.497 13.454 253.033 14.5533 253.033 15.868V26H249.497ZM287.859 18.452H273.171C273.443 19.8347 274.112 20.968 275.177 21.852C276.265 22.7133 277.546 23.144 279.019 23.144C281.014 23.144 282.578 22.4073 283.711 20.934L287.179 21.988C286.363 23.3707 285.23 24.4587 283.779 25.252C282.351 26.0453 280.764 26.442 279.019 26.442C276.299 26.442 274.044 25.558 272.253 23.79C270.44 22.022 269.533 19.812 269.533 17.16C269.533 14.5307 270.406 12.3207 272.151 10.53C273.919 8.762 276.118 7.878 278.747 7.878C281.376 7.878 283.552 8.762 285.275 10.53C287.043 12.298 287.927 14.508 287.927 17.16C287.927 17.2507 287.904 17.6813 287.859 18.452ZM273.205 15.63H284.289C283.972 14.3153 283.292 13.25 282.249 12.434C281.206 11.5953 280.005 11.176 278.645 11.176C277.353 11.176 276.197 11.5953 275.177 12.434C274.18 13.25 273.522 14.3153 273.205 15.63ZM308.02 7.878C310.31 7.878 312.27 8.66 313.902 10.224V0.499998H317.438V26H313.902V24.096C312.27 25.66 310.31 26.442 308.02 26.442C305.55 26.442 303.476 25.558 301.798 23.79C300.144 22.0447 299.316 19.8347 299.316 17.16C299.316 14.4853 300.144 12.2753 301.798 10.53C303.476 8.762 305.55 7.878 308.02 7.878ZM308.394 11.414C306.876 11.414 305.595 11.9693 304.552 13.08C303.51 14.1453 302.988 15.5053 302.988 17.16C302.988 18.792 303.51 20.1633 304.552 21.274C305.618 22.362 306.898 22.906 308.394 22.906C309.936 22.906 311.228 22.362 312.27 21.274C313.313 20.1633 313.834 18.792 313.834 17.16C313.834 15.5053 313.313 14.1453 312.27 13.08C311.228 11.9693 309.936 11.414 308.394 11.414ZM329.569 7.878C331.858 7.878 333.819 8.66 335.451 10.224V8.32H338.987V26H335.451V24.096C333.819 25.66 331.858 26.442 329.569 26.442C327.098 26.442 325.024 25.558 323.347 23.79C321.692 22.0447 320.865 19.8347 320.865 17.16C320.865 14.4853 321.692 12.2753 323.347 10.53C325.024 8.762 327.098 7.878 329.569 7.878ZM329.943 11.414C328.424 11.414 327.144 11.9693 326.101 13.08C325.058 14.1453 324.537 15.5053 324.537 17.16C324.537 18.792 325.058 20.1633 326.101 21.274C327.166 22.362 328.447 22.906 329.943 22.906C331.484 22.906 332.776 22.362 333.819 21.274C334.862 20.1633 335.383 18.792 335.383 17.16C335.383 15.5053 334.862 14.1453 333.819 13.08C332.776 11.9693 331.484 11.414 329.943 11.414ZM347.616 27.496L348.398 25.558L341.496 8.32H345.134L350.166 21.172L355.368 8.32H359.006L350.676 28.686C349.973 30.4087 349.055 31.6667 347.922 32.46C346.789 33.2533 345.338 33.65 343.57 33.65H342.822V30.25H343.57C344.613 30.25 345.451 30.0347 346.086 29.604C346.721 29.1733 347.231 28.4707 347.616 27.496Z" fill="black"/>
</svg>
