<svg width="50" height="50" viewBox="0 0 50 50" fill="none" xmlns="http://www.w3.org/2000/svg">
<path opacity="0.2" d="M12.4999 42.1874C12.2948 42.1874 12.0916 42.147 11.902 42.0685C11.7124 41.99 11.5402 41.8749 11.3951 41.7298C11.25 41.5847 11.1349 41.4124 11.0564 41.2229C10.9779 41.0333 10.9374 40.8301 10.9374 40.6249L10.9375 32.2861C10.104 32.6809 9.18414 32.8585 8.26355 32.8023C7.34295 32.7461 6.45151 32.458 5.67216 31.9648C4.89281 31.4715 4.25086 30.7892 3.80603 29.9813C3.3612 29.1733 3.12793 28.266 3.12793 27.3437C3.12793 26.4214 3.3612 25.514 3.80603 24.7061C4.25086 23.8981 4.89281 23.2158 5.67216 22.7226C6.45151 22.2294 7.34295 21.9413 8.26355 21.8851C9.18414 21.8289 10.104 22.0065 10.9375 22.4012L10.9374 14.0624C10.9374 13.8572 10.9779 13.6541 11.0564 13.4645C11.1349 13.2749 11.25 13.1027 11.3951 12.9576C11.5402 12.8125 11.7124 12.6974 11.902 12.6189C12.0916 12.5403 12.2948 12.4999 12.5 12.4999L21.62 12.5C21.2252 11.6665 21.0476 10.7466 21.1038 9.82603C21.16 8.90544 21.4481 8.014 21.9413 7.23466C22.4346 6.45531 23.1169 5.81336 23.9248 5.36853C24.7328 4.92369 25.6401 4.69043 26.5624 4.69043C27.4847 4.69043 28.3921 4.92369 29.2 5.36853C30.0079 5.81336 30.6903 6.45531 31.1835 7.23466C31.6767 8.014 31.9648 8.90544 32.021 9.82603C32.0772 10.7466 31.8996 11.6665 31.5048 12.5L40.6249 12.4999C41.0392 12.4999 41.4367 12.6645 41.7297 12.9576C42.0227 13.2506 42.1874 13.648 42.1874 14.0624L42.1875 22.4012C41.3539 22.0065 40.4341 21.8289 39.5135 21.8851C38.5929 21.9413 37.7014 22.2294 36.9221 22.7226C36.1427 23.2158 35.5008 23.8981 35.056 24.7061C34.6111 25.514 34.3779 26.4214 34.3779 27.3437C34.3779 28.266 34.6111 29.1733 35.056 29.9813C35.5008 30.7892 36.1427 31.4715 36.9221 31.9648C37.7014 32.458 38.5929 32.7461 39.5135 32.8023C40.4341 32.8584 41.3539 32.6809 42.1875 32.2861L42.1874 40.6249C42.1874 41.0393 42.0227 41.4368 41.7297 41.7298C41.4367 42.0228 41.0393 42.1874 40.6249 42.1874L12.4999 42.1874Z" fill="#54D1FA"/>
<path d="M12.4999 42.1874C12.2948 42.1874 12.0916 42.147 11.902 42.0685C11.7124 41.99 11.5402 41.8749 11.3951 41.7298C11.25 41.5847 11.1349 41.4124 11.0564 41.2229C10.9779 41.0333 10.9374 40.8301 10.9374 40.6249L10.9375 32.2861C10.104 32.6809 9.18414 32.8585 8.26355 32.8023C7.34295 32.7461 6.45151 32.458 5.67216 31.9648C4.89281 31.4715 4.25086 30.7892 3.80603 29.9813C3.3612 29.1733 3.12793 28.266 3.12793 27.3437C3.12793 26.4214 3.3612 25.514 3.80603 24.7061C4.25086 23.8981 4.89281 23.2158 5.67216 22.7226C6.45151 22.2294 7.34295 21.9413 8.26355 21.8851C9.18414 21.8289 10.104 22.0065 10.9375 22.4012L10.9374 14.0624C10.9374 13.8572 10.9779 13.6541 11.0564 13.4645C11.1349 13.2749 11.25 13.1027 11.3951 12.9576C11.5402 12.8125 11.7124 12.6974 11.902 12.6189C12.0916 12.5403 12.2948 12.4999 12.5 12.4999L21.62 12.5C21.2252 11.6665 21.0476 10.7466 21.1038 9.82603C21.16 8.90544 21.4481 8.01401 21.9413 7.23466C22.4346 6.45531 23.1169 5.81336 23.9248 5.36853C24.7328 4.92369 25.6401 4.69043 26.5624 4.69043C27.4847 4.69043 28.3921 4.92369 29.2 5.36853C30.0079 5.81336 30.6903 6.45531 31.1835 7.23466C31.6767 8.01401 31.9648 8.90544 32.021 9.82603C32.0772 10.7466 31.8996 11.6665 31.5048 12.5L40.6249 12.4999C41.0393 12.4999 41.4367 12.6645 41.7297 12.9576C42.0227 13.2506 42.1874 13.648 42.1874 14.0624L42.1875 22.4012C41.3539 22.0065 40.4341 21.8289 39.5135 21.8851C38.5929 21.9413 37.7014 22.2294 36.9221 22.7226C36.1427 23.2158 35.5008 23.8981 35.056 24.7061C34.6111 25.514 34.3779 26.4214 34.3779 27.3437C34.3779 28.266 34.6111 29.1733 35.056 29.9813C35.5008 30.7892 36.1427 31.4715 36.9221 31.9648C37.7014 32.458 38.5929 32.7461 39.5135 32.8023C40.4341 32.8584 41.3539 32.6809 42.1875 32.2861L42.1874 40.6249C42.1874 41.0393 42.0227 41.4368 41.7297 41.7298C41.4367 42.0228 41.0393 42.1874 40.6249 42.1874L12.4999 42.1874Z" stroke="#54D1FA" stroke-width="2.5" stroke-linecap="round" stroke-linejoin="round"/>
</svg>
