<svg width="82" height="21" viewBox="0 0 82 21" fill="none" xmlns="http://www.w3.org/2000/svg">
<path d="M36.468 5.37L35.01 5.802C34.914 5.298 34.608 4.884 34.092 4.56C33.588 4.236 32.994 4.074 32.31 4.074C31.554 4.074 30.924 4.26 30.42 4.632C29.928 4.992 29.682 5.454 29.682 6.018C29.682 6.618 30.012 7.08 30.672 7.404C31.272 7.692 32.058 7.956 33.03 8.196C33.846 8.388 34.524 8.616 35.064 8.88C35.628 9.132 36.054 9.468 36.342 9.888C36.63 10.308 36.792 10.866 36.828 11.562C36.828 12.654 36.414 13.53 35.586 14.19C34.77 14.862 33.72 15.198 32.436 15.198C31.26 15.198 30.27 14.922 29.466 14.37C28.65 13.806 28.134 13.11 27.918 12.282L29.358 11.85C29.442 12.378 29.778 12.834 30.366 13.218C30.93 13.59 31.62 13.776 32.436 13.776C33.276 13.776 33.972 13.578 34.524 13.182C35.088 12.786 35.37 12.282 35.37 11.67C35.37 11.046 35.07 10.578 34.47 10.266C33.978 10.002 33.366 9.78 32.634 9.6L31.914 9.42L31.23 9.222C30.942 9.126 30.714 9.042 30.546 8.97L29.952 8.7C29.868 8.664 29.79 8.628 29.718 8.592C29.646 8.544 29.586 8.508 29.538 8.484C29.49 8.46 29.43 8.418 29.358 8.358C29.298 8.298 29.256 8.262 29.232 8.25C29.22 8.226 29.172 8.178 29.088 8.106C29.004 8.022 28.95 7.968 28.926 7.944C28.47 7.524 28.242 6.912 28.242 6.108C28.242 5.1 28.62 4.278 29.376 3.642C30.132 2.994 31.098 2.67 32.274 2.67C33.354 2.67 34.266 2.928 35.01 3.444C35.778 3.948 36.264 4.59 36.468 5.37ZM46.6352 11.4H39.6872C39.7712 12.12 40.0892 12.726 40.6412 13.218C41.1932 13.698 41.8592 13.938 42.6392 13.938C43.6712 13.938 44.4692 13.548 45.0332 12.768L46.3112 13.182C45.9392 13.806 45.4292 14.298 44.7812 14.658C44.1332 15.006 43.4192 15.18 42.6392 15.18C41.3912 15.18 40.3592 14.778 39.5432 13.974C38.7272 13.158 38.3192 12.15 38.3192 10.95C38.3192 9.75 38.7212 8.748 39.5252 7.944C40.3412 7.128 41.3372 6.72 42.5132 6.72C43.6892 6.72 44.6732 7.128 45.4652 7.944C46.2692 8.748 46.6712 9.75 46.6712 10.95C46.6712 11.13 46.6592 11.28 46.6352 11.4ZM39.7052 10.338H45.3032C45.1712 9.642 44.8412 9.072 44.3132 8.628C43.7972 8.184 43.1852 7.962 42.4772 7.962C41.7932 7.962 41.1932 8.184 40.6772 8.628C40.1612 9.072 39.8372 9.642 39.7052 10.338ZM51.9656 6.72C53.1536 6.72 54.1316 7.152 54.8996 8.016V6.9H56.2316V15H54.8996V13.884C54.1316 14.748 53.1536 15.18 51.9656 15.18C50.8256 15.18 49.8716 14.778 49.1036 13.974C48.3476 13.17 47.9696 12.162 47.9696 10.95C47.9696 9.762 48.3476 8.76 49.1036 7.944C49.8836 7.128 50.8376 6.72 51.9656 6.72ZM54.0716 8.88C53.5556 8.328 52.9016 8.052 52.1096 8.052C51.3176 8.052 50.6636 8.328 50.1476 8.88C49.6196 9.444 49.3556 10.134 49.3556 10.95C49.3556 11.766 49.6196 12.456 50.1476 13.02C50.6636 13.572 51.3176 13.848 52.1096 13.848C52.9016 13.848 53.5556 13.572 54.0716 13.02C54.5996 12.456 54.8636 11.766 54.8636 10.95C54.8636 10.134 54.5996 9.444 54.0716 8.88ZM59.7878 10.428V15H58.4738V6.9H59.7878V8.268C60.3998 7.236 61.3538 6.72 62.6498 6.72H62.8838V8.196C62.6798 8.136 62.4818 8.106 62.2898 8.106C61.5818 8.106 60.9878 8.328 60.5078 8.772C60.0278 9.216 59.7878 9.768 59.7878 10.428ZM71.7137 9.168L70.3817 9.582C70.1537 9.114 69.8177 8.742 69.3737 8.466C68.9297 8.19 68.4257 8.052 67.8617 8.052C67.0457 8.052 66.3677 8.328 65.8277 8.88C65.2877 9.432 65.0177 10.122 65.0177 10.95C65.0177 11.778 65.2877 12.468 65.8277 13.02C66.3677 13.572 67.0457 13.848 67.8617 13.848C68.4257 13.848 68.9297 13.71 69.3737 13.434C69.8177 13.158 70.1537 12.786 70.3817 12.318L71.7137 12.732C71.3897 13.488 70.8797 14.088 70.1837 14.532C69.4997 14.964 68.7257 15.18 67.8617 15.18C66.6497 15.18 65.6417 14.778 64.8377 13.974C64.0337 13.17 63.6317 12.162 63.6317 10.95C63.6317 9.738 64.0337 8.73 64.8377 7.926C65.6417 7.122 66.6497 6.72 67.8617 6.72C68.7257 6.72 69.4997 6.942 70.1837 7.386C70.8797 7.818 71.3897 8.412 71.7137 9.168ZM73.3977 15V1.95H74.7117V8.25C75.3357 7.23 76.3017 6.72 77.6097 6.72C78.5577 6.72 79.3377 7.032 79.9497 7.656C80.5737 8.268 80.8857 9.036 80.8857 9.96V15H79.5537V10.302C79.5537 9.642 79.3317 9.096 78.8877 8.664C78.4437 8.22 77.8917 7.998 77.2317 7.998C76.5117 7.998 75.9117 8.22 75.4317 8.664C74.9517 9.108 74.7117 9.66 74.7117 10.32V15H73.3977Z" fill="black"/>
<path fill-rule="evenodd" clip-rule="evenodd" d="M12.3636 6.95455C12.3636 9.94191 9.94191 12.3636 6.95455 12.3636C3.96718 12.3636 1.54545 9.94191 1.54545 6.95455C1.54545 3.96718 3.96718 1.54545 6.95455 1.54545C9.94191 1.54545 12.3636 3.96718 12.3636 6.95455ZM11.2955 12.3882C10.1057 13.3401 8.59661 13.9091 6.95455 13.9091C3.11366 13.9091 0 10.7954 0 6.95455C0 3.11366 3.11366 0 6.95455 0C10.7954 0 13.9091 3.11366 13.9091 6.95455C13.9091 8.59661 13.3401 10.1057 12.3882 11.2955L16.7737 15.6808C17.0754 15.9826 17.0754 16.4719 16.7737 16.7737C16.4719 17.0754 15.9826 17.0754 15.6808 16.7737L11.2955 12.3882Z" fill="black"/>
</svg>
