<svg width="24" height="20" viewBox="0 0 24 20" fill="none" xmlns="http://www.w3.org/2000/svg">
<path id="Path-3" fill-rule="evenodd" clip-rule="evenodd" d="M1.64987 8.63509C8.09231 5.86395 12.3883 4.03704 14.5378 3.15437C20.675 0.634159 21.9503 0.196373 22.7815 0.181917C22.9643 0.178737 23.3731 0.223468 23.6379 0.435583C23.8614 0.614688 23.9229 0.856634 23.9524 1.02645C23.9818 1.19626 24.0185 1.58309 23.9893 1.88536C23.6568 5.33533 22.2177 13.7075 21.4856 17.5715C21.1758 19.2065 20.5658 19.7547 19.9753 19.8084C18.6919 19.925 17.7174 18.9711 16.4744 18.1666C14.5294 16.9079 13.4305 16.1243 11.5425 14.8959C9.36064 13.4764 10.7751 12.6962 12.0185 11.4211C12.344 11.0874 17.9985 6.00968 18.1079 5.54905C18.1216 5.49144 18.1343 5.2767 18.0051 5.16331C17.8759 5.04992 17.6851 5.08869 17.5475 5.11953C17.3524 5.16324 14.2452 7.19087 8.22584 11.2024C7.34386 11.8003 6.545 12.0916 5.82924 12.0764C5.04018 12.0596 3.52233 11.6359 2.39397 11.2738C1.00999 10.8296 -0.0899676 10.5948 0.00581423 9.84051C0.0557033 9.44762 0.603723 9.04581 1.64987 8.63509Z" fill="#4F6173"/>
</svg>
