<!DOCTYPE svg PUBLIC "-//W3C//DTD SVG 1.1//EN" "http://www.w3.org/Graphics/SVG/1.1/DTD/svg11.dtd">
<!-- Uploaded to: SVG Repo, www.svgrepo.com, Transformed by: SVG Repo Mixer Tools -->
<svg version="1.1" id="_x32_" xmlns="http://www.w3.org/2000/svg" xmlns:xlink="http://www.w3.org/1999/xlink" viewBox="0 0 512 512" xml:space="preserve" width="256px" height="256px" fill="#ffffff" stroke="#ffffff">
<g id="SVGRepo_bgCarrier" stroke-width="0"/>
<g id="SVGRepo_tracerCarrier" stroke-linecap="round" stroke-linejoin="round"/>
<g id="SVGRepo_iconCarrier"> <style type="text/css"> .st0{fill:#ffffff;} </style> <g> <path class="st0" d="M451.576,98.414H60.423C27.104,98.414,0,125.523,0,158.841v55.962v17.919l17.733,2.544 c10.252,1.47,17.984,10.385,17.984,20.737c0,10.345-7.728,19.26-17.975,20.73L0,279.269v17.928v55.97 c0,33.311,27.104,60.42,60.423,60.42h391.153c33.319,0,60.424-27.109,60.424-60.42v-55.598V277.84l-19.708-0.921 c-11.2-0.524-19.978-9.715-19.978-20.915c0-11.2,8.778-20.39,19.986-20.922l19.7-0.929v-19.72v-55.591 C512,125.523,484.896,98.414,451.576,98.414z M491.327,214.433c-22.086,1.042-39.686,19.227-39.686,41.571 c0,22.345,17.6,40.53,39.686,41.564v55.598c0,21.949-17.798,39.747-39.751,39.747H60.423c-21.953,0-39.75-17.798-39.75-39.747 v-55.97c20.184-2.891,35.717-20.205,35.717-41.193c0-20.987-15.533-38.301-35.717-41.2v-55.962 c0-21.956,17.798-39.754,39.75-39.754h391.153c21.952,0,39.751,17.798,39.751,39.754V214.433z"/> <rect x="118.699" y="332.163" class="st0" width="13.676" height="35.669"/> <rect x="118.699" y="269.498" class="st0" width="13.676" height="35.669"/> <rect x="118.699" y="206.826" class="st0" width="13.676" height="35.676"/> <rect x="118.699" y="144.169" class="st0" width="13.676" height="35.669"/> </g> </g>
</svg>