<svg width="24" height="20" viewBox="0 0 24 20" fill="none" xmlns="http://www.w3.org/2000/svg">
<path id="Symbol" d="M21.543 4.97889C21.5576 5.19587 21.5576 5.41285 21.5576 5.63184C21.5576 12.3043 16.6045 19.9998 7.54759 19.9998V19.9958C4.87215 19.9998 2.25229 19.2138 0 17.7319C0.389031 17.7799 0.780012 17.8039 1.17197 17.8049C3.38915 17.8069 5.54296 17.044 7.28726 15.6391C5.18026 15.5981 3.3326 14.1892 2.68714 12.1323C3.42523 12.2783 4.18574 12.2483 4.91018 12.0454C2.61304 11.5694 0.96039 9.49955 0.96039 7.09573C0.96039 7.07373 0.96039 7.05273 0.96039 7.03173C1.64485 7.4227 2.41121 7.63969 3.19512 7.66369C1.03157 6.1808 0.364656 3.22902 1.67118 0.921193C4.17111 4.07596 7.8596 5.99381 11.8191 6.1968C11.4223 4.44293 11.9644 2.60507 13.2436 1.37216C15.2268 -0.539697 18.3459 -0.441704 20.2101 1.59114C21.3129 1.36816 22.3698 0.953191 23.337 0.365235C22.9694 1.53415 22.2001 2.52707 21.1725 3.15802C22.1484 3.04003 23.102 2.77205 24 2.36308C23.3389 3.37901 22.5063 4.26394 21.543 4.97889Z" fill="#4F6173"/>
</svg>
