<svg width="111" height="390" viewBox="0 0 111 390" fill="none" xmlns="http://www.w3.org/2000/svg">
<path d="M69.7013 2.68259C69.7013 35.2926 62.5445 51.8497 55.6333 67.8596C48.626 84.0734 42.0033 99.3966 42.0033 130.901C42.0033 162.406 48.626 177.719 55.6333 193.932C62.5445 209.942 69.7013 226.499 69.7013 259.109C69.7013 291.719 62.5445 308.277 55.6333 324.286C48.626 340.511 42.0033 355.823 42.0033 387.317C42.0033 388.029 41.7218 388.711 41.221 389.214C40.7202 389.717 40.0411 390 39.3328 390C38.6245 390 37.9452 389.717 37.4444 389.214C36.9436 388.711 36.6623 388.029 36.6623 387.317C36.6623 354.718 43.8191 338.161 50.7303 322.151C57.7376 305.927 64.3604 290.603 64.3604 259.109C64.3604 227.615 57.7376 212.292 50.7303 196.068C43.8191 180.058 36.6623 163.511 36.6623 130.901C36.6623 98.2914 43.8191 81.7342 50.7303 65.7243C57.7376 49.4998 64.3604 34.1766 64.3604 2.68259C64.3604 1.97113 64.6418 1.28885 65.1426 0.785767C65.6434 0.282684 66.3226 0 67.0308 0C67.7391 0 68.4184 0.282684 68.9192 0.785767C69.42 1.28885 69.7013 1.97113 69.7013 2.68259Z" fill="#151D25"/>
<path d="M46.987 2.68259C46.987 35.2926 39.8302 51.8497 32.9191 67.8596C25.9118 84.0734 19.289 99.3966 19.289 130.901C19.289 162.406 25.9118 177.719 32.9191 193.932C39.8302 209.942 46.987 226.499 46.987 259.109C46.987 291.719 39.8302 308.277 32.9191 324.286C25.9118 340.511 19.289 355.823 19.289 387.317C19.289 388.029 19.0076 388.711 18.5068 389.214C18.0059 389.717 17.3268 390 16.6185 390C15.9103 390 15.231 389.717 14.7302 389.214C14.2293 388.711 13.948 388.029 13.948 387.317C13.948 354.718 21.1049 338.161 28.0161 322.151C35.0234 305.927 41.6461 290.603 41.6461 259.109C41.6461 227.615 35.0234 212.292 28.0161 196.068C21.1049 180.058 13.948 163.511 13.948 130.901C13.948 98.2914 21.1049 81.7342 28.0161 65.7243C35.0234 49.4998 41.6461 34.1766 41.6461 2.68259C41.6461 1.97113 41.9275 1.28885 42.4283 0.785767C42.9291 0.282684 43.6083 0 44.3165 0C45.0248 0 45.7041 0.282684 46.2049 0.785767C46.7057 1.28885 46.987 1.97113 46.987 2.68259Z" fill="#151D25"/>
<path d="M111 2.68259C111 35.2926 103.843 51.8497 96.9321 67.8596C89.9247 84.0734 83.302 99.3966 83.302 130.901C83.302 162.406 89.9247 177.719 96.9321 193.932C103.843 209.942 111 226.499 111 259.109C111 291.719 103.843 308.277 96.9321 324.286C89.9247 340.511 83.302 355.823 83.302 387.317C83.302 388.029 83.0205 388.711 82.5197 389.214C82.0189 389.717 81.3398 390 80.6315 390C79.9233 390 79.2439 389.717 78.7431 389.214C78.2423 388.711 77.961 388.029 77.961 387.317C77.961 354.718 85.1071 338.161 92.029 322.151C99.0363 305.927 105.659 290.603 105.659 259.109C105.659 227.615 99.0363 212.292 92.029 196.068C85.1071 180.058 77.961 163.511 77.961 130.901C77.961 98.2914 85.1071 81.7342 92.029 65.7243C99.0363 49.4998 105.659 34.1766 105.659 2.68259C105.659 1.97113 105.94 1.28885 106.441 0.785767C106.942 0.282684 107.621 0 108.33 0C109.038 0 109.717 0.282684 110.218 0.785767C110.719 1.28885 111 1.97113 111 2.68259Z" fill="#151D25"/>
<path d="M90.3506 2.68259C90.3506 35.2926 83.1939 51.8497 76.2827 67.8596C69.2754 84.0734 62.6526 99.3966 62.6526 130.901C62.6526 162.406 69.2754 177.719 76.2827 193.932C83.1939 209.942 90.3506 226.499 90.3506 259.109C90.3506 291.719 83.1939 308.277 76.2827 324.286C69.2754 340.511 62.6526 355.823 62.6526 387.317C62.6526 388.029 62.3712 388.711 61.8704 389.214C61.3696 389.717 60.6904 390 59.9822 390C59.2739 390 58.5946 389.717 58.0938 389.214C57.593 388.711 57.3117 388.029 57.3117 387.317C57.3117 354.718 64.4685 338.161 71.3796 322.151C78.3869 305.927 85.0097 290.603 85.0097 259.109C85.0097 227.615 78.3869 212.292 71.3796 196.068C64.4685 180.058 57.3117 163.511 57.3117 130.901C57.3117 98.2914 64.4685 81.7342 71.3796 65.7243C78.3869 49.4998 85.0097 34.1766 85.0097 2.68259C85.0097 1.97113 85.2911 1.28885 85.7919 0.785767C86.2928 0.282684 86.9719 0 87.6802 0C88.3884 0 89.0677 0.282684 89.5685 0.785767C90.0694 1.28885 90.3506 1.97113 90.3506 2.68259Z" fill="#151D25"/>
<path d="M26.3377 2.68259C26.3377 35.2926 19.1809 51.8497 12.2697 67.8596C5.26241 84.0734 -1.36037 99.3966 -1.36037 130.901C-1.36037 162.406 5.26241 177.719 12.2697 193.932C19.1809 209.942 26.3377 226.499 26.3377 259.109C26.3377 291.719 19.1809 308.277 12.2697 324.286C5.26241 340.511 -1.36037 355.823 -1.36037 387.317C-1.36037 388.029 -1.64179 388.711 -2.1426 389.214C-2.64341 389.717 -3.32258 390 -4.03083 390C-4.73909 390 -5.41839 389.717 -5.9192 389.214C-6.42001 388.711 -6.7013 388.029 -6.7013 387.317C-6.7013 354.718 0.455601 338.161 7.36678 322.151C14.3741 305.927 20.9967 290.603 20.9967 259.109C20.9967 227.615 14.3741 212.292 7.36678 196.068C0.455601 180.058 -6.7013 163.511 -6.7013 130.901C-6.7013 98.2914 0.455601 81.7342 7.36678 65.7243C14.3741 49.4998 20.9967 34.1766 20.9967 2.68259C20.9967 1.97113 21.2782 1.28885 21.779 0.785767C22.2798 0.282684 22.9589 0 23.6672 0C24.3755 0 25.0547 0.282684 25.5556 0.785767C26.0564 1.28885 26.3377 1.97113 26.3377 2.68259Z" fill="#151D25"/>
<path d="M5.68831 2.68259C5.68831 35.2926 -1.46857 51.8497 -8.37971 67.8596C-15.387 84.0734 -22.0097 99.3966 -22.0097 130.901C-22.0097 162.406 -15.387 177.719 -8.37971 193.932C-1.46857 209.942 5.68831 226.499 5.68831 259.109C5.68831 291.719 -1.46857 308.277 -8.37971 324.286C-15.387 340.511 -22.0097 355.823 -22.0097 387.317C-22.0097 388.029 -22.291 388.711 -22.7918 389.214C-23.2926 389.717 -23.9719 390 -24.6802 390C-25.3884 390 -26.0677 389.717 -26.5686 389.214C-27.0694 388.711 -27.3507 388.029 -27.3507 387.317C-27.3507 354.718 -20.1938 338.161 -13.2826 322.151C-6.27536 305.927 0.347393 290.603 0.347393 259.109C0.347393 227.615 -6.27536 212.292 -13.2826 196.068C-20.1938 180.058 -27.3507 163.511 -27.3507 130.901C-27.3507 98.2914 -20.1938 81.7342 -13.2826 65.7243C-6.27536 49.4998 0.347393 34.1766 0.347393 2.68259C0.347393 1.97113 0.628685 1.28885 1.12949 0.785767C1.6303 0.282684 2.3096 0 3.01785 0C3.7261 0 4.40527 0.282684 4.90608 0.785767C5.40689 1.28885 5.68831 1.97113 5.68831 2.68259Z" fill="#151D25"/>
<path d="M-14.961 2.68259C-14.961 35.2926 -22.1179 51.8497 -29.0291 67.8596C-36.0363 84.0734 -42.6591 99.3966 -42.6591 130.901C-42.6591 162.406 -36.0363 177.719 -29.0291 193.932C-22.1179 209.942 -14.961 226.499 -14.961 259.109C-14.961 291.719 -22.1179 308.277 -29.0291 324.286C-36.0363 340.511 -42.6591 355.823 -42.6591 387.317C-42.6591 388.029 -42.9404 388.711 -43.4412 389.214C-43.942 389.717 -44.6213 390 -45.3295 390C-46.0378 390 -46.7171 389.717 -47.2179 389.214C-47.7187 388.711 -48 388.029 -48 387.317C-48 354.718 -40.8431 338.161 -33.932 322.151C-26.9247 305.927 -20.302 290.603 -20.302 259.109C-20.302 227.615 -26.9247 212.292 -33.932 196.068C-40.8431 180.058 -48 163.511 -48 130.901C-48 98.2914 -40.8431 81.7342 -33.932 65.7243C-26.9247 49.4998 -20.302 34.1766 -20.302 2.68259C-20.302 1.97113 -20.0207 1.28885 -19.5199 0.785767C-19.0191 0.282684 -18.3398 0 -17.6315 0C-16.9233 0 -16.2441 0.282684 -15.7433 0.785767C-15.2425 1.28885 -14.961 1.97113 -14.961 2.68259Z" fill="#151D25"/>
</svg>
