<svg width="17" height="17" viewBox="0 0 17 17" fill="none" xmlns="http://www.w3.org/2000/svg">
<path fill-rule="evenodd" clip-rule="evenodd" d="M14.8333 1.53333H9.13333V7.86666H15.4667V2.16666C15.4667 1.81689 15.1831 1.53333 14.8333 1.53333ZM15.4667 9.13333H9.13333V15.4667H14.8333C15.1831 15.4667 15.4667 15.1831 15.4667 14.8333V9.13333ZM7.86666 7.86666V1.53333H2.16666C1.81689 1.53333 1.53333 1.81689 1.53333 2.16666V7.86666H7.86666ZM1.53333 9.13333V14.8333C1.53333 15.1831 1.81689 15.4667 2.16666 15.4667H7.86666V9.13333H1.53333ZM2.16666 0.266663C1.11732 0.266663 0.266663 1.11732 0.266663 2.16666V14.8333C0.266663 15.8826 1.11732 16.7333 2.16666 16.7333H14.8333C15.8826 16.7333 16.7333 15.8826 16.7333 14.8333V2.16666C16.7333 1.11732 15.8826 0.266663 14.8333 0.266663H2.16666Z" fill="black"/>
</svg>
