<svg width="66" height="15" viewBox="0 0 66 15" fill="none" xmlns="http://www.w3.org/2000/svg">
<path d="M7.71616 14H6.40216L0.966156 1.4H2.67616L7.06816 11.66L7.48216 10.652L11.4422 1.4H13.1522L7.71616 14ZM16.247 14H14.735V4.64H16.247V14ZM14.735 3.11C14.543 2.906 14.447 2.654 14.447 2.354C14.447 2.054 14.543 1.808 14.735 1.616C14.939 1.412 15.191 1.31 15.491 1.31C15.791 1.31 16.043 1.412 16.247 1.616C16.451 1.808 16.553 2.054 16.553 2.354C16.553 2.654 16.451 2.906 16.247 3.11C16.043 3.302 15.791 3.398 15.491 3.398C15.191 3.398 14.939 3.302 14.735 3.11ZM27.9216 9.842H19.8756C19.9836 10.682 20.3556 11.384 20.9916 11.948C21.6156 12.5 22.3836 12.776 23.2956 12.776C24.4836 12.776 25.4076 12.326 26.0676 11.426L27.5436 11.894C27.1116 12.614 26.5176 13.178 25.7616 13.586C25.0176 13.994 24.1956 14.198 23.2956 14.198C21.8796 14.198 20.6916 13.736 19.7316 12.812C18.7836 11.876 18.3096 10.712 18.3096 9.32C18.3096 7.928 18.7716 6.77 19.6956 5.846C20.6196 4.91 21.7656 4.442 23.1336 4.442C24.5136 4.442 25.6596 4.91 26.5716 5.846C27.4956 6.77 27.9576 7.928 27.9576 9.32C27.9576 9.356 27.9456 9.53 27.9216 9.842ZM19.8936 8.618H26.3916C26.2476 7.814 25.8696 7.148 25.2576 6.62C24.6576 6.104 23.9376 5.846 23.0976 5.846C22.2816 5.846 21.5796 6.104 20.9916 6.62C20.4036 7.136 20.0376 7.802 19.8936 8.618ZM33.045 14H31.731L28.545 4.64H30.075L32.361 11.66L34.647 4.64H35.979L38.265 11.678L40.569 4.64H42.099L38.895 14H37.581L35.313 7.16L33.045 14ZM52.6773 4.442C54.0813 4.442 55.2213 4.952 56.0973 5.972V4.64H57.6093V14H56.0973V12.668C55.2213 13.688 54.0813 14.198 52.6773 14.198C51.3693 14.198 50.2713 13.736 49.3833 12.812C48.5073 11.888 48.0693 10.724 48.0693 9.32C48.0693 7.916 48.5073 6.758 49.3833 5.846C50.2593 4.91 51.3573 4.442 52.6773 4.442ZM52.8393 5.954C51.9393 5.954 51.1773 6.278 50.5533 6.926C49.9413 7.562 49.6353 8.36 49.6353 9.32C49.6353 10.28 49.9413 11.084 50.5533 11.732C51.1893 12.368 51.9513 12.686 52.8393 12.686C53.7513 12.686 54.5133 12.368 55.1253 11.732C55.7493 11.096 56.0613 10.292 56.0613 9.32C56.0613 8.348 55.7493 7.55 55.1253 6.926C54.5133 6.278 53.7513 5.954 52.8393 5.954ZM61.6689 14H60.1569V0.499999H61.6689V14ZM65.7295 14H64.2175V0.499999H65.7295V14Z" fill="black"/>
</svg>
